<?xml version="1.0" encoding="utf-8"?>
<!-- Generator: Adobe Illustrator 26.4.1, SVG Export Plug-In . SVG Version: 6.00 Build 0)  -->
<svg version="1.1" id="Layer_1" xmlns="http://www.w3.org/2000/svg" xmlns:xlink="http://www.w3.org/1999/xlink" x="0px" y="0px"
	 viewBox="0 0 399.9 399.9" style="enable-background:new 0 0 399.9 399.9;" xml:space="preserve">
<style type="text/css">
	.st0{fill:#79769A;}
	.st1{fill:#F07A3F;}
</style>
<g>
	<path class="st0" d="M200.9,399.9c-0.6,0-1.2,0-1.8,0c-2.1-1.1-4.2-2.2-6.3-3.2c-21.8-10.5-43-22.3-62.9-36.2
		C88,331.3,58,293.5,43.9,243.8c-9.5-33.7-12.5-68.3-14.3-103.1c-1.9-38.2-1.1-76.4-1.3-114.6c0-4.1,1.1-5.3,5.2-5.2
		c25.3,0.3,50.5-1.6,75.5-5.7c25-4.2,50-8.7,75.1-12.9c6-1,12-2.9,18.1-2c13.2,1.9,26.5,3.9,39.6,6.4c41.5,7.8,83.1,15,125.6,14.2
		c3.3-0.1,4.3,0.9,4.2,4.3c-0.1,25,0.1,50-0.1,75c-0.4,35.1-1.8,70.1-7.1,104.9c-4.6,30.3-12.9,59.5-28.4,86.2
		C317.1,323.6,290,347.8,259,368C240.4,380.1,220.7,390.1,200.9,399.9z M342.6,108.6c0-18.6-0.1-37.2,0.1-55.8
		c0-2.8-0.9-3.4-3.5-3.6c-9.3-0.5-18.7-1.3-28-2.2c-29.4-3.1-58.4-9.2-87.5-14.1c-9.7-1.6-19.4-4.7-29.5-3c-9.7,1.7-19.3,3.2-29,5
		c-34.8,6.3-69.6,12.8-105,14.4c-3.1,0.1-2.8,1.8-2.8,3.8c0,15-0.2,30,0.1,45.1c0.7,39.7,1.9,79.4,9.8,118.5
		C74.4,252.2,89,284,114.9,310c24.1,24.2,52.9,41.6,83.1,56.9c1.8,0.9,3.1,0.4,4.6-0.3c6.7-3.5,13.4-7,20.1-10.6
		c19.9-11.1,38.6-23.9,55.6-39.2c32.5-29.5,49.3-67,56.4-109.5C340.1,174.5,341.6,141.6,342.6,108.6z"/>
	<path class="st1" d="M309.1,120.1c-1.5,29.4-3.3,58.8-8.6,87.9c-7.8,43.7-30.7,77.3-67.2,102c-9.9,6.7-19.9,13-30.4,18.7
		c-1.5,0.9-2.9,1.8-4.9,0.6c-23.7-13.1-46-27.9-64.4-48.1c-19.4-21.4-29.4-47.1-34.6-75.1c-5.6-30.2-7.1-60.8-7.9-91.5
		c-0.3-10.3-0.2-20.5-0.4-30.8c0-2.1,0.1-3.5,2.9-3.8c33.9-3.7,67.2-10.9,100.8-16.5c9.5-1.6,18.6,1.3,27.8,2.9
		c27.5,4.8,54.9,10.3,82.8,13.3c3.6,0.4,4.3,1.7,4.2,5C309,96.6,309.1,108.4,309.1,120.1z M244.7,255.4c6.2-0.1,9.8-4.8,8.4-11
		c-3.1-13.9-6.2-27.8-9.5-41.7c-0.6-2.7-0.2-4.3,1.9-6.1c10.6-9.1,21-18.4,31.6-27.6c3.2-2.7,5.1-5.9,3.6-10.2
		c-1.4-4.2-4.7-5.8-8.9-6.2c-13.8-1.2-27.5-2.5-41.3-3.6c-2.9-0.2-4.5-1.2-5.6-3.9c-5.2-12.6-10.7-25.1-16-37.7
		c-1.7-4.1-4-7.4-9-7.4c-5,0-7.2,3.3-8.9,7.4c-5.3,12.6-10.8,25.1-16,37.7c-1,2.5-2.4,3.6-5.2,3.9c-13.5,1.1-26.9,2.5-40.4,3.5
		c-4.6,0.4-8.6,1.4-10.2,6.3c-1.6,4.7,1,7.9,4.3,10.8c10.1,8.8,20,17.7,30.3,26.4c2.7,2.3,3.2,4.3,2.4,7.6
		c-3.2,13.1-6,26.4-9.1,39.5c-1,4.3-0.8,8.1,2.9,10.8c3.7,2.7,7.5,1.8,11.2-0.5c12-7.2,24-14.3,35.9-21.6c2.1-1.3,3.5-1.3,5.6,0
		c11.9,7.3,23.9,14.4,35.9,21.6C240.6,254.5,242.5,255.7,244.7,255.4z"/>
</g>
</svg>
