<?xml version="1.0" encoding="utf-8"?>
<svg xmlns="http://www.w3.org/2000/svg" xmlns:xlink="http://www.w3.org/1999/xlink" viewBox="0 0 492.44 253.56">
    <defs>
        <linearGradient id="linear-gradient" x1="12.56" y1="126.64" x2="480.66" y2="126.64" gradientUnits="userSpaceOnUse">
            <stop offset="0" stop-color="#c0181f"/>
            <stop offset="1" stop-color="#8a1818"/>
        </linearGradient>
        <linearGradient id="linear-gradient-2" x1="63.41" y1="9.4" x2="492.44" y2="9.4" xlink:href="#linear-gradient"/>
        <linearGradient id="linear-gradient-3" x1="0" y1="244.16" x2="429.58" y2="244.16" xlink:href="#linear-gradient"/>
    </defs>
    <path fill="url(#linear-gradient)"
          d="M471,33.17c-5.43-.31-11.63-.28-17.09-.27-23.19.05-46.38,0-69.57,0q-138.7,0-277.42,0c-11.59,0-34.75-.1-34.75-.1-6.71,0-12.61,0-15.89,10.92l-40.71,152-1.77,6.76C10,215.1,15,220.06,28.38,220.06c0,0,9.13-.17,13.61-.18q90.9-.07,181.8,0v0h92.74q22.07,0,44.12.07c18.89.1,37.78.29,56.67.41,3.41,0,6.89.32,10.23-.21,5.21-.83,8-4.52,8.84-9.68L480.24,44.73C481.93,37.58,478.48,33.59,471,33.17Z"/>
    <polygon fill="url(#linear-gradient-2)" points="487.79 18.8 63.41 18.8 68.32 0 492.44 0 487.79 18.8"/>
    <polygon fill="url(#linear-gradient-3)" points="424.93 253.56 0 253.56 4.97 234.76 429.58 234.76 424.93 253.56"/>
    <path fill="#fff"
          d="M173.86,176.37H149.6L124.35,97.92h-.42l-.29,2.27q-2.27,15.32-4.68,27.38l-10.29,48.8H89.17L111.09,72.66h25.32l24.12,76.4h.28q.85-5.38,2.77-15.39t12.77-61h19.43Z"/>
    <path fill="#fff" d="M256.79,176.37h-58L220.75,72.66h58l-3.84,18H238.63l-4.76,22.77h33.84l-3.9,18H230l-5.67,26.74h36.32Z"/>
    <path fill="#fff"
          d="M345.17,104.16A192.36,192.36,0,0,1,337,125.37l-23,51h-24L286.86,72.66h20.36l.43,56.61q0,3.69-.29,12.27t-.71,12.34h.43q1.56-4.53,4.75-12.8t4.26-10.32l26.17-58.1h19.15l1.49,61.93q0,10.35-.64,19.29h.43q3-9.15,9.29-24.75l23.41-56.47h21.92L371.42,176.37H346.87l-1.56-51.14-.14-9.86q0-6.24.28-11.21Z"/>
</svg>
