<?xml version="1.0" encoding="utf-8"?>
<svg xmlns="http://www.w3.org/2000/svg" xmlns:xlink="http://www.w3.org/1999/xlink" viewBox="0 0 967.1 253.56">
    <defs>
        <linearGradient id="linear-gradient" x1="12.56" y1="126.64" x2="955.33" y2="126.64" gradientUnits="userSpaceOnUse">
            <stop offset="0" stop-color="#13a338"/>
            <stop offset="1" stop-color="#127d35"/>
        </linearGradient>
        <linearGradient id="linear-gradient-2" x1="63.41" y1="9.4" x2="967.1" y2="9.4" xlink:href="#linear-gradient"/>
        <linearGradient id="linear-gradient-3" x1="0" y1="244.16" x2="904.24" y2="244.16" xlink:href="#linear-gradient"/>
    </defs>
    <path fill="url(#linear-gradient)"
          d="M945.7,33.17c-5.43-.31-11.63-.28-17.09-.27-23.19.05-521,0-544.23,0q-138.7,0-277.42,0c-11.59,0-34.75-.1-34.75-.1-6.71,0-12.61,0-15.89,10.92l-40.71,152-1.77,6.76C10,215.1,15,220.06,28.38,220.06c0,0,9.13-.17,13.61-.18q90.9-.07,181.8,0v0h92.74q22.07,0,44.12.07c18.89.1,512.45.29,531.33.41,3.42,0,6.89.32,10.23-.21,5.22-.83,8-4.52,8.84-9.68L954.91,44.73C956.6,37.58,953.15,33.59,945.7,33.17Z"/>
    <polygon fill="url(#linear-gradient-2)" points="962.46 18.8 63.41 18.8 68.32 0 967.1 0 962.46 18.8"/>
    <polygon fill="url(#linear-gradient-3)" points="899.59 253.56 0 253.56 4.97 234.76 904.24 234.76 899.59 253.56"/>
    <path fill="#fff"
          d="M194.87,111.76q0,20.07-7,35.93t-19.22,23.94a49.7,49.7,0,0,1-28.09,8.08q-18.16,0-28.34-10.46T102,140.2a84.16,84.16,0,0,1,7-34.58q7-15.78,19.37-24.22A49.26,49.26,0,0,1,156.92,73q18.09,0,28,10.21T194.87,111.76Zm-39.72-20.5q-8.58,0-15.75,6.49t-11.24,17.84a72.25,72.25,0,0,0-4.08,24.61q0,10.44,4.72,15.75t13.3,5.32a23.24,23.24,0,0,0,15.64-6.17q7-6.16,11-17.45a75.84,75.84,0,0,0,4-25.32q0-10.08-4.61-15.57T155.15,91.26Z"/>
    <path fill="#fff"
          d="M242.75,114.38q16.89,0,25.82,7.42t8.94,21.6q0,16.8-11.21,25.85t-32.41,9H203.1L225,74.59h58.31l-3.83,18H242.61L238,114.38Zm-7.37,45.9q9.85,0,15-4.15t5.18-11.67q0-12.06-13.69-12.06h-7.66l-6,27.88Z"/>
    <path fill="#fff" d="M365.83,178.29H344.12l9.5-44.75H320.21l-9.5,44.75H289.07L311,74.59H332.7l-8.58,40.64h33.41l8.58-40.64h21.63Z"/>
    <path fill="#fff"
          d="M488.61,111.76q0,20.07-7,35.93t-19.22,23.94a49.7,49.7,0,0,1-28.09,8.08q-18.16,0-28.34-10.46T395.76,140.2a84.16,84.16,0,0,1,7-34.58q7-15.78,19.37-24.22T450.66,73q18.09,0,28,10.21T488.61,111.76Zm-39.72-20.5q-8.58,0-15.75,6.49T421.9,115.59a72.25,72.25,0,0,0-4.08,24.61q0,10.44,4.72,15.75t13.3,5.32a23.24,23.24,0,0,0,15.64-6.17q7-6.16,11-17.45a75.84,75.84,0,0,0,4-25.32q0-10.08-4.61-15.57T448.89,91.26Z"/>
    <path fill="#fff"
          d="M549,74.59q16.24,0,24.54,5.78t8.3,17.27q0,10.65-5.89,17.56t-16.74,9.18v.43a21.39,21.39,0,0,1,11.32,6.85q4.22,5,4.22,12.8,0,16.24-10.86,25t-30,8.79h-37l21.92-103.7Zm-26.67,85.55h12.76q8.31,0,13-4.12t4.72-11.42q0-11.49-13-11.49H528.12Zm9.43-44.48h10.57q8.58,0,12.87-3.44t4.3-9.9q0-9.7-12.06-9.71H536.63Z"/>
    <path fill="#fff"
          d="M640.13,92.89q-5.61,22.69-11.42,40.93t-11,27.91q-5.22,9.69-11.64,13.83T589,179.71a28.22,28.22,0,0,1-10.14-1.7V160a20,20,0,0,0,7.09,1.42,12.28,12.28,0,0,0,7.59-2.23,23.34,23.34,0,0,0,5.82-7.2,102.38,102.38,0,0,0,6.56-15.43q3.72-10.45,8.3-26.35t9.61-35.61h61.08l-22.13,103.7h-21.5l18.16-85.4Z"/>
    <path fill="#fff" d="M745.82,178.29h-58l21.92-103.7h58l-3.83,18H727.66l-4.75,22.77h33.83l-3.9,18H719l-5.68,26.75h36.32Z"/>
    <path fill="#fff" d="M843.36,178.29H821.65l9.5-44.75H797.74l-9.5,44.75H766.6l21.92-103.7h21.71l-8.58,40.64h33.41l8.58-40.64h21.63Z"/>
</svg>
