<?xml version="1.0" encoding="utf-8"?>
<!-- Generator: Adobe Illustrator 27.1.1, SVG Export Plug-In . SVG Version: 6.00 Build 0)  -->
<svg version="1.1" id="Layer_1" xmlns="http://www.w3.org/2000/svg" xmlns:xlink="http://www.w3.org/1999/xlink" x="0px" y="0px"
	 width="19px" height="19px" viewBox="0 0 19 19" style="enable-background:new 0 0 19 19;" xml:space="preserve">
<style type="text/css">
	.st0{fill:url(#SVGID_1_);}
	.st1{fill:url(#SVGID_00000129898812304480835160000012689898482315810457_);}
	.st2{fill:url(#SVGID_00000146482397145022186590000017356073937286020529_);}
	.st3{fill:url(#SVGID_00000103239940924553114300000004802238849707882427_);}
	.st4{fill:#6C3B00;}
</style>
<linearGradient id="SVGID_1_" gradientUnits="userSpaceOnUse" x1="9.2812" y1="19.4523" x2="9.2812" y2="0.8898" gradientTransform="matrix(1 0 0 -1 0 19.8898)">
	<stop  offset="0" style="stop-color:#F6A45A"/>
	<stop  offset="1" style="stop-color:#B0681E"/>
</linearGradient>
<path class="st0" d="M9.3,19c5.1,0,9.3-4.2,9.3-9.3c0-5.1-4.2-9.3-9.3-9.3C4.2,0.4,0,4.6,0,9.7C0,14.8,4.2,19,9.3,19z"/>
<linearGradient id="SVGID_00000152256123822597667550000003814583911575106696_" gradientUnits="userSpaceOnUse" x1="9.2812" y1="19.1668" x2="9.2812" y2="-0.5529" gradientTransform="matrix(1 0 0 -1 0 19.8898)">
	<stop  offset="0.2061" style="stop-color:#F6A45A"/>
	<stop  offset="1" style="stop-color:#B0681E"/>
</linearGradient>
<path style="fill:url(#SVGID_00000152256123822597667550000003814583911575106696_);" d="M9.3,18.7c5,0,9-4,9-9c0-5-4-9-9-9
	c-5,0-9,4-9,9C0.3,14.7,4.3,18.7,9.3,18.7z"/>
<linearGradient id="SVGID_00000003077792493170140870000006362490890779717019_" gradientUnits="userSpaceOnUse" x1="9.2812" y1="2.1674" x2="9.2812" y2="18.1748" gradientTransform="matrix(1 0 0 -1 0 19.8898)">
	<stop  offset="0" style="stop-color:#F6A45A"/>
	<stop  offset="1" style="stop-color:#B0681E"/>
</linearGradient>
<path style="fill:url(#SVGID_00000003077792493170140870000006362490890779717019_);" d="M9.3,17.7c4.4,0,8-3.6,8-8c0-4.4-3.6-8-8-8
	c-4.4,0-8,3.6-8,8C1.3,14.1,4.9,17.7,9.3,17.7z"/>
<linearGradient id="SVGID_00000064341870819552270460000013502452788616514220_" gradientUnits="userSpaceOnUse" x1="9.2812" y1="17.457" x2="9.2812" y2="-3.2004" gradientTransform="matrix(1 0 0 -1 0 19.8898)">
	<stop  offset="0" style="stop-color:#F6A45A"/>
	<stop  offset="1" style="stop-color:#B0681E"/>
</linearGradient>
<path style="fill:url(#SVGID_00000064341870819552270460000013502452788616514220_);" d="M9.3,17c4,0,7.3-3.3,7.3-7.3
	c0-4-3.3-7.3-7.3-7.3C5.3,2.4,2,5.7,2,9.7C2,13.7,5.3,17,9.3,17z"/>
<g>
	<path class="st4" d="M5.7,5.7C6.8,5,8,4.6,9.4,4.6c1,0,1.8,0.2,2.5,0.7c0.6,0.5,1,1,1,1.8c0,1-0.6,1.6-1.7,1.9v0.1
		c0.1,0,0.2,0.1,0.4,0.1c0.5-0.1,0.9-0.4,1.2-0.8c0.3-0.4,0.4-0.8,0.4-1.4c0-0.7-0.3-1.3-0.8-1.8v0l0.1,0.1c0.6,0.5,0.9,1.1,0.9,1.8
		c0,1-0.5,1.7-1.6,2.2c0.5,0.2,0.8,0.5,1.1,0.9c0.3,0.4,0.4,0.8,0.4,1.3c0,0.7-0.3,1.3-0.8,1.7s-1.2,0.6-2,0.6H5.5l1-0.8V9.9
		c-0.3,0-0.6,0-1,0.1L5.4,9.8c0.4,0,0.8-0.1,1-0.1V9.4H6.3c-0.3,0-0.6,0-1,0.1l0.3-0.7l0.1,0c0.2,0,0.3,0,0.4,0c0.1,0,0.3,0,0.3,0
		V6.1L5.7,5.7z M13.2,9.9c0.5,0.4,0.8,1,0.8,1.8c0,0.8-0.3,1.5-0.8,2c-0.5,0.5-1.4,0.8-2.4,0.8H5.9l-0.1-0.2h4.5
		c1,0,1.7-0.1,2.1-0.3c1-0.4,1.4-1.2,1.4-2.3C13.7,11,13.5,10.4,13.2,9.9L13.2,9.9z M7.9,5.6v3.2c0.1,0,0.1,0,0.1,0l0.1,0
		c0,0,0.1,0,0.1,0V5.9C8.6,5.7,9,5.6,9.4,5.6c0.4,0,0.8,0.1,1.1,0.2c0.3,0.2,0.5,0.4,0.7,0.8l-0.2-0.1C10.6,6,10.1,5.8,9.4,5.8
		c-0.4,0-0.7,0.1-1,0.3v2.7h0.3c0.9,0,1.6-0.1,2-0.4C11.2,8,11.4,7.6,11.4,7c0-0.5-0.2-1-0.5-1.3C10.5,5.3,10,5.2,9.4,5.2
		C8.9,5.2,8.4,5.3,7.9,5.6z M7.9,9.4v3.9h0.4V9.8c0.3,0,0.6,0,0.7,0c0.8,0,1.3,0.1,1.7,0.2c0.4,0.1,0.6,0.4,0.8,0.8h-0.1
		c-0.2-0.3-0.5-0.5-0.9-0.7C10.2,10,9.7,10,9,10l-0.6,0v3.3h0.2l1,0c1.3-0.1,2-0.7,2-1.9c0-0.8-0.2-1.3-0.7-1.5
		c-0.4-0.3-1.3-0.4-2.5-0.4C8.4,9.3,8.2,9.4,7.9,9.4z"/>
</g>
</svg>
