<?xml version="1.0" encoding="utf-8"?>
<!-- Generator: Adobe Illustrator 26.4.1, SVG Export Plug-In . SVG Version: 6.00 Build 0)  -->
<svg version="1.1" id="Слой_1" xmlns="http://www.w3.org/2000/svg" xmlns:xlink="http://www.w3.org/1999/xlink" x="0px" y="0px"
	 viewBox="0 0 204.2 194.9" style="enable-background:new 0 0 204.2 194.9;" xml:space="preserve">
<style type="text/css">
	.st0{fill:url(#SVGID_1_);}
	.st1{fill:url(#SVGID_00000018237859024695388530000015795034696631130275_);}
	.st2{fill:url(#SVGID_00000100375102502787089780000005102728255115965826_);}
	.st3{opacity:0.1;fill:#FFFFFF;enable-background:new    ;}
	.st4{opacity:0.1;fill:url(#SVGID_00000087387042651441928680000001119864352183974833_);enable-background:new    ;}
	.st5{opacity:0.1;fill:url(#SVGID_00000128473978478641322120000012433755149456708995_);enable-background:new    ;}
	.st6{opacity:0.1;fill:url(#SVGID_00000033334953416104965880000003642974353296476341_);enable-background:new    ;}
	.st7{opacity:0.1;fill:url(#SVGID_00000070119440835816360880000003951286196357968512_);enable-background:new    ;}
	.st8{fill:url(#SVGID_00000017485140062064467430000011729037890306060681_);}
	.st9{opacity:0.5;fill:url(#SVGID_00000033353195604761947990000007774119075359898285_);enable-background:new    ;}
	.st10{fill:#E6ADFF;}
	.st11{opacity:0.1;fill:url(#SVGID_00000163794137405853810740000006201605429959477919_);enable-background:new    ;}
	.st12{display:none;}
	
		.st13{display:inline;opacity:0.5;fill:url(#SVGID_00000053513076890583922020000008931497295664328340_);enable-background:new    ;}
	.st14{display:inline;fill:url(#SVGID_00000051360655094430524870000002487220120121310890_);}
	
		.st15{display:inline;opacity:0.4;fill:url(#SVGID_00000164499444086001221720000010406393501643419576_);enable-background:new    ;}
	
		.st16{display:inline;opacity:0.5;fill:url(#SVGID_00000028317406244555986760000017623336094634104250_);enable-background:new    ;}
	.st17{display:inline;opacity:0.1;fill:#FFFFFF;enable-background:new    ;}
	.st18{display:inline;fill:#E6ADFF;}
	
		.st19{display:inline;opacity:0.5;fill:url(#SVGID_00000081635327003942986020000012535935410929517481_);enable-background:new    ;}
	.st20{display:inline;fill:url(#SVGID_00000096040188606854954040000006823770146234314385_);}
	
		.st21{display:inline;opacity:0.4;fill:url(#SVGID_00000093876866709100857700000005979091064079978658_);enable-background:new    ;}
	
		.st22{display:inline;opacity:0.5;fill:url(#SVGID_00000006687327447826114950000000372151795683350402_);enable-background:new    ;}
	.st23{opacity:0.5;fill:url(#SVGID_00000049929517619004815740000003011070630232201126_);enable-background:new    ;}
	.st24{fill:url(#SVGID_00000173846037566182916090000013532737409401816494_);}
	.st25{opacity:0.4;fill:url(#SVGID_00000016753522998351439630000013606515718458604471_);enable-background:new    ;}
	.st26{opacity:0.5;fill:url(#SVGID_00000021095112033512197480000015962983989873895565_);enable-background:new    ;}
	.st27{fill:url(#SVGID_00000052815014074161142050000010426483587834126481_);fill-opacity:0.49;}
	.st28{fill:url(#SVGID_00000031901019264093643980000016770207388707116692_);}
	.st29{opacity:0.5;fill:url(#SVGID_00000041269093030882559230000001858097962435971733_);}
	.st30{fill:url(#SVGID_00000070820871963572871210000014779609293688233609_);fill-opacity:0.49;}
	.st31{fill:url(#SVGID_00000058563580729684047960000003352720521410202299_);fill-opacity:0.49;}
	.st32{opacity:0.5;fill:url(#SVGID_00000106833832135715123750000010473636721610652802_);}
	.st33{opacity:0.73;fill:url(#SVGID_00000129914107041030424300000005150188469081224343_);}
	.st34{opacity:0.78;fill:url(#SVGID_00000165198830478838320910000009513579145109032334_);}
	.st35{opacity:0.35;fill:url(#SVGID_00000036939933476516250070000003286113678971061649_);}
	.st36{opacity:0.5;fill:url(#SVGID_00000085956333258827001380000014781224050947430541_);}
	.st37{opacity:0.26;fill:#FFFFFF;}
	.st38{opacity:0.5;fill:url(#SVGID_00000134226430583887361830000004410033883088635797_);}
	.st39{fill:url(#SVGID_00000025435628932327111570000014788200197180449952_);fill-opacity:0.7;}
	.st40{fill:url(#SVGID_00000162347205316260776860000001089162372141742235_);fill-opacity:0.7;}
	.st41{fill:url(#SVGID_00000164488742931846049900000016348633083467434685_);fill-opacity:0.7;}
	.st42{opacity:0.12;fill:#F7FFFF;}
	.st43{opacity:0.1;fill:#F7FFFF;}
	.st44{fill:url(#SVGID_00000135688737119703563340000012423413413269119398_);fill-opacity:0.49;}
	.st45{fill:url(#SVGID_00000063611744630011577600000011174718384989895317_);}
	.st46{opacity:0.5;fill:url(#SVGID_00000112600491353037592020000005077392749224796848_);}
	.st47{fill:url(#SVGID_00000178168867432968660310000016634252944491758006_);fill-opacity:0.49;}
	.st48{fill:url(#SVGID_00000094579143895419843570000003420912686104735161_);fill-opacity:0.49;}
	.st49{opacity:0.5;fill:url(#SVGID_00000011742337313896564130000015820091788382506144_);}
	.st50{opacity:0.73;fill:url(#SVGID_00000170981701091376514300000013464988164435584645_);}
	.st51{opacity:0.78;fill:url(#SVGID_00000047765080095307673510000017341170526593686416_);}
	.st52{opacity:0.35;fill:url(#SVGID_00000007425962611977157180000016628967226628274330_);}
	.st53{opacity:0.5;fill:url(#SVGID_00000070112511615997885170000012123482153494185866_);}
	.st54{opacity:0.5;fill:url(#SVGID_00000105404431161965872520000017658621085774040487_);}
	.st55{fill:url(#SVGID_00000084531603578144544860000016757375459081531280_);fill-opacity:0.7;}
	.st56{fill:url(#SVGID_00000044145775600812905940000005036355406656125061_);fill-opacity:0.7;}
	.st57{fill:url(#SVGID_00000028308642101483073580000003676822373542700929_);fill-opacity:0.7;}
</style>
<g>
	<g>
		<g>
			
				<linearGradient id="SVGID_1_" gradientUnits="userSpaceOnUse" x1="102.33" y1="30.0194" x2="102.33" y2="148.3591" gradientTransform="matrix(1 0 0 -1 0 194.8823)">
				<stop  offset="0" style="stop-color:#72466E"/>
				<stop  offset="0.4544" style="stop-color:#27283A"/>
				<stop  offset="0.8056" style="stop-color:#3E4253"/>
				<stop  offset="0.8403" style="stop-color:#424759"/>
				<stop  offset="0.8872" style="stop-color:#4F576A"/>
				<stop  offset="0.941" style="stop-color:#637187"/>
				<stop  offset="0.9997" style="stop-color:#7F94AE"/>
				<stop  offset="1" style="stop-color:#7F94AE"/>
			</linearGradient>
			<polygon class="st0" points="102.3,24.5 47.8,56 47.8,131 102.3,162.5 156.8,131 156.8,56 			"/>
			
				<linearGradient id="SVGID_00000035496690738263063480000016596439299148891017_" gradientUnits="userSpaceOnUse" x1="102.33" y1="151.8868" x2="102.33" y2="44.0777" gradientTransform="matrix(1 0 0 -1 0 194.8823)">
				<stop  offset="0" style="stop-color:#292D39"/>
				<stop  offset="0.1944" style="stop-color:#242734"/>
				<stop  offset="0.5456" style="stop-color:#2E2F42"/>
				<stop  offset="1" style="stop-color:#262738"/>
			</linearGradient>
			<polygon style="fill:url(#SVGID_00000035496690738263063480000016596439299148891017_);" points="57.7,125.3 57.7,61.6 
				102.3,35.9 147,61.6 147,125.3 102.3,151.1 			"/>
			
				<linearGradient id="SVGID_00000165219438058406367960000006845518886971861164_" gradientUnits="userSpaceOnUse" x1="102.33" y1="47.5673" x2="102.33" y2="155.2173" gradientTransform="matrix(1 0 0 -1 0 194.8823)">
				<stop  offset="0" style="stop-color:#3F3C51"/>
				<stop  offset="0.353" style="stop-color:#29293B"/>
				<stop  offset="0.5853" style="stop-color:#202132"/>
				<stop  offset="0.6419" style="stop-color:#2B2E3F"/>
				<stop  offset="0.7791" style="stop-color:#424759"/>
				<stop  offset="0.9027" style="stop-color:#4F5768"/>
				<stop  offset="1" style="stop-color:#545C6E"/>
			</linearGradient>
			<polygon style="fill:url(#SVGID_00000165219438058406367960000006845518886971861164_);" points="61,123.4 61,63.5 102.3,39.7 
				143.7,63.5 143.7,123.4 102.3,147.3 			"/>
			<path class="st3" d="M49.2,56.2c-0.7,2,5.1,4.5,9.2,3.6c4.1-0.9,42.4-23.4,43.4-25.4c0.3-0.6,0.3-8.4,0-8.4
				C100.4,25.9,49.5,55.2,49.2,56.2z"/>
			<path class="st3" d="M155.2,56.2c0.7,2-5.1,4.5-9.2,3.6s-42.1-23.6-43.4-25.4c-0.7-0.9-0.9-8.4,0-8.4
				C104,25.9,154.9,55.2,155.2,56.2z"/>
			
				<linearGradient id="SVGID_00000066505648999323173240000005787811766195735211_" gradientUnits="userSpaceOnUse" x1="52.7093" y1="51.0251" x2="52.7093" y2="116.2682" gradientTransform="matrix(1 0 0 -1 0 194.8823)">
				<stop  offset="0" style="stop-color:#705AB8"/>
				<stop  offset="1" style="stop-color:#FFFFFF"/>
			</linearGradient>
			<path style="opacity:0.1;fill:url(#SVGID_00000066505648999323173240000005787811766195735211_);enable-background:new    ;" d="
				M49.1,98.8c-0.4,2.2-1.3,30.7,0,30.9c1.3,0.2,7.2-3.8,7.5-5.7c0.3-1.9,0.4-21.3,0-23.2C56.2,98.9,49.8,95.1,49.1,98.8z"/>
			
				<linearGradient id="SVGID_00000010999455801385281680000001786872124849385643_" gradientUnits="userSpaceOnUse" x1="-4883.1592" y1="51.0251" x2="-4883.1592" y2="116.2682" gradientTransform="matrix(-1 0 0 -1 -4731.4185 194.8823)">
				<stop  offset="0" style="stop-color:#705AB8"/>
				<stop  offset="1" style="stop-color:#FFFFFF"/>
			</linearGradient>
			<path style="opacity:0.1;fill:url(#SVGID_00000010999455801385281680000001786872124849385643_);enable-background:new    ;" d="
				M155.3,98.8c0.4,2.2,1.3,30.7,0,30.9c-1.3,0.2-7.2-3.8-7.5-5.7s-0.4-21.3,0-23.2C148.3,99,154.7,95.1,155.3,98.8z"/>
			
				<linearGradient id="SVGID_00000101101607286702061560000007613011655467962788_" gradientUnits="userSpaceOnUse" x1="62.6515" y1="75.3728" x2="89.0253" y2="32.5965" gradientTransform="matrix(1 0 0 -1 0 194.8823)">
				<stop  offset="0" style="stop-color:#705AB8"/>
				<stop  offset="1" style="stop-color:#FFFFFF"/>
			</linearGradient>
			<path style="opacity:0.1;fill:url(#SVGID_00000101101607286702061560000007613011655467962788_);enable-background:new    ;" d="
				M50.5,130.5c0.7,1,49.7,30,50.5,30c0.4,0,0.9-7.2,0.9-8c0-2.2-43.4-25.3-44.2-25.5C56.6,126.7,49.8,129.5,50.5,130.5z"/>
			
				<linearGradient id="SVGID_00000044162645313447122690000006102575464173042071_" gradientUnits="userSpaceOnUse" x1="121.4079" y1="69.9782" x2="140.2984" y2="13.9635" gradientTransform="matrix(1 0 0 -1 0 194.8823)">
				<stop  offset="0" style="stop-color:#705AB8"/>
				<stop  offset="1" style="stop-color:#FFFFFF"/>
			</linearGradient>
			<path style="opacity:0.1;fill:url(#SVGID_00000044162645313447122690000006102575464173042071_);enable-background:new    ;" d="
				M154.2,131.3c-0.7,1-50.7,29.9-51.4,29.9c-0.2,0-0.2-9,0.2-9.3c1.6-1.6,43-24.7,43.7-24.9C147.9,126.7,154.9,130.3,154.2,131.3z"
				/>
			
				<linearGradient id="SVGID_00000047759092134444016380000002875016985779355282_" gradientUnits="userSpaceOnUse" x1="102.2206" y1="40.1462" x2="102.2206" y2="130.3445" gradientTransform="matrix(1 0 0 -1 0 194.8823)">
				<stop  offset="0" style="stop-color:#121117"/>
				<stop  offset="0.1464" style="stop-color:#14131B"/>
				<stop  offset="0.5853" style="stop-color:#171824"/>
				<stop  offset="1" style="stop-color:#171924"/>
			</linearGradient>
			<path style="fill:url(#SVGID_00000047759092134444016380000002875016985779355282_);" d="M62.9,121.8
				c-2.9-16.6-1.3-17.6,19.3-24.7c20.6-7,55.4-25.1,58.5-17.2s2,41.2,1.3,43.1c-0.7,1.8-36.7,22.5-39.6,22.5
				C99.4,145.6,63.2,123.7,62.9,121.8z"/>
			<path class="st3" d="M142.8,64c-0.7-0.2-38.1-21.8-40.2-21.6c-2,0.2-28,12.3-38.7,21.5c-2.8,2.4-1.8,39.1,0.8,38.4
				c2.6-0.7,4.6-15.5,33.5-23.8c28.5-8.2,40.9-1.1,44,0.2C143,79,144.5,64.4,142.8,64z"/>
			
				<linearGradient id="SVGID_00000045595897416443965970000008508779599617551522_" gradientUnits="userSpaceOnUse" x1="102.33" y1="69.5473" x2="102.33" y2="159.0173" gradientTransform="matrix(1 0 0 -1 0 194.8823)">
				<stop  offset="0" style="stop-color:#FFFFFF"/>
				<stop  offset="0.4444" style="stop-color:#361D4D"/>
				<stop  offset="1" style="stop-color:#000000"/>
			</linearGradient>
			<path style="opacity:0.5;fill:url(#SVGID_00000045595897416443965970000008508779599617551522_);enable-background:new    ;" d="
				M57.7,125.3V61.6l44.6-25.8L147,61.6v63.7l-3.3-1.9c0,0,0.2-55.4-1-57.1c-4.2-6.2-37.3-21.3-42.7-19.6
				C94.5,48.5,65.1,61,61.8,66.2C60.7,68,61,123.4,61,123.4L57.7,125.3z"/>
			<path class="st3" d="M110.7,70.3c11.1,5.1,27.9,5.2,29.4,4.2c1.5-1,2.6-8.1,0.1-9.3c-2.4-1.2-21.5-11.4-26.5-10.3
				C108.7,56,108.7,69.4,110.7,70.3z"/>
			<path class="st10" d="M121.8,47.1c0,0,23.9,13.6,24.3,15.2S147,105,147,105s0.2-41.6,0-43.3C146.8,59.9,121.8,47.1,121.8,47.1z"
				/>
			<path class="st10" d="M57.7,96.5c0,0-0.8-34.4-0.4-35.5c0.4-1.1,45-25.1,45-25.1s-43.1,24.6-44,26.2
				C57.5,63.6,57.7,96.5,57.7,96.5z"/>
			<path class="st10" d="M57.7,109c0,0-0.2,14.7,0.7,15.9c0.8,1.2,22,13.5,22,13.5s-22.9-11.9-23.2-12.6C57,125,57.7,109,57.7,109z"
				/>
			<path class="st3" d="M76.1,138.7c-1.6,0-6.1,1.8-5.1,2.9c0.8,0.9,27.8,17.2,30.9,18.4c1,0.4,0.9-6-0.4-8.1
				C100.8,151,81.1,138.7,76.1,138.7z"/>
			
				<linearGradient id="SVGID_00000154404193264137228660000013874955028622036655_" gradientUnits="userSpaceOnUse" x1="139.4708" y1="47.8473" x2="139.4708" y2="67.2709" gradientTransform="matrix(1 0 0 -1 0 194.8823)">
				<stop  offset="0" style="stop-color:#FFFFFF"/>
				<stop  offset="0.4444" style="stop-color:#881DED"/>
				<stop  offset="1" style="stop-color:#262262"/>
			</linearGradient>
			<path style="opacity:0.1;fill:url(#SVGID_00000154404193264137228660000013874955028622036655_);enable-background:new    ;" d="
				M127.5,138.9c-1.2,5.1-1,8.2-0.3,8.2c0.7,0,24.5-14.3,25.1-14.9c0.7-0.6-3.8-4.8-5.7-4.5C144.8,127.9,127.9,136.9,127.5,138.9z"
				/>
		</g>
		<g class="st12">
			
				<linearGradient id="SVGID_00000054234439110285804860000004361655911122862522_" gradientUnits="userSpaceOnUse" x1="102.115" y1="109.2473" x2="102.115" y2="67.5473" gradientTransform="matrix(1 0 0 -1 0 194.8823)">
				<stop  offset="0" style="stop-color:#4D3463"/>
				<stop  offset="0.4444" style="stop-color:#170529"/>
				<stop  offset="1" style="stop-color:#12121A"/>
			</linearGradient>
			
				<path style="display:inline;opacity:0.5;fill:url(#SVGID_00000054234439110285804860000004361655911122862522_);enable-background:new    ;" d="
				M43.3,85.6l3.7,6.2l0.8,0.5l0,1.8c0,0,3.1,1.6,9.3,5c0.2,0.1,3.9,4,3.9,4s39.8,24.1,41.3,24.1c1.9,0,41.4-24.6,41.4-24.6
				s3.1-2.6,3.4-2.8l9.8-5.1v-2.6l0.7-0.4l3.3-6.2l-58.6,34.5L43.3,85.6z"/>
			
				<linearGradient id="SVGID_00000025419929288226994130000010259699878134595745_" gradientUnits="userSpaceOnUse" x1="102.12" y1="157.8037" x2="102.12" y2="72.0356" gradientTransform="matrix(1 0 0 -1 0 194.8823)">
				<stop  offset="0" style="stop-color:#B16376"/>
				<stop  offset="0.4544" style="stop-color:#574E66"/>
				<stop  offset="0.8056" style="stop-color:#5B469C"/>
				<stop  offset="0.8623" style="stop-color:#614996"/>
				<stop  offset="0.9389" style="stop-color:#725186"/>
				<stop  offset="1" style="stop-color:#855A75"/>
			</linearGradient>
			<path style="display:inline;fill:url(#SVGID_00000025419929288226994130000010259699878134595745_);" d="M102.3,108.8L46,76
				c-2.2,5-2.7,9.6-2.7,9.6l3.7,6.2l55.3,32.1l0,0l55.3-32.1l3.3-6.2c0,0,0-4.7-2-9.6L102.3,108.8z"/>
			
				<linearGradient id="SVGID_00000036245803823769539660000010514358287815167636_" gradientUnits="userSpaceOnUse" x1="43.34" y1="90.0923" x2="160.89" y2="90.0923" gradientTransform="matrix(1 0 0 -1 0 194.8823)">
				<stop  offset="0" style="stop-color:#000000"/>
				<stop  offset="0.4544" style="stop-color:#655482"/>
				<stop  offset="0.8056" style="stop-color:#594573"/>
				<stop  offset="0.8355" style="stop-color:#54416D"/>
				<stop  offset="0.8759" style="stop-color:#47375C"/>
				<stop  offset="0.9223" style="stop-color:#31263F"/>
				<stop  offset="0.9728" style="stop-color:#130F18"/>
				<stop  offset="1" style="stop-color:#000000"/>
			</linearGradient>
			
				<polygon style="display:inline;opacity:0.4;fill:url(#SVGID_00000036245803823769539660000010514358287815167636_);enable-background:new    ;" points="
				47,91.8 43.3,85.6 102.3,120.2 160.9,85.6 157.6,91.8 102.3,123.9 			"/>
			
				<linearGradient id="SVGID_00000029017036875377572910000006042720769266043811_" gradientUnits="userSpaceOnUse" x1="-4576.4419" y1="73.6651" x2="-4572.6782" y2="118.1218" gradientTransform="matrix(-0.9942 0 0 -1 -4416.7588 194.8823)">
				<stop  offset="0" style="stop-color:#705AB8"/>
				<stop  offset="1" style="stop-color:#FFFFFF"/>
			</linearGradient>
			
				<path style="display:inline;opacity:0.5;fill:url(#SVGID_00000029017036875377572910000006042720769266043811_);enable-background:new    ;" d="
				M102.3,108.8v11.3l58.6-34.5c0,0-0.2-5.7-2-9.6L102.3,108.8z"/>
			<path class="st17" d="M48.9,78.5c-1.1,0-0.2,9.5,3.1,11.7c5.2,3.5,36.5,21.9,38.6,22c1.4,0,1.3-8.1,0.9-8.7
				C90.7,102.3,50.5,78.5,48.9,78.5z"/>
			<path class="st17" d="M119.7,99.1c-0.7,0.7-0.6,9.6,0.6,9.3c1.2-0.3,18.9-9.7,27.2-15.8c8.3-6.1,9.5-14.2,7.6-14
				C155.1,78.5,121.1,97.6,119.7,99.1z"/>
			<path class="st18" d="M73.6,103.4c0,0,26.9,16.2,28.7,16.2c1.7,0,23.2-13.1,23.2-13.1s-22.6,14.3-23.2,14.3
				C101.9,120.8,73.6,103.4,73.6,103.4z"/>
		</g>
		<g class="st12">
			
				<linearGradient id="SVGID_00000020367891644278432630000013738156750270939318_" gradientUnits="userSpaceOnUse" x1="102.115" y1="129.2473" x2="102.115" y2="87.5473" gradientTransform="matrix(1 0 0 -1 0 194.8823)">
				<stop  offset="0" style="stop-color:#4D3463"/>
				<stop  offset="0.4444" style="stop-color:#170529"/>
				<stop  offset="1" style="stop-color:#12121A"/>
			</linearGradient>
			
				<path style="display:inline;opacity:0.5;fill:url(#SVGID_00000020367891644278432630000013738156750270939318_);enable-background:new    ;" d="
				M43.3,65.6l3.7,6.2l0.8,0.5l0,1.8c0,0,3.1,1.6,9.3,5c0.2,0.1,3.9,4,3.9,4s39.8,24.1,41.3,24.1c1.9,0,41.4-24.6,41.4-24.6
				s3.1-2.6,3.4-2.8l9.8-5.1v-2.6l0.7-0.4l3.3-6.2l-58.6,34.5L43.3,65.6z"/>
			
				<linearGradient id="SVGID_00000064343228142807610410000000304940884632490115_" gradientUnits="userSpaceOnUse" x1="102.12" y1="177.8037" x2="102.12" y2="92.0356" gradientTransform="matrix(1 0 0 -1 0 194.8823)">
				<stop  offset="0" style="stop-color:#B16376"/>
				<stop  offset="0.4544" style="stop-color:#574E66"/>
				<stop  offset="0.8056" style="stop-color:#5B469C"/>
				<stop  offset="0.8623" style="stop-color:#614996"/>
				<stop  offset="0.9389" style="stop-color:#725186"/>
				<stop  offset="1" style="stop-color:#855A75"/>
			</linearGradient>
			<path style="display:inline;fill:url(#SVGID_00000064343228142807610410000000304940884632490115_);" d="M102.3,88.8L46,56
				c-2.2,5-2.7,9.6-2.7,9.6l3.7,6.2l55.3,32.1l0,0l55.3-32.1l3.3-6.2c0,0,0-4.7-2-9.6L102.3,88.8z"/>
			
				<linearGradient id="SVGID_00000177472373149759814640000007706087600776249520_" gradientUnits="userSpaceOnUse" x1="43.34" y1="110.0923" x2="160.89" y2="110.0923" gradientTransform="matrix(1 0 0 -1 0 194.8823)">
				<stop  offset="0" style="stop-color:#000000"/>
				<stop  offset="0.4544" style="stop-color:#655482"/>
				<stop  offset="0.8056" style="stop-color:#594573"/>
				<stop  offset="0.8355" style="stop-color:#54416D"/>
				<stop  offset="0.8759" style="stop-color:#47375C"/>
				<stop  offset="0.9223" style="stop-color:#31263F"/>
				<stop  offset="0.9728" style="stop-color:#130F18"/>
				<stop  offset="1" style="stop-color:#000000"/>
			</linearGradient>
			
				<polygon style="display:inline;opacity:0.4;fill:url(#SVGID_00000177472373149759814640000007706087600776249520_);enable-background:new    ;" points="
				47,71.8 43.3,65.6 102.3,100.2 160.9,65.6 157.6,71.8 102.3,103.9 			"/>
			
				<linearGradient id="SVGID_00000063611393286238759420000006222031274029776521_" gradientUnits="userSpaceOnUse" x1="-4576.4419" y1="93.6651" x2="-4572.6782" y2="138.1218" gradientTransform="matrix(-0.9942 0 0 -1 -4416.7588 194.8823)">
				<stop  offset="0" style="stop-color:#705AB8"/>
				<stop  offset="1" style="stop-color:#FFFFFF"/>
			</linearGradient>
			
				<path style="display:inline;opacity:0.5;fill:url(#SVGID_00000063611393286238759420000006222031274029776521_);enable-background:new    ;" d="
				M102.3,88.8v11.3l58.6-34.5c0,0-0.2-5.7-2-9.6L102.3,88.8z"/>
			<path class="st17" d="M48.9,58.5c-1.1,0-0.2,9.5,3.1,11.7c5.2,3.5,36.5,21.9,38.6,22c1.4,0,1.3-8.1,0.9-8.7
				C90.7,82.3,50.5,58.5,48.9,58.5z"/>
			<path class="st17" d="M119.7,79.1c-0.7,0.7-0.6,9.6,0.6,9.3c1.2-0.3,18.9-9.7,27.2-15.8c8.3-6.1,9.5-14.2,7.6-14
				C155.1,58.5,121.1,77.6,119.7,79.1z"/>
			<path class="st18" d="M73.6,83.4c0,0,26.9,16.2,28.7,16.2c1.7,0,23.2-13.1,23.2-13.1s-22.6,14.3-23.2,14.3
				C101.9,100.8,73.6,83.4,73.6,83.4z"/>
		</g>
		<g>
			
				<linearGradient id="SVGID_00000121978706246333235870000003151302469417597058_" gradientUnits="userSpaceOnUse" x1="102.115" y1="89.2473" x2="102.115" y2="47.5473" gradientTransform="matrix(1 0 0 -1 0 194.8823)">
				<stop  offset="0" style="stop-color:#4D3463"/>
				<stop  offset="0.4444" style="stop-color:#170529"/>
				<stop  offset="1" style="stop-color:#12121A"/>
			</linearGradient>
			<path style="opacity:0.5;fill:url(#SVGID_00000121978706246333235870000003151302469417597058_);enable-background:new    ;" d="
				M43.3,105.6l3.7,6.2l0.8,0.5l0,1.8c0,0,3.1,1.6,9.3,5c0.2,0.1,3.9,4,3.9,4s39.8,24.1,41.3,24.1c1.9,0,41.4-24.6,41.4-24.6
				s3.1-2.6,3.4-2.8l9.8-5.1v-2.6l0.7-0.4l3.3-6.2l-58.6,34.5L43.3,105.6z"/>
			
				<linearGradient id="SVGID_00000043432100858938410310000009578948918328005818_" gradientUnits="userSpaceOnUse" x1="102.12" y1="137.8037" x2="102.12" y2="52.0356" gradientTransform="matrix(1 0 0 -1 0 194.8823)">
				<stop  offset="0" style="stop-color:#B16376"/>
				<stop  offset="0.4544" style="stop-color:#574E66"/>
				<stop  offset="0.8056" style="stop-color:#5B469C"/>
				<stop  offset="0.8623" style="stop-color:#614996"/>
				<stop  offset="0.9389" style="stop-color:#725186"/>
				<stop  offset="1" style="stop-color:#855A75"/>
			</linearGradient>
			<path style="fill:url(#SVGID_00000043432100858938410310000009578948918328005818_);" d="M102.3,128.8L46,96
				c-2.2,5-2.7,9.6-2.7,9.6l3.7,6.2l55.3,32.1l0,0l55.3-32.1l3.3-6.2c0,0,0-4.7-2-9.6L102.3,128.8z"/>
			
				<linearGradient id="SVGID_00000150072132621408984750000015386197937291905449_" gradientUnits="userSpaceOnUse" x1="43.34" y1="70.0923" x2="160.89" y2="70.0923" gradientTransform="matrix(1 0 0 -1 0 194.8823)">
				<stop  offset="0" style="stop-color:#000000"/>
				<stop  offset="0.4544" style="stop-color:#655482"/>
				<stop  offset="0.8056" style="stop-color:#594573"/>
				<stop  offset="0.8355" style="stop-color:#54416D"/>
				<stop  offset="0.8759" style="stop-color:#47375C"/>
				<stop  offset="0.9223" style="stop-color:#31263F"/>
				<stop  offset="0.9728" style="stop-color:#130F18"/>
				<stop  offset="1" style="stop-color:#000000"/>
			</linearGradient>
			
				<polygon style="opacity:0.4;fill:url(#SVGID_00000150072132621408984750000015386197937291905449_);enable-background:new    ;" points="
				47,111.8 43.3,105.6 102.3,140.2 160.9,105.6 157.6,111.8 102.3,143.9 			"/>
			
				<linearGradient id="SVGID_00000054234630972057503020000011927301849352235908_" gradientUnits="userSpaceOnUse" x1="-4576.4419" y1="53.6651" x2="-4572.6782" y2="98.1218" gradientTransform="matrix(-0.9942 0 0 -1 -4416.7588 194.8823)">
				<stop  offset="0" style="stop-color:#705AB8"/>
				<stop  offset="1" style="stop-color:#FFFFFF"/>
			</linearGradient>
			<path style="opacity:0.5;fill:url(#SVGID_00000054234630972057503020000011927301849352235908_);enable-background:new    ;" d="
				M102.3,128.8v11.3l58.6-34.5c0,0-0.2-5.7-2-9.6L102.3,128.8z"/>
			<path class="st3" d="M48.9,98.5c-1.1,0-0.2,9.5,3.1,11.7c5.2,3.5,36.5,21.9,38.6,22c1.4,0,1.3-8.1,0.9-8.7
				C90.7,122.3,50.5,98.5,48.9,98.5z"/>
			<path class="st3" d="M119.7,119.1c-0.7,0.7-0.6,9.6,0.6,9.3c1.2-0.3,18.9-9.7,27.2-15.8c8.3-6.1,9.5-14.2,7.6-14
				C155.1,98.5,121.1,117.6,119.7,119.1z"/>
			<path class="st10" d="M73.6,123.4c0,0,26.9,16.2,28.7,16.2c1.7,0,23.2-13.1,23.2-13.1s-22.6,14.3-23.2,14.3
				C101.9,140.8,73.6,123.4,73.6,123.4z"/>
		</g>
	</g>
</g>
<g>
	
		<linearGradient id="SVGID_00000111175248971551910270000016826870024145012112_" gradientUnits="userSpaceOnUse" x1="102.12" y1="83.0874" x2="102.12" y2="45.8966">
		<stop  offset="0" style="stop-color:#000000"/>
		<stop  offset="0.4444" style="stop-color:#000000"/>
		<stop  offset="1" style="stop-color:#000000"/>
	</linearGradient>
	<polygon style="fill:url(#SVGID_00000111175248971551910270000016826870024145012112_);fill-opacity:0.49;" points="102.1,76.7 
		90,83.1 92.3,69.6 82.6,60.1 96.1,58.1 102.1,45.9 108.2,58.1 121.7,60.1 111.9,69.6 114.2,83.1 	"/>
	
		<linearGradient id="SVGID_00000002361354175721931060000017613169164939545020_" gradientUnits="userSpaceOnUse" x1="102.12" y1="82.5352" x2="102.12" y2="41.5288">
		<stop  offset="0" style="stop-color:#D484FF"/>
		<stop  offset="0.4486" style="stop-color:#906CC4"/>
		<stop  offset="0.8056" style="stop-color:#5C50C7"/>
		<stop  offset="0.8889" style="stop-color:#624BC6"/>
		<stop  offset="1" style="stop-color:#733DC4"/>
	</linearGradient>
	<polygon style="fill:url(#SVGID_00000002361354175721931060000017613169164939545020_);" points="120.3,60.6 113.7,59.6 112,59.4 
		107.7,58.7 102.1,47.4 96.5,58.7 84,60.6 93,69.4 90.9,81.9 102.1,76 113.3,81.9 111.2,69.4 	"/>
	<g>
		
			<linearGradient id="SVGID_00000040540719894296695790000010481690147244967059_" gradientUnits="userSpaceOnUse" x1="83.9155" y1="64.9816" x2="102.3804" y2="64.9816">
			<stop  offset="0" style="stop-color:#000000"/>
			<stop  offset="1" style="stop-color:#2B2B2B"/>
		</linearGradient>
		<polygon style="opacity:0.5;fill:url(#SVGID_00000040540719894296695790000010481690147244967059_);" points="83.9,60.6 
			102.4,65.4 93,69.4 		"/>
		
			<linearGradient id="SVGID_00000088823821085429300370000016849046887634892701_" gradientUnits="userSpaceOnUse" x1="102.3804" y1="64.9816" x2="120.1962" y2="64.9816">
			<stop  offset="0" style="stop-color:#000000"/>
			<stop  offset="0.4444" style="stop-color:#000000"/>
			<stop  offset="1" style="stop-color:#000000"/>
		</linearGradient>
		<polygon style="fill:url(#SVGID_00000088823821085429300370000016849046887634892701_);fill-opacity:0.49;" points="120.2,60.6 
			102.4,65.4 111.1,69.4 		"/>
		
			<linearGradient id="SVGID_00000115500343897340439810000004025508953388061070_" gradientUnits="userSpaceOnUse" x1="90.8445" y1="73.6373" x2="102.3804" y2="73.6373">
			<stop  offset="0" style="stop-color:#000000"/>
			<stop  offset="0.4444" style="stop-color:#000000"/>
			<stop  offset="1" style="stop-color:#000000"/>
		</linearGradient>
		<polygon style="fill:url(#SVGID_00000115500343897340439810000004025508953388061070_);fill-opacity:0.49;" points="102.1,76 
			102.4,65.4 90.8,81.9 		"/>
		
			<linearGradient id="SVGID_00000051373100992652483240000007480121960990414251_" gradientUnits="userSpaceOnUse" x1="102.0558" y1="73.6373" x2="113.2672" y2="73.6373">
			<stop  offset="0" style="stop-color:#705AB8"/>
			<stop  offset="1" style="stop-color:#FFFFFF"/>
		</linearGradient>
		<polygon style="opacity:0.5;fill:url(#SVGID_00000051373100992652483240000007480121960990414251_);" points="113.3,81.9 
			102.4,65.4 102.1,76 		"/>
		
			<linearGradient id="SVGID_00000092441204776314682520000015316172717679951016_" gradientUnits="userSpaceOnUse" x1="103.7145" y1="50.0888" x2="106.2247" y2="73.0989">
			<stop  offset="0" style="stop-color:#F0F5FF"/>
			<stop  offset="1" style="stop-color:#260073"/>
		</linearGradient>
		<polygon style="opacity:0.73;fill:url(#SVGID_00000092441204776314682520000015316172717679951016_);" points="102.1,47.4 
			102.4,65.4 107.7,58.7 		"/>
		
			<linearGradient id="SVGID_00000021107236751601781600000003447962493359408512_" gradientUnits="userSpaceOnUse" x1="102.3804" y1="62.064" x2="120.1962" y2="62.064">
			<stop  offset="0" style="stop-color:#AF96FF"/>
			<stop  offset="1" style="stop-color:#4D3396"/>
		</linearGradient>
		<polygon style="opacity:0.78;fill:url(#SVGID_00000021107236751601781600000003447962493359408512_);" points="120.2,60.6 
			102.4,65.4 107.7,58.7 		"/>
		
			<linearGradient id="SVGID_00000016062694273394001720000002620868775919324808_" gradientUnits="userSpaceOnUse" x1="109.81" y1="49.4238" x2="112.3202" y2="72.4339">
			<stop  offset="0" style="stop-color:#FFFFFF"/>
			<stop  offset="1" style="stop-color:#000000"/>
		</linearGradient>
		<polygon style="opacity:0.35;fill:url(#SVGID_00000016062694273394001720000002620868775919324808_);" points="120.2,60.6 
			102.4,65.4 107.7,58.7 		"/>
		
			<linearGradient id="SVGID_00000166639785334025594030000002801168254488353447_" gradientUnits="userSpaceOnUse" x1="91.883" y1="51.3795" x2="94.3932" y2="74.3896">
			<stop  offset="0" style="stop-color:#603CC2"/>
			<stop  offset="1" style="stop-color:#3A2D4F"/>
		</linearGradient>
		<polygon style="opacity:0.5;fill:url(#SVGID_00000166639785334025594030000002801168254488353447_);" points="96.5,58.7 
			102.4,65.4 83.9,60.6 		"/>
		<path class="st37" d="M107.7,62.7c-0.9,0.8-0.1,1.3-0.1,1.3l4.8-1.3C112.3,62.7,109.8,60.9,107.7,62.7z"/>
	</g>
	
		<linearGradient id="SVGID_00000178889812571200634260000003090480147373143212_" gradientUnits="userSpaceOnUse" x1="102.12" y1="81.8862" x2="102.12" y2="75.9921">
		<stop  offset="0" style="stop-color:#FFFFFF"/>
		<stop  offset="0.4444" style="stop-color:#881DED"/>
		<stop  offset="1" style="stop-color:#262262"/>
	</linearGradient>
	<path style="opacity:0.5;fill:url(#SVGID_00000178889812571200634260000003090480147373143212_);" d="M90.9,81.9
		c0,0,8.5-4,11.2-5.1l11.2,5.1L102.1,76L90.9,81.9z"/>
	
		<linearGradient id="SVGID_00000166668142457816556550000017242739832672538251_" gradientUnits="userSpaceOnUse" x1="93.1479" y1="74.1112" x2="93.1479" y2="60.5609">
		<stop  offset="0" style="stop-color:#000000;stop-opacity:0"/>
		<stop  offset="0.4444" style="stop-color:#000000;stop-opacity:0.5"/>
		<stop  offset="1" style="stop-color:#000000"/>
	</linearGradient>
	<polygon style="fill:url(#SVGID_00000166668142457816556550000017242739832672538251_);fill-opacity:0.7;" points="83.9,60.6 
		102.4,65.4 92.2,74.1 	"/>
	
		<linearGradient id="SVGID_00000030450392067357272600000017625725419037302937_" gradientUnits="userSpaceOnUse" x1="111.2882" y1="75.2729" x2="111.2882" y2="60.5609">
		<stop  offset="0" style="stop-color:#000000;stop-opacity:0"/>
		<stop  offset="0.4444" style="stop-color:#000000;stop-opacity:0.5"/>
		<stop  offset="1" style="stop-color:#000000"/>
	</linearGradient>
	<polygon style="fill:url(#SVGID_00000030450392067357272600000017625725419037302937_);fill-opacity:0.7;" points="120.2,60.6 
		102.4,65.4 112.2,75.3 	"/>
	
		<linearGradient id="SVGID_00000041295907593004081500000012561587531016996513_" gradientUnits="userSpaceOnUse" x1="102.12" y1="81.8862" x2="102.12" y2="65.3884">
		<stop  offset="0" style="stop-color:#000000;stop-opacity:0"/>
		<stop  offset="0.4444" style="stop-color:#000000;stop-opacity:0.5"/>
		<stop  offset="1" style="stop-color:#000000"/>
	</linearGradient>
	<polygon style="fill:url(#SVGID_00000041295907593004081500000012561587531016996513_);fill-opacity:0.7;" points="90.9,81.9 
		102.4,65.4 113.3,81.9 102.1,80.1 	"/>
	<path class="st42" d="M97.9,56.8c-1.2,3.3,3.4,5.6,4,4.6c0.6-1,0.2-6.7-0.5-7.5C100.6,53.1,98.4,55.4,97.9,56.8z"/>
	<path class="st43" d="M94.2,73.7c2.4,0.3,3.8-2.4,4.3-4.3C99.3,66.4,89.8,73.1,94.2,73.7z"/>
</g>
<g>
	
		<linearGradient id="SVGID_00000049939453522648885750000018317028350495726230_" gradientUnits="userSpaceOnUse" x1="102.12" y1="118.3867" x2="102.12" y2="81.1959">
		<stop  offset="0" style="stop-color:#000000"/>
		<stop  offset="0.4444" style="stop-color:#000000"/>
		<stop  offset="1" style="stop-color:#000000"/>
	</linearGradient>
	<polygon style="fill:url(#SVGID_00000049939453522648885750000018317028350495726230_);fill-opacity:0.49;" points="102.1,112 
		90,118.4 92.3,104.9 82.6,95.4 96.1,93.4 102.1,81.2 108.2,93.4 121.7,95.4 111.9,104.9 114.2,118.4 	"/>
	
		<linearGradient id="SVGID_00000048500813383600309280000010112128907542047378_" gradientUnits="userSpaceOnUse" x1="102.12" y1="117.8344" x2="102.12" y2="76.828">
		<stop  offset="0" style="stop-color:#D484FF"/>
		<stop  offset="0.4486" style="stop-color:#906CC4"/>
		<stop  offset="0.8056" style="stop-color:#5C50C7"/>
		<stop  offset="0.8889" style="stop-color:#624BC6"/>
		<stop  offset="1" style="stop-color:#733DC4"/>
	</linearGradient>
	<polygon style="fill:url(#SVGID_00000048500813383600309280000010112128907542047378_);" points="120.3,95.9 113.7,94.9 112,94.7 
		107.7,94 102.1,82.7 96.5,94 84,95.9 93,104.7 90.9,117.2 102.1,111.3 113.3,117.2 111.2,104.7 	"/>
	<g>
		
			<linearGradient id="SVGID_00000022553738563787906960000017866479820192510105_" gradientUnits="userSpaceOnUse" x1="83.9155" y1="100.2808" x2="102.3804" y2="100.2808">
			<stop  offset="0" style="stop-color:#000000"/>
			<stop  offset="1" style="stop-color:#2B2B2B"/>
		</linearGradient>
		<polygon style="opacity:0.5;fill:url(#SVGID_00000022553738563787906960000017866479820192510105_);" points="83.9,95.9 
			102.4,100.7 93,104.7 		"/>
		
			<linearGradient id="SVGID_00000137107629056895544850000012353257742637858742_" gradientUnits="userSpaceOnUse" x1="102.3804" y1="100.2808" x2="120.1962" y2="100.2808">
			<stop  offset="0" style="stop-color:#000000"/>
			<stop  offset="0.4444" style="stop-color:#000000"/>
			<stop  offset="1" style="stop-color:#000000"/>
		</linearGradient>
		<polygon style="fill:url(#SVGID_00000137107629056895544850000012353257742637858742_);fill-opacity:0.49;" points="120.2,95.9 
			102.4,100.7 111.1,104.7 		"/>
		
			<linearGradient id="SVGID_00000116952077388588461840000013305862233324412835_" gradientUnits="userSpaceOnUse" x1="90.8445" y1="108.9366" x2="102.3804" y2="108.9366">
			<stop  offset="0" style="stop-color:#000000"/>
			<stop  offset="0.4444" style="stop-color:#000000"/>
			<stop  offset="1" style="stop-color:#000000"/>
		</linearGradient>
		<polygon style="fill:url(#SVGID_00000116952077388588461840000013305862233324412835_);fill-opacity:0.49;" points="102.1,111.3 
			102.4,100.7 90.8,117.2 		"/>
		
			<linearGradient id="SVGID_00000031893018824677568490000004771231949999432383_" gradientUnits="userSpaceOnUse" x1="102.0558" y1="108.9366" x2="113.2672" y2="108.9366">
			<stop  offset="0" style="stop-color:#705AB8"/>
			<stop  offset="1" style="stop-color:#FFFFFF"/>
		</linearGradient>
		<polygon style="opacity:0.5;fill:url(#SVGID_00000031893018824677568490000004771231949999432383_);" points="113.3,117.2 
			102.4,100.7 102.1,111.3 		"/>
		
			<linearGradient id="SVGID_00000167389678378071756230000004258869938871909302_" gradientUnits="userSpaceOnUse" x1="103.7145" y1="85.388" x2="106.2247" y2="108.3982">
			<stop  offset="0" style="stop-color:#F0F5FF"/>
			<stop  offset="1" style="stop-color:#260073"/>
		</linearGradient>
		<polygon style="opacity:0.73;fill:url(#SVGID_00000167389678378071756230000004258869938871909302_);" points="102.1,82.7 
			102.4,100.7 107.7,94 		"/>
		
			<linearGradient id="SVGID_00000182492204256394308720000008550851680805713075_" gradientUnits="userSpaceOnUse" x1="102.3804" y1="97.3633" x2="120.1962" y2="97.3633">
			<stop  offset="0" style="stop-color:#AF96FF"/>
			<stop  offset="1" style="stop-color:#4D3396"/>
		</linearGradient>
		<polygon style="opacity:0.78;fill:url(#SVGID_00000182492204256394308720000008550851680805713075_);" points="120.2,95.9 
			102.4,100.7 107.7,94 		"/>
		
			<linearGradient id="SVGID_00000108282107938269028010000014554162041588441012_" gradientUnits="userSpaceOnUse" x1="109.81" y1="84.7231" x2="112.3202" y2="107.7332">
			<stop  offset="0" style="stop-color:#FFFFFF"/>
			<stop  offset="1" style="stop-color:#000000"/>
		</linearGradient>
		<polygon style="opacity:0.35;fill:url(#SVGID_00000108282107938269028010000014554162041588441012_);" points="120.2,95.9 
			102.4,100.7 107.7,94 		"/>
		
			<linearGradient id="SVGID_00000174584614716814560970000017217919877360112002_" gradientUnits="userSpaceOnUse" x1="91.883" y1="86.6788" x2="94.3932" y2="109.6889">
			<stop  offset="0" style="stop-color:#603CC2"/>
			<stop  offset="1" style="stop-color:#3A2D4F"/>
		</linearGradient>
		<polygon style="opacity:0.5;fill:url(#SVGID_00000174584614716814560970000017217919877360112002_);" points="96.5,94 
			102.4,100.7 83.9,95.9 		"/>
		<path class="st37" d="M107.7,98c-0.9,0.8-0.1,1.3-0.1,1.3l4.8-1.3C112.3,98,109.8,96.2,107.7,98z"/>
	</g>
	
		<linearGradient id="SVGID_00000137106354114176982420000004324440801003607939_" gradientUnits="userSpaceOnUse" x1="102.12" y1="117.1855" x2="102.12" y2="111.2914">
		<stop  offset="0" style="stop-color:#FFFFFF"/>
		<stop  offset="0.4444" style="stop-color:#881DED"/>
		<stop  offset="1" style="stop-color:#262262"/>
	</linearGradient>
	<path style="opacity:0.5;fill:url(#SVGID_00000137106354114176982420000004324440801003607939_);" d="M90.9,117.2
		c0,0,8.5-4,11.2-5.1l11.2,5.1l-11.2-5.9L90.9,117.2z"/>
	
		<linearGradient id="SVGID_00000029764156629155595650000003050118937638645647_" gradientUnits="userSpaceOnUse" x1="93.1479" y1="109.4105" x2="93.1479" y2="95.8602">
		<stop  offset="0" style="stop-color:#000000;stop-opacity:0"/>
		<stop  offset="0.4444" style="stop-color:#000000;stop-opacity:0.5"/>
		<stop  offset="1" style="stop-color:#000000"/>
	</linearGradient>
	<polygon style="fill:url(#SVGID_00000029764156629155595650000003050118937638645647_);fill-opacity:0.7;" points="83.9,95.9 
		102.4,100.7 92.2,109.4 	"/>
	
		<linearGradient id="SVGID_00000058570057035126902440000017564053336699294645_" gradientUnits="userSpaceOnUse" x1="111.2882" y1="110.5722" x2="111.2882" y2="95.8602">
		<stop  offset="0" style="stop-color:#000000;stop-opacity:0"/>
		<stop  offset="0.4444" style="stop-color:#000000;stop-opacity:0.5"/>
		<stop  offset="1" style="stop-color:#000000"/>
	</linearGradient>
	<polygon style="fill:url(#SVGID_00000058570057035126902440000017564053336699294645_);fill-opacity:0.7;" points="120.2,95.9 
		102.4,100.7 112.2,110.6 	"/>
	
		<linearGradient id="SVGID_00000147912000649607791130000011764775213236690057_" gradientUnits="userSpaceOnUse" x1="102.12" y1="117.1855" x2="102.12" y2="100.6877">
		<stop  offset="0" style="stop-color:#000000;stop-opacity:0"/>
		<stop  offset="0.4444" style="stop-color:#000000;stop-opacity:0.5"/>
		<stop  offset="1" style="stop-color:#000000"/>
	</linearGradient>
	<polygon style="fill:url(#SVGID_00000147912000649607791130000011764775213236690057_);fill-opacity:0.7;" points="90.9,117.2 
		102.4,100.7 113.3,117.2 102.1,115.4 	"/>
	<path class="st42" d="M97.9,92.1c-1.2,3.3,3.4,5.6,4,4.6c0.6-1,0.2-6.7-0.5-7.5C100.6,88.4,98.4,90.7,97.9,92.1z"/>
	<path class="st43" d="M94.2,109c2.4,0.3,3.8-2.4,4.3-4.3C99.3,101.7,89.8,108.4,94.2,109z"/>
</g>
</svg>
