<?xml version="1.0" encoding="utf-8"?>
<!-- Generator: Adobe Illustrator 26.4.1, SVG Export Plug-In . SVG Version: 6.00 Build 0)  -->
<svg version="1.1" id="Слой_1" xmlns="http://www.w3.org/2000/svg" xmlns:xlink="http://www.w3.org/1999/xlink" x="0px" y="0px"
	 viewBox="0 0 204.2 194.9" style="enable-background:new 0 0 204.2 194.9;" xml:space="preserve">
<style type="text/css">
	.st0{fill:url(#SVGID_1_);}
	.st1{fill:url(#SVGID_00000048478257701339941630000010478042015027580855_);}
	.st2{fill:url(#SVGID_00000138565910861135631120000005165535326763293833_);}
	.st3{opacity:0.1;fill:#FFFFFF;enable-background:new    ;}
	.st4{opacity:0.1;fill:url(#SVGID_00000002377037550133001610000009079603766054859440_);enable-background:new    ;}
	.st5{opacity:0.1;fill:url(#SVGID_00000025430178879391735690000003430751740798189479_);enable-background:new    ;}
	.st6{opacity:0.1;fill:url(#SVGID_00000164497670939352565620000001462320500810044581_);enable-background:new    ;}
	.st7{opacity:0.1;fill:url(#SVGID_00000068649922306282324180000005047429483295069371_);enable-background:new    ;}
	.st8{fill:url(#SVGID_00000121988183810515117350000015953218868390235054_);}
	.st9{opacity:0.5;fill:url(#SVGID_00000044153428131279228480000012526915887730287294_);enable-background:new    ;}
	.st10{fill:#E6ADFF;}
	.st11{opacity:0.1;fill:url(#SVGID_00000117651489800497968790000008427985545240612753_);enable-background:new    ;}
	.st12{display:none;}
	
		.st13{display:inline;opacity:0.5;fill:url(#SVGID_00000088830814176704607340000002954740984517449406_);enable-background:new    ;}
	.st14{display:inline;fill:url(#SVGID_00000152229451608879170650000004940296691059984272_);}
	
		.st15{display:inline;opacity:0.4;fill:url(#SVGID_00000152960453143932296500000017025053744042569891_);enable-background:new    ;}
	
		.st16{display:inline;opacity:0.5;fill:url(#SVGID_00000103977956383234347660000012420149102442799019_);enable-background:new    ;}
	.st17{display:inline;opacity:0.1;fill:#FFFFFF;enable-background:new    ;}
	.st18{display:inline;fill:#E6ADFF;}
	
		.st19{display:inline;opacity:0.5;fill:url(#SVGID_00000022558490886443019810000015106303524348579236_);enable-background:new    ;}
	.st20{display:inline;fill:url(#SVGID_00000000205358440083106650000003446503038224021392_);}
	
		.st21{display:inline;opacity:0.4;fill:url(#SVGID_00000023243068617316894560000004089853564145949357_);enable-background:new    ;}
	
		.st22{display:inline;opacity:0.5;fill:url(#SVGID_00000078043228034699140450000009711365792997131958_);enable-background:new    ;}
	
		.st23{display:inline;opacity:0.5;fill:url(#SVGID_00000163043309408715473930000009252869407270599317_);enable-background:new    ;}
	.st24{display:inline;fill:url(#SVGID_00000172420098483858642010000014089244291324951719_);}
	
		.st25{display:inline;opacity:0.4;fill:url(#SVGID_00000127030110583361096390000002555363487292713919_);enable-background:new    ;}
	
		.st26{display:inline;opacity:0.5;fill:url(#SVGID_00000138565057832639389850000002467503821649600918_);enable-background:new    ;}
	.st27{fill:url(#SVGID_00000019643450761557922100000006861048523604534420_);fill-opacity:0.49;}
	.st28{fill:url(#SVGID_00000163763445673958933970000012453581725917759398_);}
	.st29{opacity:0.5;fill:url(#SVGID_00000104666820227385580420000016425337817018658192_);}
	.st30{fill:url(#SVGID_00000041999230026987309560000016102290772306966188_);fill-opacity:0.49;}
	.st31{fill:url(#SVGID_00000025430620646740471220000006377222225262343337_);fill-opacity:0.49;}
	.st32{opacity:0.5;fill:url(#SVGID_00000071552187823964453200000000545818889209248133_);}
	.st33{opacity:0.73;fill:url(#SVGID_00000152950804086161472410000013273078564891847615_);}
	.st34{opacity:0.78;fill:url(#SVGID_00000116237310896712965580000008704842868802360205_);}
	.st35{opacity:0.35;fill:url(#SVGID_00000040555015307938604390000015600413416642477958_);}
	.st36{opacity:0.5;fill:url(#SVGID_00000000191718749379600250000012268585888392532142_);}
	.st37{opacity:0.26;fill:#FFFFFF;}
	.st38{opacity:0.5;fill:url(#SVGID_00000133526282803494191730000004016326174506265785_);}
	.st39{fill:url(#SVGID_00000042014799936007473280000006847469939010944398_);fill-opacity:0.7;}
	.st40{fill:url(#SVGID_00000032637911503111875620000013027412320354313383_);fill-opacity:0.7;}
	.st41{fill:url(#SVGID_00000152977156275739251570000012111758130121230210_);fill-opacity:0.7;}
	.st42{opacity:0.12;fill:#F7FFFF;}
	.st43{opacity:0.1;fill:#F7FFFF;}
	.st44{fill:url(#SVGID_00000036944991612714056260000010188901428994576828_);fill-opacity:0.49;}
	.st45{fill:url(#SVGID_00000028324177306432391840000000731266926403528084_);}
	.st46{opacity:0.5;fill:url(#SVGID_00000183212704213905934060000010756555930131933350_);}
	.st47{fill:url(#SVGID_00000183945954393681586580000011680149936782899091_);fill-opacity:0.49;}
	.st48{fill:url(#SVGID_00000170258343659916279640000002439927723978322595_);fill-opacity:0.49;}
	.st49{opacity:0.5;fill:url(#SVGID_00000155122608734551955410000014843609006623179177_);}
	.st50{opacity:0.73;fill:url(#SVGID_00000036212663883345164840000003656641175277565834_);}
	.st51{opacity:0.78;fill:url(#SVGID_00000172400318820942672380000017193169190133868190_);}
	.st52{opacity:0.35;fill:url(#SVGID_00000093881302725647816790000007407081238602174107_);}
	.st53{opacity:0.5;fill:url(#SVGID_00000139271875990875028790000009536022194198980997_);}
	.st54{opacity:0.5;fill:url(#SVGID_00000135680147666858725640000003982283792185613492_);}
	.st55{fill:url(#SVGID_00000036211888786777666640000011849827634462399148_);fill-opacity:0.7;}
	.st56{fill:url(#SVGID_00000019656951357149310620000014581574578020498843_);fill-opacity:0.7;}
	.st57{fill:url(#SVGID_00000096747648883507322140000007396178207522876077_);fill-opacity:0.7;}
	.st58{fill:url(#SVGID_00000160181605384264253490000007814456787526791298_);fill-opacity:0.49;}
	.st59{fill:url(#SVGID_00000142137593705806283300000017477540276814219422_);}
	.st60{opacity:0.5;fill:url(#SVGID_00000054224223579190940360000007180427475674869683_);}
	.st61{fill:url(#SVGID_00000016040796152995896230000004444197353530959028_);fill-opacity:0.49;}
	.st62{fill:url(#SVGID_00000166677503343941316890000012351654012556909484_);fill-opacity:0.49;}
	.st63{opacity:0.5;fill:url(#SVGID_00000103238422612081269910000016358304832594914746_);}
	.st64{opacity:0.73;fill:url(#SVGID_00000143579084414476834440000006563427579751607699_);}
	.st65{opacity:0.78;fill:url(#SVGID_00000000917573534524341250000000952074191582933163_);}
	.st66{opacity:0.35;fill:url(#SVGID_00000118383610646804654400000007893967226003518080_);}
	.st67{opacity:0.5;fill:url(#SVGID_00000137816928977469852800000016534267667880689049_);}
	.st68{opacity:0.5;fill:url(#SVGID_00000183938514348840576700000009625253553752335491_);}
	.st69{fill:url(#SVGID_00000088829283456627988970000016040659015598414236_);fill-opacity:0.7;}
	.st70{fill:url(#SVGID_00000143589948720347264300000008130993912311980964_);fill-opacity:0.7;}
	.st71{fill:url(#SVGID_00000037693070034346249160000008240475784845999788_);fill-opacity:0.7;}
</style>
<g>
	<g>
		<g>
			
				<linearGradient id="SVGID_1_" gradientUnits="userSpaceOnUse" x1="102.33" y1="30.0194" x2="102.33" y2="148.3591" gradientTransform="matrix(1 0 0 -1 0 194.8823)">
				<stop  offset="0" style="stop-color:#72466E"/>
				<stop  offset="0.4544" style="stop-color:#27283A"/>
				<stop  offset="0.8056" style="stop-color:#3E4253"/>
				<stop  offset="0.8403" style="stop-color:#424759"/>
				<stop  offset="0.8872" style="stop-color:#4F576A"/>
				<stop  offset="0.941" style="stop-color:#637187"/>
				<stop  offset="0.9997" style="stop-color:#7F94AE"/>
				<stop  offset="1" style="stop-color:#7F94AE"/>
			</linearGradient>
			<polygon class="st0" points="102.3,24.5 47.8,56 47.8,131 102.3,162.5 156.8,131 156.8,56 			"/>
			
				<linearGradient id="SVGID_00000117661663428103819840000015429397866783034282_" gradientUnits="userSpaceOnUse" x1="102.33" y1="151.8868" x2="102.33" y2="44.0777" gradientTransform="matrix(1 0 0 -1 0 194.8823)">
				<stop  offset="0" style="stop-color:#292D39"/>
				<stop  offset="0.1944" style="stop-color:#242734"/>
				<stop  offset="0.5456" style="stop-color:#2E2F42"/>
				<stop  offset="1" style="stop-color:#262738"/>
			</linearGradient>
			<polygon style="fill:url(#SVGID_00000117661663428103819840000015429397866783034282_);" points="57.7,125.3 57.7,61.6 
				102.3,35.9 147,61.6 147,125.3 102.3,151.1 			"/>
			
				<linearGradient id="SVGID_00000084497821373783157240000015761952755614106516_" gradientUnits="userSpaceOnUse" x1="102.33" y1="47.5673" x2="102.33" y2="155.2173" gradientTransform="matrix(1 0 0 -1 0 194.8823)">
				<stop  offset="0" style="stop-color:#3F3C51"/>
				<stop  offset="0.353" style="stop-color:#29293B"/>
				<stop  offset="0.5853" style="stop-color:#202132"/>
				<stop  offset="0.6419" style="stop-color:#2B2E3F"/>
				<stop  offset="0.7791" style="stop-color:#424759"/>
				<stop  offset="0.9027" style="stop-color:#4F5768"/>
				<stop  offset="1" style="stop-color:#545C6E"/>
			</linearGradient>
			<polygon style="fill:url(#SVGID_00000084497821373783157240000015761952755614106516_);" points="61,123.4 61,63.5 102.3,39.7 
				143.7,63.5 143.7,123.4 102.3,147.3 			"/>
			<path class="st3" d="M49.2,56.2c-0.7,2,5.1,4.5,9.2,3.6c4.1-0.9,42.4-23.4,43.4-25.4c0.3-0.6,0.3-8.4,0-8.4
				C100.4,25.9,49.5,55.2,49.2,56.2z"/>
			<path class="st3" d="M155.2,56.2c0.7,2-5.1,4.5-9.2,3.6s-42.1-23.6-43.4-25.4c-0.7-0.9-0.9-8.4,0-8.4
				C104,25.9,154.9,55.2,155.2,56.2z"/>
			
				<linearGradient id="SVGID_00000098925510254430325870000010779160707779882648_" gradientUnits="userSpaceOnUse" x1="52.7093" y1="51.0251" x2="52.7093" y2="116.2682" gradientTransform="matrix(1 0 0 -1 0 194.8823)">
				<stop  offset="0" style="stop-color:#705AB8"/>
				<stop  offset="1" style="stop-color:#FFFFFF"/>
			</linearGradient>
			<path style="opacity:0.1;fill:url(#SVGID_00000098925510254430325870000010779160707779882648_);enable-background:new    ;" d="
				M49.1,98.8c-0.4,2.2-1.3,30.7,0,30.9c1.3,0.2,7.2-3.8,7.5-5.7c0.3-1.9,0.4-21.3,0-23.2C56.2,98.9,49.8,95.1,49.1,98.8z"/>
			
				<linearGradient id="SVGID_00000180333557432438524050000005206967211962129597_" gradientUnits="userSpaceOnUse" x1="-4883.1592" y1="51.0251" x2="-4883.1592" y2="116.2682" gradientTransform="matrix(-1 0 0 -1 -4731.4185 194.8823)">
				<stop  offset="0" style="stop-color:#705AB8"/>
				<stop  offset="1" style="stop-color:#FFFFFF"/>
			</linearGradient>
			<path style="opacity:0.1;fill:url(#SVGID_00000180333557432438524050000005206967211962129597_);enable-background:new    ;" d="
				M155.3,98.8c0.4,2.2,1.3,30.7,0,30.9c-1.3,0.2-7.2-3.8-7.5-5.7s-0.4-21.3,0-23.2C148.3,99,154.7,95.1,155.3,98.8z"/>
			
				<linearGradient id="SVGID_00000049899997460152158470000010429174094430500736_" gradientUnits="userSpaceOnUse" x1="62.6515" y1="75.3728" x2="89.0253" y2="32.5965" gradientTransform="matrix(1 0 0 -1 0 194.8823)">
				<stop  offset="0" style="stop-color:#705AB8"/>
				<stop  offset="1" style="stop-color:#FFFFFF"/>
			</linearGradient>
			<path style="opacity:0.1;fill:url(#SVGID_00000049899997460152158470000010429174094430500736_);enable-background:new    ;" d="
				M50.5,130.5c0.7,1,49.7,30,50.5,30c0.4,0,0.9-7.2,0.9-8c0-2.2-43.4-25.3-44.2-25.5C56.6,126.7,49.8,129.5,50.5,130.5z"/>
			
				<linearGradient id="SVGID_00000129884267920384898910000012483521646233556663_" gradientUnits="userSpaceOnUse" x1="121.4079" y1="69.9782" x2="140.2984" y2="13.9635" gradientTransform="matrix(1 0 0 -1 0 194.8823)">
				<stop  offset="0" style="stop-color:#705AB8"/>
				<stop  offset="1" style="stop-color:#FFFFFF"/>
			</linearGradient>
			<path style="opacity:0.1;fill:url(#SVGID_00000129884267920384898910000012483521646233556663_);enable-background:new    ;" d="
				M154.2,131.3c-0.7,1-50.7,29.9-51.4,29.9c-0.2,0-0.2-9,0.2-9.3c1.6-1.6,43-24.7,43.7-24.9C147.9,126.7,154.9,130.3,154.2,131.3z"
				/>
			
				<linearGradient id="SVGID_00000018197107234859294790000016040297991929041063_" gradientUnits="userSpaceOnUse" x1="102.2206" y1="40.1462" x2="102.2206" y2="130.3445" gradientTransform="matrix(1 0 0 -1 0 194.8823)">
				<stop  offset="0" style="stop-color:#121117"/>
				<stop  offset="0.1464" style="stop-color:#14131B"/>
				<stop  offset="0.5853" style="stop-color:#171824"/>
				<stop  offset="1" style="stop-color:#171924"/>
			</linearGradient>
			<path style="fill:url(#SVGID_00000018197107234859294790000016040297991929041063_);" d="M62.9,121.8
				c-2.9-16.6-1.3-17.6,19.3-24.7c20.6-7,55.4-25.1,58.5-17.2s2,41.2,1.3,43.1c-0.7,1.8-36.7,22.5-39.6,22.5
				C99.4,145.6,63.2,123.7,62.9,121.8z"/>
			<path class="st3" d="M142.8,64c-0.7-0.2-38.1-21.8-40.2-21.6c-2,0.2-28,12.3-38.7,21.5c-2.8,2.4-1.8,39.1,0.8,38.4
				c2.6-0.7,4.6-15.5,33.5-23.8c28.5-8.2,40.9-1.1,44,0.2C143,79,144.5,64.4,142.8,64z"/>
			
				<linearGradient id="SVGID_00000053502772808524335170000012854376682567815852_" gradientUnits="userSpaceOnUse" x1="102.33" y1="69.5473" x2="102.33" y2="159.0173" gradientTransform="matrix(1 0 0 -1 0 194.8823)">
				<stop  offset="0" style="stop-color:#FFFFFF"/>
				<stop  offset="0.4444" style="stop-color:#361D4D"/>
				<stop  offset="1" style="stop-color:#000000"/>
			</linearGradient>
			<path style="opacity:0.5;fill:url(#SVGID_00000053502772808524335170000012854376682567815852_);enable-background:new    ;" d="
				M57.7,125.3V61.6l44.6-25.8L147,61.6v63.7l-3.3-1.9c0,0,0.2-55.4-1-57.1c-4.2-6.2-37.3-21.3-42.7-19.6
				C94.5,48.5,65.1,61,61.8,66.2C60.7,68,61,123.4,61,123.4L57.7,125.3z"/>
			<path class="st3" d="M110.7,70.3c11.1,5.1,27.9,5.2,29.4,4.2c1.5-1,2.6-8.1,0.1-9.3c-2.4-1.2-21.5-11.4-26.5-10.3
				C108.7,56,108.7,69.4,110.7,70.3z"/>
			<path class="st10" d="M121.8,47.1c0,0,23.9,13.6,24.3,15.2S147,105,147,105s0.2-41.6,0-43.3C146.8,59.9,121.8,47.1,121.8,47.1z"
				/>
			<path class="st10" d="M57.7,96.5c0,0-0.8-34.4-0.4-35.5c0.4-1.1,45-25.1,45-25.1s-43.1,24.6-44,26.2
				C57.5,63.6,57.7,96.5,57.7,96.5z"/>
			<path class="st10" d="M57.7,109c0,0-0.2,14.7,0.7,15.9c0.8,1.2,22,13.5,22,13.5s-22.9-11.9-23.2-12.6C57,125,57.7,109,57.7,109z"
				/>
			<path class="st3" d="M76.1,138.7c-1.6,0-6.1,1.8-5.1,2.9c0.8,0.9,27.8,17.2,30.9,18.4c1,0.4,0.9-6-0.4-8.1
				C100.8,151,81.1,138.7,76.1,138.7z"/>
			
				<linearGradient id="SVGID_00000112606620161887752610000006079895108166600070_" gradientUnits="userSpaceOnUse" x1="139.4708" y1="47.8473" x2="139.4708" y2="67.2709" gradientTransform="matrix(1 0 0 -1 0 194.8823)">
				<stop  offset="0" style="stop-color:#FFFFFF"/>
				<stop  offset="0.4444" style="stop-color:#881DED"/>
				<stop  offset="1" style="stop-color:#262262"/>
			</linearGradient>
			<path style="opacity:0.1;fill:url(#SVGID_00000112606620161887752610000006079895108166600070_);enable-background:new    ;" d="
				M127.5,138.9c-1.2,5.1-1,8.2-0.3,8.2c0.7,0,24.5-14.3,25.1-14.9c0.7-0.6-3.8-4.8-5.7-4.5C144.8,127.9,127.9,136.9,127.5,138.9z"
				/>
		</g>
		<g class="st12">
			
				<linearGradient id="SVGID_00000050661915300793004410000008292560207851237535_" gradientUnits="userSpaceOnUse" x1="102.115" y1="109.2473" x2="102.115" y2="67.5473" gradientTransform="matrix(1 0 0 -1 0 194.8823)">
				<stop  offset="0" style="stop-color:#4D3463"/>
				<stop  offset="0.4444" style="stop-color:#170529"/>
				<stop  offset="1" style="stop-color:#12121A"/>
			</linearGradient>
			
				<path style="display:inline;opacity:0.5;fill:url(#SVGID_00000050661915300793004410000008292560207851237535_);enable-background:new    ;" d="
				M43.3,85.6l3.7,6.2l0.8,0.5l0,1.8c0,0,3.1,1.6,9.3,5c0.2,0.1,3.9,4,3.9,4s39.8,24.1,41.3,24.1c1.9,0,41.4-24.6,41.4-24.6
				s3.1-2.6,3.4-2.8l9.8-5.1v-2.6l0.7-0.4l3.3-6.2l-58.6,34.5L43.3,85.6z"/>
			
				<linearGradient id="SVGID_00000098939514454320005060000015630513851490623925_" gradientUnits="userSpaceOnUse" x1="102.12" y1="157.8037" x2="102.12" y2="72.0356" gradientTransform="matrix(1 0 0 -1 0 194.8823)">
				<stop  offset="0" style="stop-color:#B16376"/>
				<stop  offset="0.4544" style="stop-color:#574E66"/>
				<stop  offset="0.8056" style="stop-color:#5B469C"/>
				<stop  offset="0.8623" style="stop-color:#614996"/>
				<stop  offset="0.9389" style="stop-color:#725186"/>
				<stop  offset="1" style="stop-color:#855A75"/>
			</linearGradient>
			<path style="display:inline;fill:url(#SVGID_00000098939514454320005060000015630513851490623925_);" d="M102.3,108.8L46,76
				c-2.2,5-2.7,9.6-2.7,9.6l3.7,6.2l55.3,32.1l0,0l55.3-32.1l3.3-6.2c0,0,0-4.7-2-9.6L102.3,108.8z"/>
			
				<linearGradient id="SVGID_00000090989851153320044410000017112599829932875404_" gradientUnits="userSpaceOnUse" x1="43.34" y1="90.0923" x2="160.89" y2="90.0923" gradientTransform="matrix(1 0 0 -1 0 194.8823)">
				<stop  offset="0" style="stop-color:#000000"/>
				<stop  offset="0.4544" style="stop-color:#655482"/>
				<stop  offset="0.8056" style="stop-color:#594573"/>
				<stop  offset="0.8355" style="stop-color:#54416D"/>
				<stop  offset="0.8759" style="stop-color:#47375C"/>
				<stop  offset="0.9223" style="stop-color:#31263F"/>
				<stop  offset="0.9728" style="stop-color:#130F18"/>
				<stop  offset="1" style="stop-color:#000000"/>
			</linearGradient>
			
				<polygon style="display:inline;opacity:0.4;fill:url(#SVGID_00000090989851153320044410000017112599829932875404_);enable-background:new    ;" points="
				47,91.8 43.3,85.6 102.3,120.2 160.9,85.6 157.6,91.8 102.3,123.9 			"/>
			
				<linearGradient id="SVGID_00000181081143246600491400000011340598430323366823_" gradientUnits="userSpaceOnUse" x1="-4576.4419" y1="73.6651" x2="-4572.6782" y2="118.1218" gradientTransform="matrix(-0.9942 0 0 -1 -4416.7588 194.8823)">
				<stop  offset="0" style="stop-color:#705AB8"/>
				<stop  offset="1" style="stop-color:#FFFFFF"/>
			</linearGradient>
			
				<path style="display:inline;opacity:0.5;fill:url(#SVGID_00000181081143246600491400000011340598430323366823_);enable-background:new    ;" d="
				M102.3,108.8v11.3l58.6-34.5c0,0-0.2-5.7-2-9.6L102.3,108.8z"/>
			<path class="st17" d="M48.9,78.5c-1.1,0-0.2,9.5,3.1,11.7c5.2,3.5,36.5,21.9,38.6,22c1.4,0,1.3-8.1,0.9-8.7
				C90.7,102.3,50.5,78.5,48.9,78.5z"/>
			<path class="st17" d="M119.7,99.1c-0.7,0.7-0.6,9.6,0.6,9.3c1.2-0.3,18.9-9.7,27.2-15.8c8.3-6.1,9.5-14.2,7.6-14
				C155.1,78.5,121.1,97.6,119.7,99.1z"/>
			<path class="st18" d="M73.6,103.4c0,0,26.9,16.2,28.7,16.2c1.7,0,23.2-13.1,23.2-13.1s-22.6,14.3-23.2,14.3
				C101.9,120.8,73.6,103.4,73.6,103.4z"/>
		</g>
		<g class="st12">
			
				<linearGradient id="SVGID_00000103232681346549042690000009719931790651873942_" gradientUnits="userSpaceOnUse" x1="102.115" y1="129.2473" x2="102.115" y2="87.5473" gradientTransform="matrix(1 0 0 -1 0 194.8823)">
				<stop  offset="0" style="stop-color:#4D3463"/>
				<stop  offset="0.4444" style="stop-color:#170529"/>
				<stop  offset="1" style="stop-color:#12121A"/>
			</linearGradient>
			
				<path style="display:inline;opacity:0.5;fill:url(#SVGID_00000103232681346549042690000009719931790651873942_);enable-background:new    ;" d="
				M43.3,65.6l3.7,6.2l0.8,0.5l0,1.8c0,0,3.1,1.6,9.3,5c0.2,0.1,3.9,4,3.9,4s39.8,24.1,41.3,24.1c1.9,0,41.4-24.6,41.4-24.6
				s3.1-2.6,3.4-2.8l9.8-5.1v-2.6l0.7-0.4l3.3-6.2l-58.6,34.5L43.3,65.6z"/>
			
				<linearGradient id="SVGID_00000162354415573164269140000017315040261257799561_" gradientUnits="userSpaceOnUse" x1="102.12" y1="177.8037" x2="102.12" y2="92.0356" gradientTransform="matrix(1 0 0 -1 0 194.8823)">
				<stop  offset="0" style="stop-color:#B16376"/>
				<stop  offset="0.4544" style="stop-color:#574E66"/>
				<stop  offset="0.8056" style="stop-color:#5B469C"/>
				<stop  offset="0.8623" style="stop-color:#614996"/>
				<stop  offset="0.9389" style="stop-color:#725186"/>
				<stop  offset="1" style="stop-color:#855A75"/>
			</linearGradient>
			<path style="display:inline;fill:url(#SVGID_00000162354415573164269140000017315040261257799561_);" d="M102.3,88.8L46,56
				c-2.2,5-2.7,9.6-2.7,9.6l3.7,6.2l55.3,32.1l0,0l55.3-32.1l3.3-6.2c0,0,0-4.7-2-9.6L102.3,88.8z"/>
			
				<linearGradient id="SVGID_00000036957701155890995780000000874366093120943537_" gradientUnits="userSpaceOnUse" x1="43.34" y1="110.0923" x2="160.89" y2="110.0923" gradientTransform="matrix(1 0 0 -1 0 194.8823)">
				<stop  offset="0" style="stop-color:#000000"/>
				<stop  offset="0.4544" style="stop-color:#655482"/>
				<stop  offset="0.8056" style="stop-color:#594573"/>
				<stop  offset="0.8355" style="stop-color:#54416D"/>
				<stop  offset="0.8759" style="stop-color:#47375C"/>
				<stop  offset="0.9223" style="stop-color:#31263F"/>
				<stop  offset="0.9728" style="stop-color:#130F18"/>
				<stop  offset="1" style="stop-color:#000000"/>
			</linearGradient>
			
				<polygon style="display:inline;opacity:0.4;fill:url(#SVGID_00000036957701155890995780000000874366093120943537_);enable-background:new    ;" points="
				47,71.8 43.3,65.6 102.3,100.2 160.9,65.6 157.6,71.8 102.3,103.9 			"/>
			
				<linearGradient id="SVGID_00000150796283968309504370000001598831687574738336_" gradientUnits="userSpaceOnUse" x1="-4576.4419" y1="93.6651" x2="-4572.6782" y2="138.1218" gradientTransform="matrix(-0.9942 0 0 -1 -4416.7588 194.8823)">
				<stop  offset="0" style="stop-color:#705AB8"/>
				<stop  offset="1" style="stop-color:#FFFFFF"/>
			</linearGradient>
			
				<path style="display:inline;opacity:0.5;fill:url(#SVGID_00000150796283968309504370000001598831687574738336_);enable-background:new    ;" d="
				M102.3,88.8v11.3l58.6-34.5c0,0-0.2-5.7-2-9.6L102.3,88.8z"/>
			<path class="st17" d="M48.9,58.5c-1.1,0-0.2,9.5,3.1,11.7c5.2,3.5,36.5,21.9,38.6,22c1.4,0,1.3-8.1,0.9-8.7
				C90.7,82.3,50.5,58.5,48.9,58.5z"/>
			<path class="st17" d="M119.7,79.1c-0.7,0.7-0.6,9.6,0.6,9.3c1.2-0.3,18.9-9.7,27.2-15.8c8.3-6.1,9.5-14.2,7.6-14
				C155.1,58.5,121.1,77.6,119.7,79.1z"/>
			<path class="st18" d="M73.6,83.4c0,0,26.9,16.2,28.7,16.2c1.7,0,23.2-13.1,23.2-13.1s-22.6,14.3-23.2,14.3
				C101.9,100.8,73.6,83.4,73.6,83.4z"/>
		</g>
		<g class="st12">
			
				<linearGradient id="SVGID_00000098911349898667587260000006231632115153722519_" gradientUnits="userSpaceOnUse" x1="102.115" y1="89.2473" x2="102.115" y2="47.5473" gradientTransform="matrix(1 0 0 -1 0 194.8823)">
				<stop  offset="0" style="stop-color:#4D3463"/>
				<stop  offset="0.4444" style="stop-color:#170529"/>
				<stop  offset="1" style="stop-color:#12121A"/>
			</linearGradient>
			
				<path style="display:inline;opacity:0.5;fill:url(#SVGID_00000098911349898667587260000006231632115153722519_);enable-background:new    ;" d="
				M43.3,105.6l3.7,6.2l0.8,0.5l0,1.8c0,0,3.1,1.6,9.3,5c0.2,0.1,3.9,4,3.9,4s39.8,24.1,41.3,24.1c1.9,0,41.4-24.6,41.4-24.6
				s3.1-2.6,3.4-2.8l9.8-5.1v-2.6l0.7-0.4l3.3-6.2l-58.6,34.5L43.3,105.6z"/>
			
				<linearGradient id="SVGID_00000129203709540163244070000008370416727787959467_" gradientUnits="userSpaceOnUse" x1="102.12" y1="137.8037" x2="102.12" y2="52.0356" gradientTransform="matrix(1 0 0 -1 0 194.8823)">
				<stop  offset="0" style="stop-color:#B16376"/>
				<stop  offset="0.4544" style="stop-color:#574E66"/>
				<stop  offset="0.8056" style="stop-color:#5B469C"/>
				<stop  offset="0.8623" style="stop-color:#614996"/>
				<stop  offset="0.9389" style="stop-color:#725186"/>
				<stop  offset="1" style="stop-color:#855A75"/>
			</linearGradient>
			<path style="display:inline;fill:url(#SVGID_00000129203709540163244070000008370416727787959467_);" d="M102.3,128.8L46,96
				c-2.2,5-2.7,9.6-2.7,9.6l3.7,6.2l55.3,32.1l0,0l55.3-32.1l3.3-6.2c0,0,0-4.7-2-9.6L102.3,128.8z"/>
			
				<linearGradient id="SVGID_00000080176607933166976920000002644709760053410471_" gradientUnits="userSpaceOnUse" x1="43.34" y1="70.0923" x2="160.89" y2="70.0923" gradientTransform="matrix(1 0 0 -1 0 194.8823)">
				<stop  offset="0" style="stop-color:#000000"/>
				<stop  offset="0.4544" style="stop-color:#655482"/>
				<stop  offset="0.8056" style="stop-color:#594573"/>
				<stop  offset="0.8355" style="stop-color:#54416D"/>
				<stop  offset="0.8759" style="stop-color:#47375C"/>
				<stop  offset="0.9223" style="stop-color:#31263F"/>
				<stop  offset="0.9728" style="stop-color:#130F18"/>
				<stop  offset="1" style="stop-color:#000000"/>
			</linearGradient>
			
				<polygon style="display:inline;opacity:0.4;fill:url(#SVGID_00000080176607933166976920000002644709760053410471_);enable-background:new    ;" points="
				47,111.8 43.3,105.6 102.3,140.2 160.9,105.6 157.6,111.8 102.3,143.9 			"/>
			
				<linearGradient id="SVGID_00000147179724440481161280000008879963248556288190_" gradientUnits="userSpaceOnUse" x1="-4576.4419" y1="53.6651" x2="-4572.6782" y2="98.1218" gradientTransform="matrix(-0.9942 0 0 -1 -4416.7588 194.8823)">
				<stop  offset="0" style="stop-color:#705AB8"/>
				<stop  offset="1" style="stop-color:#FFFFFF"/>
			</linearGradient>
			
				<path style="display:inline;opacity:0.5;fill:url(#SVGID_00000147179724440481161280000008879963248556288190_);enable-background:new    ;" d="
				M102.3,128.8v11.3l58.6-34.5c0,0-0.2-5.7-2-9.6L102.3,128.8z"/>
			<path class="st17" d="M48.9,98.5c-1.1,0-0.2,9.5,3.1,11.7c5.2,3.5,36.5,21.9,38.6,22c1.4,0,1.3-8.1,0.9-8.7
				C90.7,122.3,50.5,98.5,48.9,98.5z"/>
			<path class="st17" d="M119.7,119.1c-0.7,0.7-0.6,9.6,0.6,9.3c1.2-0.3,18.9-9.7,27.2-15.8c8.3-6.1,9.5-14.2,7.6-14
				C155.1,98.5,121.1,117.6,119.7,119.1z"/>
			<path class="st18" d="M73.6,123.4c0,0,26.9,16.2,28.7,16.2c1.7,0,23.2-13.1,23.2-13.1s-22.6,14.3-23.2,14.3
				C101.9,140.8,73.6,123.4,73.6,123.4z"/>
		</g>
	</g>
</g>
<g>
	<g>
		
			<linearGradient id="SVGID_00000087386919523812527340000000712333570845895051_" gradientUnits="userSpaceOnUse" x1="76.7332" y1="89.0874" x2="76.7332" y2="72.922">
			<stop  offset="0" style="stop-color:#000000"/>
			<stop  offset="0.4444" style="stop-color:#000000"/>
			<stop  offset="1" style="stop-color:#000000"/>
		</linearGradient>
		<polygon style="fill:url(#SVGID_00000087386919523812527340000000712333570845895051_);fill-opacity:0.49;" points="76.7,86.3 
			71.5,89.1 72.5,83.2 68.2,79.1 74.1,78.2 76.7,72.9 79.4,78.2 85.2,79.1 81,83.2 82,89.1 		"/>
		
			<linearGradient id="SVGID_00000111912237392838339890000007384378664059513234_" gradientUnits="userSpaceOnUse" x1="76.7332" y1="88.8474" x2="76.7332" y2="71.0234">
			<stop  offset="0" style="stop-color:#D484FF"/>
			<stop  offset="0.4486" style="stop-color:#906CC4"/>
			<stop  offset="0.8056" style="stop-color:#5C50C7"/>
			<stop  offset="0.8889" style="stop-color:#624BC6"/>
			<stop  offset="1" style="stop-color:#733DC4"/>
		</linearGradient>
		<polygon style="fill:url(#SVGID_00000111912237392838339890000007384378664059513234_);" points="84.6,79.3 81.8,78.9 81,78.8 
			79.2,78.5 76.7,73.6 74.3,78.5 68.8,79.3 72.8,83.1 71.9,88.6 76.7,86 81.6,88.6 80.7,83.1 		"/>
		<g>
			
				<linearGradient id="SVGID_00000062164165146165191890000016062986760959469198_" gradientUnits="userSpaceOnUse" x1="68.8204" y1="81.2175" x2="76.8464" y2="81.2175">
				<stop  offset="0" style="stop-color:#000000"/>
				<stop  offset="1" style="stop-color:#2B2B2B"/>
			</linearGradient>
			<polygon style="opacity:0.5;fill:url(#SVGID_00000062164165146165191890000016062986760959469198_);" points="68.8,79.3 
				76.8,81.4 72.8,83.1 			"/>
			
				<linearGradient id="SVGID_00000092455508827781139570000001063181571808927928_" gradientUnits="userSpaceOnUse" x1="76.8464" y1="81.2175" x2="84.5902" y2="81.2175">
				<stop  offset="0" style="stop-color:#000000"/>
				<stop  offset="0.4444" style="stop-color:#000000"/>
				<stop  offset="1" style="stop-color:#000000"/>
			</linearGradient>
			<polygon style="fill:url(#SVGID_00000092455508827781139570000001063181571808927928_);fill-opacity:0.49;" points="84.6,79.3 
				76.8,81.4 80.6,83.1 			"/>
			
				<linearGradient id="SVGID_00000122000670254225941370000012824487068318479015_" gradientUnits="userSpaceOnUse" x1="71.8321" y1="84.9798" x2="76.8464" y2="84.9798">
				<stop  offset="0" style="stop-color:#000000"/>
				<stop  offset="0.4444" style="stop-color:#000000"/>
				<stop  offset="1" style="stop-color:#000000"/>
			</linearGradient>
			<polygon style="fill:url(#SVGID_00000122000670254225941370000012824487068318479015_);fill-opacity:0.49;" points="76.7,86 
				76.8,81.4 71.8,88.6 			"/>
			
				<linearGradient id="SVGID_00000150085692072295141430000017153636540668207269_" gradientUnits="userSpaceOnUse" x1="76.7053" y1="84.9798" x2="81.5784" y2="84.9798">
				<stop  offset="0" style="stop-color:#705AB8"/>
				<stop  offset="1" style="stop-color:#FFFFFF"/>
			</linearGradient>
			<polygon style="opacity:0.5;fill:url(#SVGID_00000150085692072295141430000017153636540668207269_);" points="81.6,88.6 
				76.8,81.4 76.7,86 			"/>
			
				<linearGradient id="SVGID_00000132047911571895546120000007308919676252058019_" gradientUnits="userSpaceOnUse" x1="77.4263" y1="74.7441" x2="78.5173" y2="84.7458">
				<stop  offset="0" style="stop-color:#F0F5FF"/>
				<stop  offset="1" style="stop-color:#260073"/>
			</linearGradient>
			<polygon style="opacity:0.73;fill:url(#SVGID_00000132047911571895546120000007308919676252058019_);" points="76.7,73.6 
				76.8,81.4 79.1,78.5 			"/>
			
				<linearGradient id="SVGID_00000070840631910922599830000009156374929808801412_" gradientUnits="userSpaceOnUse" x1="76.8464" y1="79.9493" x2="84.5902" y2="79.9493">
				<stop  offset="0" style="stop-color:#AF96FF"/>
				<stop  offset="1" style="stop-color:#4D3396"/>
			</linearGradient>
			<polygon style="opacity:0.78;fill:url(#SVGID_00000070840631910922599830000009156374929808801412_);" points="84.6,79.3 
				76.8,81.4 79.1,78.5 			"/>
			
				<linearGradient id="SVGID_00000177453155041491301630000004760014851932977061_" gradientUnits="userSpaceOnUse" x1="80.0757" y1="74.4551" x2="81.1668" y2="84.4567">
				<stop  offset="0" style="stop-color:#FFFFFF"/>
				<stop  offset="1" style="stop-color:#000000"/>
			</linearGradient>
			<polygon style="opacity:0.35;fill:url(#SVGID_00000177453155041491301630000004760014851932977061_);" points="84.6,79.3 
				76.8,81.4 79.1,78.5 			"/>
			
				<linearGradient id="SVGID_00000147937574878952484180000014778792223350549910_" gradientUnits="userSpaceOnUse" x1="72.2835" y1="75.3052" x2="73.3746" y2="85.3068">
				<stop  offset="0" style="stop-color:#603CC2"/>
				<stop  offset="1" style="stop-color:#3A2D4F"/>
			</linearGradient>
			<polygon style="opacity:0.5;fill:url(#SVGID_00000147937574878952484180000014778792223350549910_);" points="74.3,78.5 
				76.8,81.4 68.8,79.3 			"/>
			<path class="st37" d="M79.1,80.2c-0.4,0.3-0.1,0.6-0.1,0.6l2.1-0.6C81.2,80.2,80.1,79.4,79.1,80.2z"/>
		</g>
		
			<linearGradient id="SVGID_00000180361132177967530420000008681246541234770602_" gradientUnits="userSpaceOnUse" x1="76.7332" y1="88.5653" x2="76.7332" y2="86.0034">
			<stop  offset="0" style="stop-color:#FFFFFF"/>
			<stop  offset="0.4444" style="stop-color:#881DED"/>
			<stop  offset="1" style="stop-color:#262262"/>
		</linearGradient>
		<path style="opacity:0.5;fill:url(#SVGID_00000180361132177967530420000008681246541234770602_);" d="M71.9,88.6
			c0,0,3.7-1.7,4.9-2.2l4.9,2.2L76.7,86L71.9,88.6z"/>
		
			<linearGradient id="SVGID_00000013163587318003308570000006215785357597799613_" gradientUnits="userSpaceOnUse" x1="72.8334" y1="85.1858" x2="72.8334" y2="79.296">
			<stop  offset="0" style="stop-color:#000000;stop-opacity:0"/>
			<stop  offset="0.4444" style="stop-color:#000000;stop-opacity:0.5"/>
			<stop  offset="1" style="stop-color:#000000"/>
		</linearGradient>
		<polygon style="fill:url(#SVGID_00000013163587318003308570000006215785357597799613_);fill-opacity:0.7;" points="68.8,79.3 
			76.8,81.4 72.4,85.2 		"/>
		
			<linearGradient id="SVGID_00000018947476164731839250000005726338532452003236_" gradientUnits="userSpaceOnUse" x1="80.7182" y1="85.6907" x2="80.7182" y2="79.296">
			<stop  offset="0" style="stop-color:#000000;stop-opacity:0"/>
			<stop  offset="0.4444" style="stop-color:#000000;stop-opacity:0.5"/>
			<stop  offset="1" style="stop-color:#000000"/>
		</linearGradient>
		<polygon style="fill:url(#SVGID_00000018947476164731839250000005726338532452003236_);fill-opacity:0.7;" points="84.6,79.3 
			76.8,81.4 81.1,85.7 		"/>
		
			<linearGradient id="SVGID_00000129183115956822558810000012567202716213296565_" gradientUnits="userSpaceOnUse" x1="76.7332" y1="88.5653" x2="76.7332" y2="81.3943">
			<stop  offset="0" style="stop-color:#000000;stop-opacity:0"/>
			<stop  offset="0.4444" style="stop-color:#000000;stop-opacity:0.5"/>
			<stop  offset="1" style="stop-color:#000000"/>
		</linearGradient>
		<polygon style="fill:url(#SVGID_00000129183115956822558810000012567202716213296565_);fill-opacity:0.7;" points="71.9,88.6 
			76.8,81.4 81.6,88.6 76.7,87.8 		"/>
		<path class="st42" d="M74.9,77.7c-0.5,1.4,1.5,2.4,1.7,2c0.3-0.4,0.1-2.9-0.2-3.2C76.1,76.1,75.1,77.1,74.9,77.7z"/>
		<path class="st43" d="M73.3,85c1,0.1,1.6-1.1,1.9-1.9C75.5,81.8,71.4,84.8,73.3,85z"/>
	</g>
	<g>
		
			<linearGradient id="SVGID_00000080191328648525743930000014984289525655107210_" gradientUnits="userSpaceOnUse" x1="127.5069" y1="89.0874" x2="127.5069" y2="72.922">
			<stop  offset="0" style="stop-color:#000000"/>
			<stop  offset="0.4444" style="stop-color:#000000"/>
			<stop  offset="1" style="stop-color:#000000"/>
		</linearGradient>
		<polygon style="fill:url(#SVGID_00000080191328648525743930000014984289525655107210_);fill-opacity:0.49;" points="127.5,86.3 
			122.3,89.1 123.3,83.2 119,79.1 124.9,78.2 127.5,72.9 130.1,78.2 136,79.1 131.8,83.2 132.8,89.1 		"/>
		
			<linearGradient id="SVGID_00000026863222934450193490000017839724196402875544_" gradientUnits="userSpaceOnUse" x1="127.5069" y1="88.8474" x2="127.5069" y2="71.0234">
			<stop  offset="0" style="stop-color:#D484FF"/>
			<stop  offset="0.4486" style="stop-color:#906CC4"/>
			<stop  offset="0.8056" style="stop-color:#5C50C7"/>
			<stop  offset="0.8889" style="stop-color:#624BC6"/>
			<stop  offset="1" style="stop-color:#733DC4"/>
		</linearGradient>
		<polygon style="fill:url(#SVGID_00000026863222934450193490000017839724196402875544_);" points="135.4,79.3 132.6,78.9 
			131.8,78.8 129.9,78.5 127.5,73.6 125.1,78.5 119.6,79.3 123.6,83.1 122.6,88.6 127.5,86 132.4,88.6 131.4,83.1 		"/>
		<g>
			
				<linearGradient id="SVGID_00000072968486628873320820000009620723753154006418_" gradientUnits="userSpaceOnUse" x1="119.594" y1="81.2175" x2="127.62" y2="81.2175">
				<stop  offset="0" style="stop-color:#000000"/>
				<stop  offset="1" style="stop-color:#2B2B2B"/>
			</linearGradient>
			<polygon style="opacity:0.5;fill:url(#SVGID_00000072968486628873320820000009620723753154006418_);" points="119.6,79.3 
				127.6,81.4 123.5,83.1 			"/>
			
				<linearGradient id="SVGID_00000062192045217998022850000015037811766768268683_" gradientUnits="userSpaceOnUse" x1="127.62" y1="81.2175" x2="135.3639" y2="81.2175">
				<stop  offset="0" style="stop-color:#000000"/>
				<stop  offset="0.4444" style="stop-color:#000000"/>
				<stop  offset="1" style="stop-color:#000000"/>
			</linearGradient>
			<polygon style="fill:url(#SVGID_00000062192045217998022850000015037811766768268683_);fill-opacity:0.49;" points="135.4,79.3 
				127.6,81.4 131.4,83.1 			"/>
			
				<linearGradient id="SVGID_00000010307080858015676930000013268835156176052891_" gradientUnits="userSpaceOnUse" x1="122.6058" y1="84.9798" x2="127.62" y2="84.9798">
				<stop  offset="0" style="stop-color:#000000"/>
				<stop  offset="0.4444" style="stop-color:#000000"/>
				<stop  offset="1" style="stop-color:#000000"/>
			</linearGradient>
			<polygon style="fill:url(#SVGID_00000010307080858015676930000013268835156176052891_);fill-opacity:0.49;" points="127.5,86 
				127.6,81.4 122.6,88.6 			"/>
			
				<linearGradient id="SVGID_00000026883676092762998950000007020064097037672848_" gradientUnits="userSpaceOnUse" x1="127.4789" y1="84.9798" x2="132.3521" y2="84.9798">
				<stop  offset="0" style="stop-color:#705AB8"/>
				<stop  offset="1" style="stop-color:#FFFFFF"/>
			</linearGradient>
			<polygon style="opacity:0.5;fill:url(#SVGID_00000026883676092762998950000007020064097037672848_);" points="132.4,88.6 
				127.6,81.4 127.5,86 			"/>
			
				<linearGradient id="SVGID_00000168076048047777791780000013209313725733816209_" gradientUnits="userSpaceOnUse" x1="128.2" y1="74.7441" x2="129.291" y2="84.7458">
				<stop  offset="0" style="stop-color:#F0F5FF"/>
				<stop  offset="1" style="stop-color:#260073"/>
			</linearGradient>
			<polygon style="opacity:0.73;fill:url(#SVGID_00000168076048047777791780000013209313725733816209_);" points="127.5,73.6 
				127.6,81.4 129.9,78.5 			"/>
			
				<linearGradient id="SVGID_00000016756188711894559000000009217782970945928620_" gradientUnits="userSpaceOnUse" x1="127.62" y1="79.9493" x2="135.3639" y2="79.9493">
				<stop  offset="0" style="stop-color:#AF96FF"/>
				<stop  offset="1" style="stop-color:#4D3396"/>
			</linearGradient>
			<polygon style="opacity:0.78;fill:url(#SVGID_00000016756188711894559000000009217782970945928620_);" points="135.4,79.3 
				127.6,81.4 129.9,78.5 			"/>
			
				<linearGradient id="SVGID_00000084496671539427290140000007834882250256925833_" gradientUnits="userSpaceOnUse" x1="130.8494" y1="74.4551" x2="131.9405" y2="84.4567">
				<stop  offset="0" style="stop-color:#FFFFFF"/>
				<stop  offset="1" style="stop-color:#000000"/>
			</linearGradient>
			<polygon style="opacity:0.35;fill:url(#SVGID_00000084496671539427290140000007834882250256925833_);" points="135.4,79.3 
				127.6,81.4 129.9,78.5 			"/>
			
				<linearGradient id="SVGID_00000010277180786279034970000007911042538879229572_" gradientUnits="userSpaceOnUse" x1="123.0572" y1="75.3052" x2="124.1483" y2="85.3068">
				<stop  offset="0" style="stop-color:#603CC2"/>
				<stop  offset="1" style="stop-color:#3A2D4F"/>
			</linearGradient>
			<polygon style="opacity:0.5;fill:url(#SVGID_00000010277180786279034970000007911042538879229572_);" points="125,78.5 
				127.6,81.4 119.6,79.3 			"/>
			<path class="st37" d="M129.9,80.2c-0.4,0.3-0.1,0.6-0.1,0.6l2.1-0.6C131.9,80.2,130.9,79.4,129.9,80.2z"/>
		</g>
		
			<linearGradient id="SVGID_00000111913816909006662370000003462233902253850278_" gradientUnits="userSpaceOnUse" x1="127.5069" y1="88.5653" x2="127.5069" y2="86.0034">
			<stop  offset="0" style="stop-color:#FFFFFF"/>
			<stop  offset="0.4444" style="stop-color:#881DED"/>
			<stop  offset="1" style="stop-color:#262262"/>
		</linearGradient>
		<path style="opacity:0.5;fill:url(#SVGID_00000111913816909006662370000003462233902253850278_);" d="M122.6,88.6
			c0,0,3.7-1.7,4.9-2.2l4.9,2.2l-4.9-2.6L122.6,88.6z"/>
		
			<linearGradient id="SVGID_00000068652887772409743570000011509577075976688007_" gradientUnits="userSpaceOnUse" x1="123.607" y1="85.1858" x2="123.607" y2="79.296">
			<stop  offset="0" style="stop-color:#000000;stop-opacity:0"/>
			<stop  offset="0.4444" style="stop-color:#000000;stop-opacity:0.5"/>
			<stop  offset="1" style="stop-color:#000000"/>
		</linearGradient>
		<polygon style="fill:url(#SVGID_00000068652887772409743570000011509577075976688007_);fill-opacity:0.7;" points="119.6,79.3 
			127.6,81.4 123.2,85.2 		"/>
		
			<linearGradient id="SVGID_00000142871342959652935200000011382888934512182678_" gradientUnits="userSpaceOnUse" x1="131.4919" y1="85.6907" x2="131.4919" y2="79.296">
			<stop  offset="0" style="stop-color:#000000;stop-opacity:0"/>
			<stop  offset="0.4444" style="stop-color:#000000;stop-opacity:0.5"/>
			<stop  offset="1" style="stop-color:#000000"/>
		</linearGradient>
		<polygon style="fill:url(#SVGID_00000142871342959652935200000011382888934512182678_);fill-opacity:0.7;" points="135.4,79.3 
			127.6,81.4 131.9,85.7 		"/>
		
			<linearGradient id="SVGID_00000158018372743254122700000009346187009318671261_" gradientUnits="userSpaceOnUse" x1="127.5069" y1="88.5653" x2="127.5069" y2="81.3943">
			<stop  offset="0" style="stop-color:#000000;stop-opacity:0"/>
			<stop  offset="0.4444" style="stop-color:#000000;stop-opacity:0.5"/>
			<stop  offset="1" style="stop-color:#000000"/>
		</linearGradient>
		<polygon style="fill:url(#SVGID_00000158018372743254122700000009346187009318671261_);fill-opacity:0.7;" points="122.6,88.6 
			127.6,81.4 132.4,88.6 127.5,87.8 		"/>
		<path class="st42" d="M125.7,77.7c-0.5,1.4,1.5,2.4,1.7,2c0.3-0.4,0.1-2.9-0.2-3.2C126.8,76.1,125.9,77.1,125.7,77.7z"/>
		<path class="st43" d="M124.1,85c1,0.1,1.6-1.1,1.9-1.9C126.3,81.8,122.2,84.8,124.1,85z"/>
	</g>
	<g>
		
			<linearGradient id="SVGID_00000128443011862244267300000001456741757078453678_" gradientUnits="userSpaceOnUse" x1="102.12" y1="117.3867" x2="102.12" y2="80.1959">
			<stop  offset="0" style="stop-color:#000000"/>
			<stop  offset="0.4444" style="stop-color:#000000"/>
			<stop  offset="1" style="stop-color:#000000"/>
		</linearGradient>
		<polygon style="fill:url(#SVGID_00000128443011862244267300000001456741757078453678_);fill-opacity:0.49;" points="102.1,111 
			90,117.4 92.3,103.9 82.6,94.4 96.1,92.4 102.1,80.2 108.2,92.4 121.7,94.4 111.9,103.9 114.2,117.4 		"/>
		
			<linearGradient id="SVGID_00000104675856476035932680000003972272906613523076_" gradientUnits="userSpaceOnUse" x1="102.12" y1="116.8344" x2="102.12" y2="75.828">
			<stop  offset="0" style="stop-color:#D484FF"/>
			<stop  offset="0.4486" style="stop-color:#906CC4"/>
			<stop  offset="0.8056" style="stop-color:#5C50C7"/>
			<stop  offset="0.8889" style="stop-color:#624BC6"/>
			<stop  offset="1" style="stop-color:#733DC4"/>
		</linearGradient>
		<polygon style="fill:url(#SVGID_00000104675856476035932680000003972272906613523076_);" points="120.3,94.9 113.7,93.9 112,93.7 
			107.7,93 102.1,81.7 96.5,93 84,94.9 93,103.7 90.9,116.2 102.1,110.3 113.3,116.2 111.2,103.7 		"/>
		<g>
			
				<linearGradient id="SVGID_00000087413382951849364820000002074427034424455827_" gradientUnits="userSpaceOnUse" x1="83.9155" y1="99.2808" x2="102.3804" y2="99.2808">
				<stop  offset="0" style="stop-color:#000000"/>
				<stop  offset="1" style="stop-color:#2B2B2B"/>
			</linearGradient>
			<polygon style="opacity:0.5;fill:url(#SVGID_00000087413382951849364820000002074427034424455827_);" points="83.9,94.9 
				102.4,99.7 93,103.7 			"/>
			
				<linearGradient id="SVGID_00000036972032758406135350000016322218789539852183_" gradientUnits="userSpaceOnUse" x1="102.3804" y1="99.2808" x2="120.1962" y2="99.2808">
				<stop  offset="0" style="stop-color:#000000"/>
				<stop  offset="0.4444" style="stop-color:#000000"/>
				<stop  offset="1" style="stop-color:#000000"/>
			</linearGradient>
			<polygon style="fill:url(#SVGID_00000036972032758406135350000016322218789539852183_);fill-opacity:0.49;" points="120.2,94.9 
				102.4,99.7 111.1,103.7 			"/>
			
				<linearGradient id="SVGID_00000102531643742758442060000014788215689036209065_" gradientUnits="userSpaceOnUse" x1="90.8445" y1="107.9366" x2="102.3804" y2="107.9366">
				<stop  offset="0" style="stop-color:#000000"/>
				<stop  offset="0.4444" style="stop-color:#000000"/>
				<stop  offset="1" style="stop-color:#000000"/>
			</linearGradient>
			<polygon style="fill:url(#SVGID_00000102531643742758442060000014788215689036209065_);fill-opacity:0.49;" points="102.1,110.3 
				102.4,99.7 90.8,116.2 			"/>
			
				<linearGradient id="SVGID_00000002343922608284091890000008814489816780196528_" gradientUnits="userSpaceOnUse" x1="102.0558" y1="107.9366" x2="113.2672" y2="107.9366">
				<stop  offset="0" style="stop-color:#705AB8"/>
				<stop  offset="1" style="stop-color:#FFFFFF"/>
			</linearGradient>
			<polygon style="opacity:0.5;fill:url(#SVGID_00000002343922608284091890000008814489816780196528_);" points="113.3,116.2 
				102.4,99.7 102.1,110.3 			"/>
			
				<linearGradient id="SVGID_00000072970516307692812460000017164696370997566399_" gradientUnits="userSpaceOnUse" x1="103.7145" y1="84.388" x2="106.2247" y2="107.3982">
				<stop  offset="0" style="stop-color:#F0F5FF"/>
				<stop  offset="1" style="stop-color:#260073"/>
			</linearGradient>
			<polygon style="opacity:0.73;fill:url(#SVGID_00000072970516307692812460000017164696370997566399_);" points="102.1,81.7 
				102.4,99.7 107.7,93 			"/>
			
				<linearGradient id="SVGID_00000008871674865406189130000015254642185730433684_" gradientUnits="userSpaceOnUse" x1="102.3804" y1="96.3633" x2="120.1962" y2="96.3633">
				<stop  offset="0" style="stop-color:#AF96FF"/>
				<stop  offset="1" style="stop-color:#4D3396"/>
			</linearGradient>
			<polygon style="opacity:0.78;fill:url(#SVGID_00000008871674865406189130000015254642185730433684_);" points="120.2,94.9 
				102.4,99.7 107.7,93 			"/>
			
				<linearGradient id="SVGID_00000064323838849537409230000012841522075084195205_" gradientUnits="userSpaceOnUse" x1="109.81" y1="83.7231" x2="112.3202" y2="106.7332">
				<stop  offset="0" style="stop-color:#FFFFFF"/>
				<stop  offset="1" style="stop-color:#000000"/>
			</linearGradient>
			<polygon style="opacity:0.35;fill:url(#SVGID_00000064323838849537409230000012841522075084195205_);" points="120.2,94.9 
				102.4,99.7 107.7,93 			"/>
			
				<linearGradient id="SVGID_00000093163665956706520240000012983712247966261177_" gradientUnits="userSpaceOnUse" x1="91.883" y1="85.6788" x2="94.3932" y2="108.6889">
				<stop  offset="0" style="stop-color:#603CC2"/>
				<stop  offset="1" style="stop-color:#3A2D4F"/>
			</linearGradient>
			<polygon style="opacity:0.5;fill:url(#SVGID_00000093163665956706520240000012983712247966261177_);" points="96.5,93 
				102.4,99.7 83.9,94.9 			"/>
			<path class="st37" d="M107.7,97c-0.9,0.8-0.1,1.3-0.1,1.3l4.8-1.3C112.3,97,109.8,95.2,107.7,97z"/>
		</g>
		
			<linearGradient id="SVGID_00000099645970030901145750000010676355215269109664_" gradientUnits="userSpaceOnUse" x1="102.12" y1="116.1855" x2="102.12" y2="110.2914">
			<stop  offset="0" style="stop-color:#FFFFFF"/>
			<stop  offset="0.4444" style="stop-color:#881DED"/>
			<stop  offset="1" style="stop-color:#262262"/>
		</linearGradient>
		<path style="opacity:0.5;fill:url(#SVGID_00000099645970030901145750000010676355215269109664_);" d="M90.9,116.2
			c0,0,8.5-4,11.2-5.1l11.2,5.1l-11.2-5.9L90.9,116.2z"/>
		
			<linearGradient id="SVGID_00000094580257385851795150000000066915712033399224_" gradientUnits="userSpaceOnUse" x1="93.1479" y1="108.4105" x2="93.1479" y2="94.8602">
			<stop  offset="0" style="stop-color:#000000;stop-opacity:0"/>
			<stop  offset="0.4444" style="stop-color:#000000;stop-opacity:0.5"/>
			<stop  offset="1" style="stop-color:#000000"/>
		</linearGradient>
		<polygon style="fill:url(#SVGID_00000094580257385851795150000000066915712033399224_);fill-opacity:0.7;" points="83.9,94.9 
			102.4,99.7 92.2,108.4 		"/>
		
			<linearGradient id="SVGID_00000057834908045938722770000009004766408284832684_" gradientUnits="userSpaceOnUse" x1="111.2882" y1="109.5722" x2="111.2882" y2="94.8602">
			<stop  offset="0" style="stop-color:#000000;stop-opacity:0"/>
			<stop  offset="0.4444" style="stop-color:#000000;stop-opacity:0.5"/>
			<stop  offset="1" style="stop-color:#000000"/>
		</linearGradient>
		<polygon style="fill:url(#SVGID_00000057834908045938722770000009004766408284832684_);fill-opacity:0.7;" points="120.2,94.9 
			102.4,99.7 112.2,109.6 		"/>
		
			<linearGradient id="SVGID_00000056401655428656379150000015159304955086191778_" gradientUnits="userSpaceOnUse" x1="102.12" y1="116.1855" x2="102.12" y2="99.6877">
			<stop  offset="0" style="stop-color:#000000;stop-opacity:0"/>
			<stop  offset="0.4444" style="stop-color:#000000;stop-opacity:0.5"/>
			<stop  offset="1" style="stop-color:#000000"/>
		</linearGradient>
		<polygon style="fill:url(#SVGID_00000056401655428656379150000015159304955086191778_);fill-opacity:0.7;" points="90.9,116.2 
			102.4,99.7 113.3,116.2 102.1,114.4 		"/>
		<path class="st42" d="M97.9,91.1c-1.2,3.3,3.4,5.6,4,4.6c0.6-1,0.2-6.7-0.5-7.5C100.6,87.4,98.4,89.7,97.9,91.1z"/>
		<path class="st43" d="M94.2,108c2.4,0.3,3.8-2.4,4.3-4.3C99.3,100.7,89.8,107.4,94.2,108z"/>
	</g>
</g>
</svg>
