<?xml version="1.0" encoding="utf-8"?>
<!-- Generator: Adobe Illustrator 26.4.1, SVG Export Plug-In . SVG Version: 6.00 Build 0)  -->
<svg version="1.1" id="Слой_1" xmlns="http://www.w3.org/2000/svg" xmlns:xlink="http://www.w3.org/1999/xlink" x="0px" y="0px"
	 viewBox="0 0 204.2 194.9" style="enable-background:new 0 0 204.2 194.9;" xml:space="preserve">
<style type="text/css">
	.st0{fill:url(#SVGID_1_);}
	.st1{fill:url(#SVGID_00000142140122750637667000000018368320935570682772_);}
	.st2{fill:url(#SVGID_00000080191122533782152810000014858085280469991103_);}
	.st3{opacity:0.1;fill:#FFFFFF;enable-background:new    ;}
	.st4{opacity:0.1;fill:url(#SVGID_00000018941577551420576240000016518614556993855368_);enable-background:new    ;}
	.st5{opacity:0.1;fill:url(#SVGID_00000119808410903727987020000012131516603183099800_);enable-background:new    ;}
	.st6{opacity:0.1;fill:url(#SVGID_00000055682644498758205040000015802028769497844145_);enable-background:new    ;}
	.st7{opacity:0.1;fill:url(#SVGID_00000142864301612854636610000013943328478989230244_);enable-background:new    ;}
	.st8{fill:url(#SVGID_00000126302562561138494940000015313688840174699169_);}
	.st9{opacity:0.5;fill:url(#SVGID_00000080892147393342547250000012496257708224788111_);enable-background:new    ;}
	.st10{fill:#E6ADFF;}
	.st11{opacity:0.1;fill:url(#SVGID_00000160879389603843632290000012573180427261278885_);enable-background:new    ;}
	.st12{display:none;}
	
		.st13{display:inline;opacity:0.5;fill:url(#SVGID_00000165945397830611971200000014997508667517871282_);enable-background:new    ;}
	.st14{display:inline;fill:url(#SVGID_00000114789348458063926880000011999648167904600453_);}
	
		.st15{display:inline;opacity:0.4;fill:url(#SVGID_00000007418564925190966410000007157936052626614928_);enable-background:new    ;}
	
		.st16{display:inline;opacity:0.5;fill:url(#SVGID_00000075133906336268095050000006618111528997906597_);enable-background:new    ;}
	.st17{display:inline;opacity:0.1;fill:#FFFFFF;enable-background:new    ;}
	.st18{display:inline;fill:#E6ADFF;}
	
		.st19{display:inline;opacity:0.5;fill:url(#SVGID_00000088113060171206936470000015454639535594145667_);enable-background:new    ;}
	.st20{display:inline;fill:url(#SVGID_00000143618720304940743100000002137591007553753788_);}
	
		.st21{display:inline;opacity:0.4;fill:url(#SVGID_00000052092265011809746810000008445080873807848349_);enable-background:new    ;}
	
		.st22{display:inline;opacity:0.5;fill:url(#SVGID_00000048479465333262579630000011941103106485697707_);enable-background:new    ;}
	.st23{opacity:0.5;fill:url(#SVGID_00000078758418214134771060000017906907605148731571_);enable-background:new    ;}
	.st24{fill:url(#SVGID_00000045617008555096655330000016976979411917200297_);}
	.st25{opacity:0.4;fill:url(#SVGID_00000007419784390051441140000008548013107944877477_);enable-background:new    ;}
	.st26{opacity:0.5;fill:url(#SVGID_00000089561062925886532670000002064938025686369684_);enable-background:new    ;}
	.st27{fill:url(#SVGID_00000088850437617657105120000014273702868628629668_);fill-opacity:0.49;}
	.st28{fill:url(#SVGID_00000075161530408500847280000010519135763302360492_);}
	.st29{opacity:0.5;fill:url(#SVGID_00000171685796485568499800000006265797388619244459_);}
	.st30{fill:url(#SVGID_00000038401767191517095420000017250392826486310535_);fill-opacity:0.49;}
	.st31{fill:url(#SVGID_00000142865950815562190840000010584221451669196477_);fill-opacity:0.49;}
	.st32{opacity:0.5;fill:url(#SVGID_00000163795801181996316770000010066517248672310694_);}
	.st33{opacity:0.73;fill:url(#SVGID_00000030478422351532540050000011358870668119749561_);}
	.st34{opacity:0.78;fill:url(#SVGID_00000134967115521976537750000015057341216768995243_);}
	.st35{opacity:0.35;fill:url(#SVGID_00000037671421860892082680000011278219591246410888_);}
	.st36{opacity:0.5;fill:url(#SVGID_00000147191050659528871740000010609534897138311078_);}
	.st37{opacity:0.26;fill:#FFFFFF;}
	.st38{opacity:0.5;fill:url(#SVGID_00000065757886907896006610000010205027408196236474_);}
	.st39{fill:url(#SVGID_00000179628115337011670720000004226540391178413461_);fill-opacity:0.7;}
	.st40{fill:url(#SVGID_00000006677973942199424260000004803911717758630049_);fill-opacity:0.7;}
	.st41{fill:url(#SVGID_00000166646650388431777420000005603918111065341317_);fill-opacity:0.7;}
	.st42{opacity:0.12;fill:#F7FFFF;}
	.st43{opacity:0.1;fill:#F7FFFF;}
	.st44{fill:url(#SVGID_00000177480050151369772430000006322630321859126405_);fill-opacity:0.49;}
	.st45{fill:url(#SVGID_00000048480169426994764910000015346495924425067649_);}
	.st46{opacity:0.5;fill:url(#SVGID_00000086676873461550628820000002788546881186552463_);}
	.st47{fill:url(#SVGID_00000183965204787989099630000008481170937959961266_);fill-opacity:0.49;}
	.st48{fill:url(#SVGID_00000119096523343354208970000002567301168455804821_);fill-opacity:0.49;}
	.st49{opacity:0.5;fill:url(#SVGID_00000037654840365545573250000002087718158975354800_);}
	.st50{opacity:0.73;fill:url(#SVGID_00000158712214509542571910000007031862179981469585_);}
	.st51{opacity:0.78;fill:url(#SVGID_00000166640986822224634350000007162705664979725460_);}
	.st52{opacity:0.35;fill:url(#SVGID_00000098908957296050195780000009622749304092601988_);}
	.st53{opacity:0.5;fill:url(#SVGID_00000045587148002473108390000006345413393405945744_);}
	.st54{opacity:0.5;fill:url(#SVGID_00000039838776175743148490000004540580960338118070_);}
	.st55{fill:url(#SVGID_00000029749068197343982880000017404951478262020485_);fill-opacity:0.7;}
	.st56{fill:url(#SVGID_00000102526609255133578730000001962454337565563302_);fill-opacity:0.7;}
	.st57{fill:url(#SVGID_00000163779046582982366070000011776580931177100707_);fill-opacity:0.7;}
	.st58{fill:url(#SVGID_00000087384634698321479390000013002388699517947549_);fill-opacity:0.49;}
	.st59{fill:url(#SVGID_00000021121519323952803810000011313359969143769265_);}
	.st60{opacity:0.5;fill:url(#SVGID_00000181768152178670842150000003456375898741623429_);}
	.st61{fill:url(#SVGID_00000042695679651859723290000017898513372130528147_);fill-opacity:0.49;}
	.st62{fill:url(#SVGID_00000170982883749652180340000007092875582056742039_);fill-opacity:0.49;}
	.st63{opacity:0.5;fill:url(#SVGID_00000049216914988489272510000001052717380792985989_);}
	.st64{opacity:0.73;fill:url(#SVGID_00000126321837638948762050000015852397775353060534_);}
	.st65{opacity:0.78;fill:url(#SVGID_00000060731398422583131860000010743372700388388743_);}
	.st66{opacity:0.35;fill:url(#SVGID_00000107552826640465995290000014585284228440511933_);}
	.st67{opacity:0.5;fill:url(#SVGID_00000084491869531575767860000011675593386748807304_);}
	.st68{opacity:0.5;fill:url(#SVGID_00000150060823202089972060000006113508906357123758_);}
	.st69{fill:url(#SVGID_00000025441295158049179040000003119202177809146513_);fill-opacity:0.7;}
	.st70{fill:url(#SVGID_00000014636543421406996160000000341118728395779713_);fill-opacity:0.7;}
	.st71{fill:url(#SVGID_00000007387259627461059090000011986219308688632969_);fill-opacity:0.7;}
</style>
<g>
	<g>
		<g>
			
				<linearGradient id="SVGID_1_" gradientUnits="userSpaceOnUse" x1="102.33" y1="30.0194" x2="102.33" y2="148.3591" gradientTransform="matrix(1 0 0 -1 0 194.8823)">
				<stop  offset="0" style="stop-color:#72466E"/>
				<stop  offset="0.4544" style="stop-color:#27283A"/>
				<stop  offset="0.8056" style="stop-color:#3E4253"/>
				<stop  offset="0.8403" style="stop-color:#424759"/>
				<stop  offset="0.8872" style="stop-color:#4F576A"/>
				<stop  offset="0.941" style="stop-color:#637187"/>
				<stop  offset="0.9997" style="stop-color:#7F94AE"/>
				<stop  offset="1" style="stop-color:#7F94AE"/>
			</linearGradient>
			<polygon class="st0" points="102.3,24.5 47.8,56 47.8,131 102.3,162.5 156.8,131 156.8,56 			"/>
			
				<linearGradient id="SVGID_00000050651911253346186020000003593973254987386507_" gradientUnits="userSpaceOnUse" x1="102.33" y1="151.8868" x2="102.33" y2="44.0777" gradientTransform="matrix(1 0 0 -1 0 194.8823)">
				<stop  offset="0" style="stop-color:#292D39"/>
				<stop  offset="0.1944" style="stop-color:#242734"/>
				<stop  offset="0.5456" style="stop-color:#2E2F42"/>
				<stop  offset="1" style="stop-color:#262738"/>
			</linearGradient>
			<polygon style="fill:url(#SVGID_00000050651911253346186020000003593973254987386507_);" points="57.7,125.3 57.7,61.6 
				102.3,35.9 147,61.6 147,125.3 102.3,151.1 			"/>
			
				<linearGradient id="SVGID_00000083780187330344997030000017528313397910347656_" gradientUnits="userSpaceOnUse" x1="102.33" y1="47.5673" x2="102.33" y2="155.2173" gradientTransform="matrix(1 0 0 -1 0 194.8823)">
				<stop  offset="0" style="stop-color:#3F3C51"/>
				<stop  offset="0.353" style="stop-color:#29293B"/>
				<stop  offset="0.5853" style="stop-color:#202132"/>
				<stop  offset="0.6419" style="stop-color:#2B2E3F"/>
				<stop  offset="0.7791" style="stop-color:#424759"/>
				<stop  offset="0.9027" style="stop-color:#4F5768"/>
				<stop  offset="1" style="stop-color:#545C6E"/>
			</linearGradient>
			<polygon style="fill:url(#SVGID_00000083780187330344997030000017528313397910347656_);" points="61,123.4 61,63.5 102.3,39.7 
				143.7,63.5 143.7,123.4 102.3,147.3 			"/>
			<path class="st3" d="M49.2,56.2c-0.7,2,5.1,4.5,9.2,3.6c4.1-0.9,42.4-23.4,43.4-25.4c0.3-0.6,0.3-8.4,0-8.4
				C100.4,25.9,49.5,55.2,49.2,56.2z"/>
			<path class="st3" d="M155.2,56.2c0.7,2-5.1,4.5-9.2,3.6s-42.1-23.6-43.4-25.4c-0.7-0.9-0.9-8.4,0-8.4
				C104,25.9,154.9,55.2,155.2,56.2z"/>
			
				<linearGradient id="SVGID_00000112609118079025285600000014326707723670569352_" gradientUnits="userSpaceOnUse" x1="52.7093" y1="51.0251" x2="52.7093" y2="116.2682" gradientTransform="matrix(1 0 0 -1 0 194.8823)">
				<stop  offset="0" style="stop-color:#705AB8"/>
				<stop  offset="1" style="stop-color:#FFFFFF"/>
			</linearGradient>
			<path style="opacity:0.1;fill:url(#SVGID_00000112609118079025285600000014326707723670569352_);enable-background:new    ;" d="
				M49.1,98.8c-0.4,2.2-1.3,30.7,0,30.9c1.3,0.2,7.2-3.8,7.5-5.7c0.3-1.9,0.4-21.3,0-23.2C56.2,98.9,49.8,95.1,49.1,98.8z"/>
			
				<linearGradient id="SVGID_00000173128531910876731750000009212850408630427056_" gradientUnits="userSpaceOnUse" x1="-4883.1592" y1="51.0251" x2="-4883.1592" y2="116.2682" gradientTransform="matrix(-1 0 0 -1 -4731.4185 194.8823)">
				<stop  offset="0" style="stop-color:#705AB8"/>
				<stop  offset="1" style="stop-color:#FFFFFF"/>
			</linearGradient>
			<path style="opacity:0.1;fill:url(#SVGID_00000173128531910876731750000009212850408630427056_);enable-background:new    ;" d="
				M155.3,98.8c0.4,2.2,1.3,30.7,0,30.9c-1.3,0.2-7.2-3.8-7.5-5.7s-0.4-21.3,0-23.2C148.3,99,154.7,95.1,155.3,98.8z"/>
			
				<linearGradient id="SVGID_00000014592799422072484190000002113645314659204272_" gradientUnits="userSpaceOnUse" x1="62.6515" y1="75.3728" x2="89.0253" y2="32.5965" gradientTransform="matrix(1 0 0 -1 0 194.8823)">
				<stop  offset="0" style="stop-color:#705AB8"/>
				<stop  offset="1" style="stop-color:#FFFFFF"/>
			</linearGradient>
			<path style="opacity:0.1;fill:url(#SVGID_00000014592799422072484190000002113645314659204272_);enable-background:new    ;" d="
				M50.5,130.5c0.7,1,49.7,30,50.5,30c0.4,0,0.9-7.2,0.9-8c0-2.2-43.4-25.3-44.2-25.5C56.6,126.7,49.8,129.5,50.5,130.5z"/>
			
				<linearGradient id="SVGID_00000062162569179965611450000000840372480520571287_" gradientUnits="userSpaceOnUse" x1="121.4079" y1="69.9782" x2="140.2984" y2="13.9635" gradientTransform="matrix(1 0 0 -1 0 194.8823)">
				<stop  offset="0" style="stop-color:#705AB8"/>
				<stop  offset="1" style="stop-color:#FFFFFF"/>
			</linearGradient>
			<path style="opacity:0.1;fill:url(#SVGID_00000062162569179965611450000000840372480520571287_);enable-background:new    ;" d="
				M154.2,131.3c-0.7,1-50.7,29.9-51.4,29.9c-0.2,0-0.2-9,0.2-9.3c1.6-1.6,43-24.7,43.7-24.9C147.9,126.7,154.9,130.3,154.2,131.3z"
				/>
			
				<linearGradient id="SVGID_00000160175616287980919860000011765739937900578432_" gradientUnits="userSpaceOnUse" x1="102.2206" y1="40.1462" x2="102.2206" y2="130.3445" gradientTransform="matrix(1 0 0 -1 0 194.8823)">
				<stop  offset="0" style="stop-color:#121117"/>
				<stop  offset="0.1464" style="stop-color:#14131B"/>
				<stop  offset="0.5853" style="stop-color:#171824"/>
				<stop  offset="1" style="stop-color:#171924"/>
			</linearGradient>
			<path style="fill:url(#SVGID_00000160175616287980919860000011765739937900578432_);" d="M62.9,121.8
				c-2.9-16.6-1.3-17.6,19.3-24.7c20.6-7,55.4-25.1,58.5-17.2s2,41.2,1.3,43.1c-0.7,1.8-36.7,22.5-39.6,22.5
				C99.4,145.6,63.2,123.7,62.9,121.8z"/>
			<path class="st3" d="M142.8,64c-0.7-0.2-38.1-21.8-40.2-21.6c-2,0.2-28,12.3-38.7,21.5c-2.8,2.4-1.8,39.1,0.8,38.4
				c2.6-0.7,4.6-15.5,33.5-23.8c28.5-8.2,40.9-1.1,44,0.2C143,79,144.5,64.4,142.8,64z"/>
			
				<linearGradient id="SVGID_00000009549812548979756300000006718857864851817104_" gradientUnits="userSpaceOnUse" x1="102.33" y1="69.5473" x2="102.33" y2="159.0173" gradientTransform="matrix(1 0 0 -1 0 194.8823)">
				<stop  offset="0" style="stop-color:#FFFFFF"/>
				<stop  offset="0.4444" style="stop-color:#361D4D"/>
				<stop  offset="1" style="stop-color:#000000"/>
			</linearGradient>
			<path style="opacity:0.5;fill:url(#SVGID_00000009549812548979756300000006718857864851817104_);enable-background:new    ;" d="
				M57.7,125.3V61.6l44.6-25.8L147,61.6v63.7l-3.3-1.9c0,0,0.2-55.4-1-57.1c-4.2-6.2-37.3-21.3-42.7-19.6
				C94.5,48.5,65.1,61,61.8,66.2C60.7,68,61,123.4,61,123.4L57.7,125.3z"/>
			<path class="st3" d="M110.7,70.3c11.1,5.1,27.9,5.2,29.4,4.2c1.5-1,2.6-8.1,0.1-9.3c-2.4-1.2-21.5-11.4-26.5-10.3
				C108.7,56,108.7,69.4,110.7,70.3z"/>
			<path class="st10" d="M121.8,47.1c0,0,23.9,13.6,24.3,15.2S147,105,147,105s0.2-41.6,0-43.3C146.8,59.9,121.8,47.1,121.8,47.1z"
				/>
			<path class="st10" d="M57.7,96.5c0,0-0.8-34.4-0.4-35.5c0.4-1.1,45-25.1,45-25.1s-43.1,24.6-44,26.2
				C57.5,63.6,57.7,96.5,57.7,96.5z"/>
			<path class="st10" d="M57.7,109c0,0-0.2,14.7,0.7,15.9c0.8,1.2,22,13.5,22,13.5s-22.9-11.9-23.2-12.6C57,125,57.7,109,57.7,109z"
				/>
			<path class="st3" d="M76.1,138.7c-1.6,0-6.1,1.8-5.1,2.9c0.8,0.9,27.8,17.2,30.9,18.4c1,0.4,0.9-6-0.4-8.1
				C100.8,151,81.1,138.7,76.1,138.7z"/>
			
				<linearGradient id="SVGID_00000144319125434229579180000009088899574896277690_" gradientUnits="userSpaceOnUse" x1="139.4708" y1="47.8473" x2="139.4708" y2="67.2709" gradientTransform="matrix(1 0 0 -1 0 194.8823)">
				<stop  offset="0" style="stop-color:#FFFFFF"/>
				<stop  offset="0.4444" style="stop-color:#881DED"/>
				<stop  offset="1" style="stop-color:#262262"/>
			</linearGradient>
			<path style="opacity:0.1;fill:url(#SVGID_00000144319125434229579180000009088899574896277690_);enable-background:new    ;" d="
				M127.5,138.9c-1.2,5.1-1,8.2-0.3,8.2c0.7,0,24.5-14.3,25.1-14.9c0.7-0.6-3.8-4.8-5.7-4.5C144.8,127.9,127.9,136.9,127.5,138.9z"
				/>
		</g>
		<g class="st12">
			
				<linearGradient id="SVGID_00000019661197132574696410000014738303753127260073_" gradientUnits="userSpaceOnUse" x1="102.115" y1="109.2473" x2="102.115" y2="67.5473" gradientTransform="matrix(1 0 0 -1 0 194.8823)">
				<stop  offset="0" style="stop-color:#4D3463"/>
				<stop  offset="0.4444" style="stop-color:#170529"/>
				<stop  offset="1" style="stop-color:#12121A"/>
			</linearGradient>
			
				<path style="display:inline;opacity:0.5;fill:url(#SVGID_00000019661197132574696410000014738303753127260073_);enable-background:new    ;" d="
				M43.3,85.6l3.7,6.2l0.8,0.5l0,1.8c0,0,3.1,1.6,9.3,5c0.2,0.1,3.9,4,3.9,4s39.8,24.1,41.3,24.1c1.9,0,41.4-24.6,41.4-24.6
				s3.1-2.6,3.4-2.8l9.8-5.1v-2.6l0.7-0.4l3.3-6.2l-58.6,34.5L43.3,85.6z"/>
			
				<linearGradient id="SVGID_00000071557949948830779250000012373871685333337519_" gradientUnits="userSpaceOnUse" x1="102.12" y1="157.8037" x2="102.12" y2="72.0356" gradientTransform="matrix(1 0 0 -1 0 194.8823)">
				<stop  offset="0" style="stop-color:#B16376"/>
				<stop  offset="0.4544" style="stop-color:#574E66"/>
				<stop  offset="0.8056" style="stop-color:#5B469C"/>
				<stop  offset="0.8623" style="stop-color:#614996"/>
				<stop  offset="0.9389" style="stop-color:#725186"/>
				<stop  offset="1" style="stop-color:#855A75"/>
			</linearGradient>
			<path style="display:inline;fill:url(#SVGID_00000071557949948830779250000012373871685333337519_);" d="M102.3,108.8L46,76
				c-2.2,5-2.7,9.6-2.7,9.6l3.7,6.2l55.3,32.1l0,0l55.3-32.1l3.3-6.2c0,0,0-4.7-2-9.6L102.3,108.8z"/>
			
				<linearGradient id="SVGID_00000149347198588982767860000007508530980895251627_" gradientUnits="userSpaceOnUse" x1="43.34" y1="90.0923" x2="160.89" y2="90.0923" gradientTransform="matrix(1 0 0 -1 0 194.8823)">
				<stop  offset="0" style="stop-color:#000000"/>
				<stop  offset="0.4544" style="stop-color:#655482"/>
				<stop  offset="0.8056" style="stop-color:#594573"/>
				<stop  offset="0.8355" style="stop-color:#54416D"/>
				<stop  offset="0.8759" style="stop-color:#47375C"/>
				<stop  offset="0.9223" style="stop-color:#31263F"/>
				<stop  offset="0.9728" style="stop-color:#130F18"/>
				<stop  offset="1" style="stop-color:#000000"/>
			</linearGradient>
			
				<polygon style="display:inline;opacity:0.4;fill:url(#SVGID_00000149347198588982767860000007508530980895251627_);enable-background:new    ;" points="
				47,91.8 43.3,85.6 102.3,120.2 160.9,85.6 157.6,91.8 102.3,123.9 			"/>
			
				<linearGradient id="SVGID_00000065053482374675589870000000161692015770473629_" gradientUnits="userSpaceOnUse" x1="-4576.4419" y1="73.6651" x2="-4572.6782" y2="118.1218" gradientTransform="matrix(-0.9942 0 0 -1 -4416.7588 194.8823)">
				<stop  offset="0" style="stop-color:#705AB8"/>
				<stop  offset="1" style="stop-color:#FFFFFF"/>
			</linearGradient>
			
				<path style="display:inline;opacity:0.5;fill:url(#SVGID_00000065053482374675589870000000161692015770473629_);enable-background:new    ;" d="
				M102.3,108.8v11.3l58.6-34.5c0,0-0.2-5.7-2-9.6L102.3,108.8z"/>
			<path class="st17" d="M48.9,78.5c-1.1,0-0.2,9.5,3.1,11.7c5.2,3.5,36.5,21.9,38.6,22c1.4,0,1.3-8.1,0.9-8.7
				C90.7,102.3,50.5,78.5,48.9,78.5z"/>
			<path class="st17" d="M119.7,99.1c-0.7,0.7-0.6,9.6,0.6,9.3c1.2-0.3,18.9-9.7,27.2-15.8c8.3-6.1,9.5-14.2,7.6-14
				C155.1,78.5,121.1,97.6,119.7,99.1z"/>
			<path class="st18" d="M73.6,103.4c0,0,26.9,16.2,28.7,16.2c1.7,0,23.2-13.1,23.2-13.1s-22.6,14.3-23.2,14.3
				C101.9,120.8,73.6,103.4,73.6,103.4z"/>
		</g>
		<g class="st12">
			
				<linearGradient id="SVGID_00000003824746627201311090000007400024572366615226_" gradientUnits="userSpaceOnUse" x1="102.115" y1="129.2473" x2="102.115" y2="87.5473" gradientTransform="matrix(1 0 0 -1 0 194.8823)">
				<stop  offset="0" style="stop-color:#4D3463"/>
				<stop  offset="0.4444" style="stop-color:#170529"/>
				<stop  offset="1" style="stop-color:#12121A"/>
			</linearGradient>
			
				<path style="display:inline;opacity:0.5;fill:url(#SVGID_00000003824746627201311090000007400024572366615226_);enable-background:new    ;" d="
				M43.3,65.6l3.7,6.2l0.8,0.5l0,1.8c0,0,3.1,1.6,9.3,5c0.2,0.1,3.9,4,3.9,4s39.8,24.1,41.3,24.1c1.9,0,41.4-24.6,41.4-24.6
				s3.1-2.6,3.4-2.8l9.8-5.1v-2.6l0.7-0.4l3.3-6.2l-58.6,34.5L43.3,65.6z"/>
			
				<linearGradient id="SVGID_00000039128158808993012390000004747994459514568579_" gradientUnits="userSpaceOnUse" x1="102.12" y1="177.8037" x2="102.12" y2="92.0356" gradientTransform="matrix(1 0 0 -1 0 194.8823)">
				<stop  offset="0" style="stop-color:#B16376"/>
				<stop  offset="0.4544" style="stop-color:#574E66"/>
				<stop  offset="0.8056" style="stop-color:#5B469C"/>
				<stop  offset="0.8623" style="stop-color:#614996"/>
				<stop  offset="0.9389" style="stop-color:#725186"/>
				<stop  offset="1" style="stop-color:#855A75"/>
			</linearGradient>
			<path style="display:inline;fill:url(#SVGID_00000039128158808993012390000004747994459514568579_);" d="M102.3,88.8L46,56
				c-2.2,5-2.7,9.6-2.7,9.6l3.7,6.2l55.3,32.1l0,0l55.3-32.1l3.3-6.2c0,0,0-4.7-2-9.6L102.3,88.8z"/>
			
				<linearGradient id="SVGID_00000152951779739379650330000001280825079768617906_" gradientUnits="userSpaceOnUse" x1="43.34" y1="110.0923" x2="160.89" y2="110.0923" gradientTransform="matrix(1 0 0 -1 0 194.8823)">
				<stop  offset="0" style="stop-color:#000000"/>
				<stop  offset="0.4544" style="stop-color:#655482"/>
				<stop  offset="0.8056" style="stop-color:#594573"/>
				<stop  offset="0.8355" style="stop-color:#54416D"/>
				<stop  offset="0.8759" style="stop-color:#47375C"/>
				<stop  offset="0.9223" style="stop-color:#31263F"/>
				<stop  offset="0.9728" style="stop-color:#130F18"/>
				<stop  offset="1" style="stop-color:#000000"/>
			</linearGradient>
			
				<polygon style="display:inline;opacity:0.4;fill:url(#SVGID_00000152951779739379650330000001280825079768617906_);enable-background:new    ;" points="
				47,71.8 43.3,65.6 102.3,100.2 160.9,65.6 157.6,71.8 102.3,103.9 			"/>
			
				<linearGradient id="SVGID_00000088116376203563054440000009635324574542251939_" gradientUnits="userSpaceOnUse" x1="-4576.4419" y1="93.6651" x2="-4572.6782" y2="138.1218" gradientTransform="matrix(-0.9942 0 0 -1 -4416.7588 194.8823)">
				<stop  offset="0" style="stop-color:#705AB8"/>
				<stop  offset="1" style="stop-color:#FFFFFF"/>
			</linearGradient>
			
				<path style="display:inline;opacity:0.5;fill:url(#SVGID_00000088116376203563054440000009635324574542251939_);enable-background:new    ;" d="
				M102.3,88.8v11.3l58.6-34.5c0,0-0.2-5.7-2-9.6L102.3,88.8z"/>
			<path class="st17" d="M48.9,58.5c-1.1,0-0.2,9.5,3.1,11.7c5.2,3.5,36.5,21.9,38.6,22c1.4,0,1.3-8.1,0.9-8.7
				C90.7,82.3,50.5,58.5,48.9,58.5z"/>
			<path class="st17" d="M119.7,79.1c-0.7,0.7-0.6,9.6,0.6,9.3c1.2-0.3,18.9-9.7,27.2-15.8c8.3-6.1,9.5-14.2,7.6-14
				C155.1,58.5,121.1,77.6,119.7,79.1z"/>
			<path class="st18" d="M73.6,83.4c0,0,26.9,16.2,28.7,16.2c1.7,0,23.2-13.1,23.2-13.1s-22.6,14.3-23.2,14.3
				C101.9,100.8,73.6,83.4,73.6,83.4z"/>
		</g>
		<g>
			
				<linearGradient id="SVGID_00000181083544731590522150000005387910496021271231_" gradientUnits="userSpaceOnUse" x1="102.115" y1="89.2473" x2="102.115" y2="47.5473" gradientTransform="matrix(1 0 0 -1 0 194.8823)">
				<stop  offset="0" style="stop-color:#4D3463"/>
				<stop  offset="0.4444" style="stop-color:#170529"/>
				<stop  offset="1" style="stop-color:#12121A"/>
			</linearGradient>
			<path style="opacity:0.5;fill:url(#SVGID_00000181083544731590522150000005387910496021271231_);enable-background:new    ;" d="
				M43.3,105.6l3.7,6.2l0.8,0.5l0,1.8c0,0,3.1,1.6,9.3,5c0.2,0.1,3.9,4,3.9,4s39.8,24.1,41.3,24.1c1.9,0,41.4-24.6,41.4-24.6
				s3.1-2.6,3.4-2.8l9.8-5.1v-2.6l0.7-0.4l3.3-6.2l-58.6,34.5L43.3,105.6z"/>
			
				<linearGradient id="SVGID_00000054227146483350912540000014461384775645703048_" gradientUnits="userSpaceOnUse" x1="102.12" y1="137.8037" x2="102.12" y2="52.0356" gradientTransform="matrix(1 0 0 -1 0 194.8823)">
				<stop  offset="0" style="stop-color:#B16376"/>
				<stop  offset="0.4544" style="stop-color:#574E66"/>
				<stop  offset="0.8056" style="stop-color:#5B469C"/>
				<stop  offset="0.8623" style="stop-color:#614996"/>
				<stop  offset="0.9389" style="stop-color:#725186"/>
				<stop  offset="1" style="stop-color:#855A75"/>
			</linearGradient>
			<path style="fill:url(#SVGID_00000054227146483350912540000014461384775645703048_);" d="M102.3,128.8L46,96
				c-2.2,5-2.7,9.6-2.7,9.6l3.7,6.2l55.3,32.1l0,0l55.3-32.1l3.3-6.2c0,0,0-4.7-2-9.6L102.3,128.8z"/>
			
				<linearGradient id="SVGID_00000058572056381056450990000002179083765697572236_" gradientUnits="userSpaceOnUse" x1="43.34" y1="70.0923" x2="160.89" y2="70.0923" gradientTransform="matrix(1 0 0 -1 0 194.8823)">
				<stop  offset="0" style="stop-color:#000000"/>
				<stop  offset="0.4544" style="stop-color:#655482"/>
				<stop  offset="0.8056" style="stop-color:#594573"/>
				<stop  offset="0.8355" style="stop-color:#54416D"/>
				<stop  offset="0.8759" style="stop-color:#47375C"/>
				<stop  offset="0.9223" style="stop-color:#31263F"/>
				<stop  offset="0.9728" style="stop-color:#130F18"/>
				<stop  offset="1" style="stop-color:#000000"/>
			</linearGradient>
			
				<polygon style="opacity:0.4;fill:url(#SVGID_00000058572056381056450990000002179083765697572236_);enable-background:new    ;" points="
				47,111.8 43.3,105.6 102.3,140.2 160.9,105.6 157.6,111.8 102.3,143.9 			"/>
			
				<linearGradient id="SVGID_00000177447480358751702040000017126338097541530777_" gradientUnits="userSpaceOnUse" x1="-4576.4419" y1="53.6651" x2="-4572.6782" y2="98.1218" gradientTransform="matrix(-0.9942 0 0 -1 -4416.7588 194.8823)">
				<stop  offset="0" style="stop-color:#705AB8"/>
				<stop  offset="1" style="stop-color:#FFFFFF"/>
			</linearGradient>
			<path style="opacity:0.5;fill:url(#SVGID_00000177447480358751702040000017126338097541530777_);enable-background:new    ;" d="
				M102.3,128.8v11.3l58.6-34.5c0,0-0.2-5.7-2-9.6L102.3,128.8z"/>
			<path class="st3" d="M48.9,98.5c-1.1,0-0.2,9.5,3.1,11.7c5.2,3.5,36.5,21.9,38.6,22c1.4,0,1.3-8.1,0.9-8.7
				C90.7,122.3,50.5,98.5,48.9,98.5z"/>
			<path class="st3" d="M119.7,119.1c-0.7,0.7-0.6,9.6,0.6,9.3c1.2-0.3,18.9-9.7,27.2-15.8c8.3-6.1,9.5-14.2,7.6-14
				C155.1,98.5,121.1,117.6,119.7,119.1z"/>
			<path class="st10" d="M73.6,123.4c0,0,26.9,16.2,28.7,16.2c1.7,0,23.2-13.1,23.2-13.1s-22.6,14.3-23.2,14.3
				C101.9,140.8,73.6,123.4,73.6,123.4z"/>
		</g>
	</g>
</g>
<g>
	<g>
		
			<linearGradient id="SVGID_00000048460995215129000080000013826634943619536292_" gradientUnits="userSpaceOnUse" x1="76.7332" y1="82.0874" x2="76.7332" y2="65.922">
			<stop  offset="0" style="stop-color:#000000"/>
			<stop  offset="0.4444" style="stop-color:#000000"/>
			<stop  offset="1" style="stop-color:#000000"/>
		</linearGradient>
		<polygon style="fill:url(#SVGID_00000048460995215129000080000013826634943619536292_);fill-opacity:0.49;" points="76.7,79.3 
			71.5,82.1 72.5,76.2 68.2,72.1 74.1,71.2 76.7,65.9 79.4,71.2 85.2,72.1 81,76.2 82,82.1 		"/>
		
			<linearGradient id="SVGID_00000037686489796020628950000001425332054040887456_" gradientUnits="userSpaceOnUse" x1="76.7332" y1="81.8474" x2="76.7332" y2="64.0234">
			<stop  offset="0" style="stop-color:#D484FF"/>
			<stop  offset="0.4486" style="stop-color:#906CC4"/>
			<stop  offset="0.8056" style="stop-color:#5C50C7"/>
			<stop  offset="0.8889" style="stop-color:#624BC6"/>
			<stop  offset="1" style="stop-color:#733DC4"/>
		</linearGradient>
		<polygon style="fill:url(#SVGID_00000037686489796020628950000001425332054040887456_);" points="84.6,72.3 81.8,71.9 81,71.8 
			79.2,71.5 76.7,66.6 74.3,71.5 68.8,72.3 72.8,76.1 71.9,81.6 76.7,79 81.6,81.6 80.7,76.1 		"/>
		<g>
			
				<linearGradient id="SVGID_00000080923921238527745070000006014655062141067164_" gradientUnits="userSpaceOnUse" x1="68.8204" y1="74.2175" x2="76.8464" y2="74.2175">
				<stop  offset="0" style="stop-color:#000000"/>
				<stop  offset="1" style="stop-color:#2B2B2B"/>
			</linearGradient>
			<polygon style="opacity:0.5;fill:url(#SVGID_00000080923921238527745070000006014655062141067164_);" points="68.8,72.3 
				76.8,74.4 72.8,76.1 			"/>
			
				<linearGradient id="SVGID_00000165916886200883892010000014538010653578491524_" gradientUnits="userSpaceOnUse" x1="76.8464" y1="74.2175" x2="84.5902" y2="74.2175">
				<stop  offset="0" style="stop-color:#000000"/>
				<stop  offset="0.4444" style="stop-color:#000000"/>
				<stop  offset="1" style="stop-color:#000000"/>
			</linearGradient>
			<polygon style="fill:url(#SVGID_00000165916886200883892010000014538010653578491524_);fill-opacity:0.49;" points="84.6,72.3 
				76.8,74.4 80.6,76.1 			"/>
			
				<linearGradient id="SVGID_00000083063431619614483240000012918734360307425427_" gradientUnits="userSpaceOnUse" x1="71.8321" y1="77.9798" x2="76.8464" y2="77.9798">
				<stop  offset="0" style="stop-color:#000000"/>
				<stop  offset="0.4444" style="stop-color:#000000"/>
				<stop  offset="1" style="stop-color:#000000"/>
			</linearGradient>
			<polygon style="fill:url(#SVGID_00000083063431619614483240000012918734360307425427_);fill-opacity:0.49;" points="76.7,79 
				76.8,74.4 71.8,81.6 			"/>
			
				<linearGradient id="SVGID_00000048472647010133282500000016386032867299557033_" gradientUnits="userSpaceOnUse" x1="76.7053" y1="77.9798" x2="81.5784" y2="77.9798">
				<stop  offset="0" style="stop-color:#705AB8"/>
				<stop  offset="1" style="stop-color:#FFFFFF"/>
			</linearGradient>
			<polygon style="opacity:0.5;fill:url(#SVGID_00000048472647010133282500000016386032867299557033_);" points="81.6,81.6 
				76.8,74.4 76.7,79 			"/>
			
				<linearGradient id="SVGID_00000061431406661347454460000017776396749247906745_" gradientUnits="userSpaceOnUse" x1="77.4263" y1="67.7441" x2="78.5173" y2="77.7458">
				<stop  offset="0" style="stop-color:#F0F5FF"/>
				<stop  offset="1" style="stop-color:#260073"/>
			</linearGradient>
			<polygon style="opacity:0.73;fill:url(#SVGID_00000061431406661347454460000017776396749247906745_);" points="76.7,66.6 
				76.8,74.4 79.1,71.5 			"/>
			
				<linearGradient id="SVGID_00000170988221805529659020000007438825535978001072_" gradientUnits="userSpaceOnUse" x1="76.8464" y1="72.9493" x2="84.5902" y2="72.9493">
				<stop  offset="0" style="stop-color:#AF96FF"/>
				<stop  offset="1" style="stop-color:#4D3396"/>
			</linearGradient>
			<polygon style="opacity:0.78;fill:url(#SVGID_00000170988221805529659020000007438825535978001072_);" points="84.6,72.3 
				76.8,74.4 79.1,71.5 			"/>
			
				<linearGradient id="SVGID_00000069366710853196131730000010255250202829081243_" gradientUnits="userSpaceOnUse" x1="80.0757" y1="67.4551" x2="81.1668" y2="77.4567">
				<stop  offset="0" style="stop-color:#FFFFFF"/>
				<stop  offset="1" style="stop-color:#000000"/>
			</linearGradient>
			<polygon style="opacity:0.35;fill:url(#SVGID_00000069366710853196131730000010255250202829081243_);" points="84.6,72.3 
				76.8,74.4 79.1,71.5 			"/>
			
				<linearGradient id="SVGID_00000175281246274764575220000018294627406172072375_" gradientUnits="userSpaceOnUse" x1="72.2835" y1="68.3052" x2="73.3746" y2="78.3068">
				<stop  offset="0" style="stop-color:#603CC2"/>
				<stop  offset="1" style="stop-color:#3A2D4F"/>
			</linearGradient>
			<polygon style="opacity:0.5;fill:url(#SVGID_00000175281246274764575220000018294627406172072375_);" points="74.3,71.5 
				76.8,74.4 68.8,72.3 			"/>
			<path class="st37" d="M79.1,73.2c-0.4,0.3-0.1,0.6-0.1,0.6l2.1-0.6C81.2,73.2,80.1,72.4,79.1,73.2z"/>
		</g>
		
			<linearGradient id="SVGID_00000183242239122849269020000010283155426653002625_" gradientUnits="userSpaceOnUse" x1="76.7332" y1="81.5653" x2="76.7332" y2="79.0034">
			<stop  offset="0" style="stop-color:#FFFFFF"/>
			<stop  offset="0.4444" style="stop-color:#881DED"/>
			<stop  offset="1" style="stop-color:#262262"/>
		</linearGradient>
		<path style="opacity:0.5;fill:url(#SVGID_00000183242239122849269020000010283155426653002625_);" d="M71.9,81.6
			c0,0,3.7-1.7,4.9-2.2l4.9,2.2L76.7,79L71.9,81.6z"/>
		
			<linearGradient id="SVGID_00000011010271370292121080000005303833088411908528_" gradientUnits="userSpaceOnUse" x1="72.8334" y1="78.1858" x2="72.8334" y2="72.296">
			<stop  offset="0" style="stop-color:#000000;stop-opacity:0"/>
			<stop  offset="0.4444" style="stop-color:#000000;stop-opacity:0.5"/>
			<stop  offset="1" style="stop-color:#000000"/>
		</linearGradient>
		<polygon style="fill:url(#SVGID_00000011010271370292121080000005303833088411908528_);fill-opacity:0.7;" points="68.8,72.3 
			76.8,74.4 72.4,78.2 		"/>
		
			<linearGradient id="SVGID_00000000192388194567219300000008383883141459110321_" gradientUnits="userSpaceOnUse" x1="80.7182" y1="78.6907" x2="80.7182" y2="72.296">
			<stop  offset="0" style="stop-color:#000000;stop-opacity:0"/>
			<stop  offset="0.4444" style="stop-color:#000000;stop-opacity:0.5"/>
			<stop  offset="1" style="stop-color:#000000"/>
		</linearGradient>
		<polygon style="fill:url(#SVGID_00000000192388194567219300000008383883141459110321_);fill-opacity:0.7;" points="84.6,72.3 
			76.8,74.4 81.1,78.7 		"/>
		
			<linearGradient id="SVGID_00000120526620305718994610000003244265893978770346_" gradientUnits="userSpaceOnUse" x1="76.7332" y1="81.5653" x2="76.7332" y2="74.3943">
			<stop  offset="0" style="stop-color:#000000;stop-opacity:0"/>
			<stop  offset="0.4444" style="stop-color:#000000;stop-opacity:0.5"/>
			<stop  offset="1" style="stop-color:#000000"/>
		</linearGradient>
		<polygon style="fill:url(#SVGID_00000120526620305718994610000003244265893978770346_);fill-opacity:0.7;" points="71.9,81.6 
			76.8,74.4 81.6,81.6 76.7,80.8 		"/>
		<path class="st42" d="M74.9,70.7c-0.5,1.4,1.5,2.4,1.7,2c0.3-0.4,0.1-2.9-0.2-3.2C76.1,69.1,75.1,70.1,74.9,70.7z"/>
		<path class="st43" d="M73.3,78c1,0.1,1.6-1.1,1.9-1.9C75.5,74.8,71.4,77.8,73.3,78z"/>
	</g>
	<g>
		
			<linearGradient id="SVGID_00000152233015678967454080000008138699734848728709_" gradientUnits="userSpaceOnUse" x1="127.5069" y1="82.0874" x2="127.5069" y2="65.922">
			<stop  offset="0" style="stop-color:#000000"/>
			<stop  offset="0.4444" style="stop-color:#000000"/>
			<stop  offset="1" style="stop-color:#000000"/>
		</linearGradient>
		<polygon style="fill:url(#SVGID_00000152233015678967454080000008138699734848728709_);fill-opacity:0.49;" points="127.5,79.3 
			122.3,82.1 123.3,76.2 119,72.1 124.9,71.2 127.5,65.9 130.1,71.2 136,72.1 131.8,76.2 132.8,82.1 		"/>
		
			<linearGradient id="SVGID_00000032642551174372634250000002844859507576138123_" gradientUnits="userSpaceOnUse" x1="127.5069" y1="81.8474" x2="127.5069" y2="64.0234">
			<stop  offset="0" style="stop-color:#D484FF"/>
			<stop  offset="0.4486" style="stop-color:#906CC4"/>
			<stop  offset="0.8056" style="stop-color:#5C50C7"/>
			<stop  offset="0.8889" style="stop-color:#624BC6"/>
			<stop  offset="1" style="stop-color:#733DC4"/>
		</linearGradient>
		<polygon style="fill:url(#SVGID_00000032642551174372634250000002844859507576138123_);" points="135.4,72.3 132.6,71.9 
			131.8,71.8 129.9,71.5 127.5,66.6 125.1,71.5 119.6,72.3 123.6,76.1 122.6,81.6 127.5,79 132.4,81.6 131.4,76.1 		"/>
		<g>
			
				<linearGradient id="SVGID_00000163039120019174913990000008835469571856735673_" gradientUnits="userSpaceOnUse" x1="119.594" y1="74.2175" x2="127.62" y2="74.2175">
				<stop  offset="0" style="stop-color:#000000"/>
				<stop  offset="1" style="stop-color:#2B2B2B"/>
			</linearGradient>
			<polygon style="opacity:0.5;fill:url(#SVGID_00000163039120019174913990000008835469571856735673_);" points="119.6,72.3 
				127.6,74.4 123.5,76.1 			"/>
			
				<linearGradient id="SVGID_00000099650254755015941590000008460132603877490824_" gradientUnits="userSpaceOnUse" x1="127.62" y1="74.2175" x2="135.3639" y2="74.2175">
				<stop  offset="0" style="stop-color:#000000"/>
				<stop  offset="0.4444" style="stop-color:#000000"/>
				<stop  offset="1" style="stop-color:#000000"/>
			</linearGradient>
			<polygon style="fill:url(#SVGID_00000099650254755015941590000008460132603877490824_);fill-opacity:0.49;" points="135.4,72.3 
				127.6,74.4 131.4,76.1 			"/>
			
				<linearGradient id="SVGID_00000057147487562102897170000008626555827166824324_" gradientUnits="userSpaceOnUse" x1="122.6058" y1="77.9798" x2="127.62" y2="77.9798">
				<stop  offset="0" style="stop-color:#000000"/>
				<stop  offset="0.4444" style="stop-color:#000000"/>
				<stop  offset="1" style="stop-color:#000000"/>
			</linearGradient>
			<polygon style="fill:url(#SVGID_00000057147487562102897170000008626555827166824324_);fill-opacity:0.49;" points="127.5,79 
				127.6,74.4 122.6,81.6 			"/>
			
				<linearGradient id="SVGID_00000023982464993291230330000007268842608674950533_" gradientUnits="userSpaceOnUse" x1="127.4789" y1="77.9798" x2="132.3521" y2="77.9798">
				<stop  offset="0" style="stop-color:#705AB8"/>
				<stop  offset="1" style="stop-color:#FFFFFF"/>
			</linearGradient>
			<polygon style="opacity:0.5;fill:url(#SVGID_00000023982464993291230330000007268842608674950533_);" points="132.4,81.6 
				127.6,74.4 127.5,79 			"/>
			
				<linearGradient id="SVGID_00000039098707920446953080000011284676551461534907_" gradientUnits="userSpaceOnUse" x1="128.2" y1="67.7441" x2="129.291" y2="77.7458">
				<stop  offset="0" style="stop-color:#F0F5FF"/>
				<stop  offset="1" style="stop-color:#260073"/>
			</linearGradient>
			<polygon style="opacity:0.73;fill:url(#SVGID_00000039098707920446953080000011284676551461534907_);" points="127.5,66.6 
				127.6,74.4 129.9,71.5 			"/>
			
				<linearGradient id="SVGID_00000005981219199519482790000000423016273025431446_" gradientUnits="userSpaceOnUse" x1="127.62" y1="72.9493" x2="135.3639" y2="72.9493">
				<stop  offset="0" style="stop-color:#AF96FF"/>
				<stop  offset="1" style="stop-color:#4D3396"/>
			</linearGradient>
			<polygon style="opacity:0.78;fill:url(#SVGID_00000005981219199519482790000000423016273025431446_);" points="135.4,72.3 
				127.6,74.4 129.9,71.5 			"/>
			
				<linearGradient id="SVGID_00000043443722017383954920000002527355208679375283_" gradientUnits="userSpaceOnUse" x1="130.8494" y1="67.4551" x2="131.9405" y2="77.4567">
				<stop  offset="0" style="stop-color:#FFFFFF"/>
				<stop  offset="1" style="stop-color:#000000"/>
			</linearGradient>
			<polygon style="opacity:0.35;fill:url(#SVGID_00000043443722017383954920000002527355208679375283_);" points="135.4,72.3 
				127.6,74.4 129.9,71.5 			"/>
			
				<linearGradient id="SVGID_00000070802299879578396360000008829896351995541424_" gradientUnits="userSpaceOnUse" x1="123.0572" y1="68.3052" x2="124.1483" y2="78.3068">
				<stop  offset="0" style="stop-color:#603CC2"/>
				<stop  offset="1" style="stop-color:#3A2D4F"/>
			</linearGradient>
			<polygon style="opacity:0.5;fill:url(#SVGID_00000070802299879578396360000008829896351995541424_);" points="125,71.5 
				127.6,74.4 119.6,72.3 			"/>
			<path class="st37" d="M129.9,73.2c-0.4,0.3-0.1,0.6-0.1,0.6l2.1-0.6C131.9,73.2,130.9,72.4,129.9,73.2z"/>
		</g>
		
			<linearGradient id="SVGID_00000131329864540146309080000007631567378458952357_" gradientUnits="userSpaceOnUse" x1="127.5069" y1="81.5653" x2="127.5069" y2="79.0034">
			<stop  offset="0" style="stop-color:#FFFFFF"/>
			<stop  offset="0.4444" style="stop-color:#881DED"/>
			<stop  offset="1" style="stop-color:#262262"/>
		</linearGradient>
		<path style="opacity:0.5;fill:url(#SVGID_00000131329864540146309080000007631567378458952357_);" d="M122.6,81.6
			c0,0,3.7-1.7,4.9-2.2l4.9,2.2l-4.9-2.6L122.6,81.6z"/>
		
			<linearGradient id="SVGID_00000013156852358942287220000016499473652290876308_" gradientUnits="userSpaceOnUse" x1="123.607" y1="78.1858" x2="123.607" y2="72.296">
			<stop  offset="0" style="stop-color:#000000;stop-opacity:0"/>
			<stop  offset="0.4444" style="stop-color:#000000;stop-opacity:0.5"/>
			<stop  offset="1" style="stop-color:#000000"/>
		</linearGradient>
		<polygon style="fill:url(#SVGID_00000013156852358942287220000016499473652290876308_);fill-opacity:0.7;" points="119.6,72.3 
			127.6,74.4 123.2,78.2 		"/>
		
			<linearGradient id="SVGID_00000128472808570816724420000018310606714133493649_" gradientUnits="userSpaceOnUse" x1="131.4919" y1="78.6907" x2="131.4919" y2="72.296">
			<stop  offset="0" style="stop-color:#000000;stop-opacity:0"/>
			<stop  offset="0.4444" style="stop-color:#000000;stop-opacity:0.5"/>
			<stop  offset="1" style="stop-color:#000000"/>
		</linearGradient>
		<polygon style="fill:url(#SVGID_00000128472808570816724420000018310606714133493649_);fill-opacity:0.7;" points="135.4,72.3 
			127.6,74.4 131.9,78.7 		"/>
		
			<linearGradient id="SVGID_00000017507056201579290650000001921519891684601754_" gradientUnits="userSpaceOnUse" x1="127.5069" y1="81.5653" x2="127.5069" y2="74.3943">
			<stop  offset="0" style="stop-color:#000000;stop-opacity:0"/>
			<stop  offset="0.4444" style="stop-color:#000000;stop-opacity:0.5"/>
			<stop  offset="1" style="stop-color:#000000"/>
		</linearGradient>
		<polygon style="fill:url(#SVGID_00000017507056201579290650000001921519891684601754_);fill-opacity:0.7;" points="122.6,81.6 
			127.6,74.4 132.4,81.6 127.5,80.8 		"/>
		<path class="st42" d="M125.7,70.7c-0.5,1.4,1.5,2.4,1.7,2c0.3-0.4,0.1-2.9-0.2-3.2C126.8,69.1,125.9,70.1,125.7,70.7z"/>
		<path class="st43" d="M124.1,78c1,0.1,1.6-1.1,1.9-1.9C126.3,74.8,122.2,77.8,124.1,78z"/>
	</g>
	<g>
		
			<linearGradient id="SVGID_00000024708455119697329610000002438630615319152553_" gradientUnits="userSpaceOnUse" x1="102.12" y1="110.3867" x2="102.12" y2="73.1959">
			<stop  offset="0" style="stop-color:#000000"/>
			<stop  offset="0.4444" style="stop-color:#000000"/>
			<stop  offset="1" style="stop-color:#000000"/>
		</linearGradient>
		<polygon style="fill:url(#SVGID_00000024708455119697329610000002438630615319152553_);fill-opacity:0.49;" points="102.1,104 
			90,110.4 92.3,96.9 82.6,87.4 96.1,85.4 102.1,73.2 108.2,85.4 121.7,87.4 111.9,96.9 114.2,110.4 		"/>
		
			<linearGradient id="SVGID_00000080905894715453386030000001867393958000723848_" gradientUnits="userSpaceOnUse" x1="102.12" y1="109.8344" x2="102.12" y2="68.828">
			<stop  offset="0" style="stop-color:#D484FF"/>
			<stop  offset="0.4486" style="stop-color:#906CC4"/>
			<stop  offset="0.8056" style="stop-color:#5C50C7"/>
			<stop  offset="0.8889" style="stop-color:#624BC6"/>
			<stop  offset="1" style="stop-color:#733DC4"/>
		</linearGradient>
		<polygon style="fill:url(#SVGID_00000080905894715453386030000001867393958000723848_);" points="120.3,87.9 113.7,86.9 112,86.7 
			107.7,86 102.1,74.7 96.5,86 84,87.9 93,96.7 90.9,109.2 102.1,103.3 113.3,109.2 111.2,96.7 		"/>
		<g>
			
				<linearGradient id="SVGID_00000037680221605226201610000011168552881271490495_" gradientUnits="userSpaceOnUse" x1="83.9155" y1="92.2808" x2="102.3804" y2="92.2808">
				<stop  offset="0" style="stop-color:#000000"/>
				<stop  offset="1" style="stop-color:#2B2B2B"/>
			</linearGradient>
			<polygon style="opacity:0.5;fill:url(#SVGID_00000037680221605226201610000011168552881271490495_);" points="83.9,87.9 
				102.4,92.7 93,96.7 			"/>
			
				<linearGradient id="SVGID_00000119823243629507537410000002070987360992433845_" gradientUnits="userSpaceOnUse" x1="102.3804" y1="92.2808" x2="120.1962" y2="92.2808">
				<stop  offset="0" style="stop-color:#000000"/>
				<stop  offset="0.4444" style="stop-color:#000000"/>
				<stop  offset="1" style="stop-color:#000000"/>
			</linearGradient>
			<polygon style="fill:url(#SVGID_00000119823243629507537410000002070987360992433845_);fill-opacity:0.49;" points="120.2,87.9 
				102.4,92.7 111.1,96.7 			"/>
			
				<linearGradient id="SVGID_00000125584152429948856550000014271896982013228198_" gradientUnits="userSpaceOnUse" x1="90.8445" y1="100.9366" x2="102.3804" y2="100.9366">
				<stop  offset="0" style="stop-color:#000000"/>
				<stop  offset="0.4444" style="stop-color:#000000"/>
				<stop  offset="1" style="stop-color:#000000"/>
			</linearGradient>
			<polygon style="fill:url(#SVGID_00000125584152429948856550000014271896982013228198_);fill-opacity:0.49;" points="102.1,103.3 
				102.4,92.7 90.8,109.2 			"/>
			
				<linearGradient id="SVGID_00000049941511060147995470000000148240111715351701_" gradientUnits="userSpaceOnUse" x1="102.0558" y1="100.9366" x2="113.2672" y2="100.9366">
				<stop  offset="0" style="stop-color:#705AB8"/>
				<stop  offset="1" style="stop-color:#FFFFFF"/>
			</linearGradient>
			<polygon style="opacity:0.5;fill:url(#SVGID_00000049941511060147995470000000148240111715351701_);" points="113.3,109.2 
				102.4,92.7 102.1,103.3 			"/>
			
				<linearGradient id="SVGID_00000123422397184600626380000011439246221642342317_" gradientUnits="userSpaceOnUse" x1="103.7145" y1="77.388" x2="106.2247" y2="100.3982">
				<stop  offset="0" style="stop-color:#F0F5FF"/>
				<stop  offset="1" style="stop-color:#260073"/>
			</linearGradient>
			<polygon style="opacity:0.73;fill:url(#SVGID_00000123422397184600626380000011439246221642342317_);" points="102.1,74.7 
				102.4,92.7 107.7,86 			"/>
			
				<linearGradient id="SVGID_00000017475970256824632470000018195043220699029690_" gradientUnits="userSpaceOnUse" x1="102.3804" y1="89.3633" x2="120.1962" y2="89.3633">
				<stop  offset="0" style="stop-color:#AF96FF"/>
				<stop  offset="1" style="stop-color:#4D3396"/>
			</linearGradient>
			<polygon style="opacity:0.78;fill:url(#SVGID_00000017475970256824632470000018195043220699029690_);" points="120.2,87.9 
				102.4,92.7 107.7,86 			"/>
			
				<linearGradient id="SVGID_00000085970783459287140050000008741281551696986041_" gradientUnits="userSpaceOnUse" x1="109.81" y1="76.7231" x2="112.3202" y2="99.7332">
				<stop  offset="0" style="stop-color:#FFFFFF"/>
				<stop  offset="1" style="stop-color:#000000"/>
			</linearGradient>
			<polygon style="opacity:0.35;fill:url(#SVGID_00000085970783459287140050000008741281551696986041_);" points="120.2,87.9 
				102.4,92.7 107.7,86 			"/>
			
				<linearGradient id="SVGID_00000168829201893891374660000017560319359524720008_" gradientUnits="userSpaceOnUse" x1="91.883" y1="78.6788" x2="94.3932" y2="101.6889">
				<stop  offset="0" style="stop-color:#603CC2"/>
				<stop  offset="1" style="stop-color:#3A2D4F"/>
			</linearGradient>
			<polygon style="opacity:0.5;fill:url(#SVGID_00000168829201893891374660000017560319359524720008_);" points="96.5,86 
				102.4,92.7 83.9,87.9 			"/>
			<path class="st37" d="M107.7,90c-0.9,0.8-0.1,1.3-0.1,1.3l4.8-1.3C112.3,90,109.8,88.2,107.7,90z"/>
		</g>
		
			<linearGradient id="SVGID_00000016075053836890219890000005416649383784349108_" gradientUnits="userSpaceOnUse" x1="102.12" y1="109.1855" x2="102.12" y2="103.2914">
			<stop  offset="0" style="stop-color:#FFFFFF"/>
			<stop  offset="0.4444" style="stop-color:#881DED"/>
			<stop  offset="1" style="stop-color:#262262"/>
		</linearGradient>
		<path style="opacity:0.5;fill:url(#SVGID_00000016075053836890219890000005416649383784349108_);" d="M90.9,109.2
			c0,0,8.5-4,11.2-5.1l11.2,5.1l-11.2-5.9L90.9,109.2z"/>
		
			<linearGradient id="SVGID_00000161613391452365876560000013681103952556756143_" gradientUnits="userSpaceOnUse" x1="93.1479" y1="101.4105" x2="93.1479" y2="87.8602">
			<stop  offset="0" style="stop-color:#000000;stop-opacity:0"/>
			<stop  offset="0.4444" style="stop-color:#000000;stop-opacity:0.5"/>
			<stop  offset="1" style="stop-color:#000000"/>
		</linearGradient>
		<polygon style="fill:url(#SVGID_00000161613391452365876560000013681103952556756143_);fill-opacity:0.7;" points="83.9,87.9 
			102.4,92.7 92.2,101.4 		"/>
		
			<linearGradient id="SVGID_00000075152601945034209360000016184236108987098762_" gradientUnits="userSpaceOnUse" x1="111.2882" y1="102.5722" x2="111.2882" y2="87.8602">
			<stop  offset="0" style="stop-color:#000000;stop-opacity:0"/>
			<stop  offset="0.4444" style="stop-color:#000000;stop-opacity:0.5"/>
			<stop  offset="1" style="stop-color:#000000"/>
		</linearGradient>
		<polygon style="fill:url(#SVGID_00000075152601945034209360000016184236108987098762_);fill-opacity:0.7;" points="120.2,87.9 
			102.4,92.7 112.2,102.6 		"/>
		
			<linearGradient id="SVGID_00000181769800679685074030000016233029339802520450_" gradientUnits="userSpaceOnUse" x1="102.12" y1="109.1855" x2="102.12" y2="92.6877">
			<stop  offset="0" style="stop-color:#000000;stop-opacity:0"/>
			<stop  offset="0.4444" style="stop-color:#000000;stop-opacity:0.5"/>
			<stop  offset="1" style="stop-color:#000000"/>
		</linearGradient>
		<polygon style="fill:url(#SVGID_00000181769800679685074030000016233029339802520450_);fill-opacity:0.7;" points="90.9,109.2 
			102.4,92.7 113.3,109.2 102.1,107.4 		"/>
		<path class="st42" d="M97.9,84.1c-1.2,3.3,3.4,5.6,4,4.6c0.6-1,0.2-6.7-0.5-7.5C100.6,80.4,98.4,82.7,97.9,84.1z"/>
		<path class="st43" d="M94.2,101c2.4,0.3,3.8-2.4,4.3-4.3C99.3,93.7,89.8,100.4,94.2,101z"/>
	</g>
</g>
</svg>
