<?xml version="1.0" encoding="utf-8"?>
<!-- Generator: Adobe Illustrator 26.4.1, SVG Export Plug-In . SVG Version: 6.00 Build 0)  -->
<svg version="1.1" id="Слой_1" xmlns="http://www.w3.org/2000/svg" xmlns:xlink="http://www.w3.org/1999/xlink" x="0px" y="0px"
	 viewBox="0 0 204.2 194.9" style="enable-background:new 0 0 204.2 194.9;" xml:space="preserve">
<style type="text/css">
	.st0{fill:url(#SVGID_1_);}
	.st1{fill:url(#SVGID_00000104672819242371867080000015174935805139572363_);}
	.st2{fill:url(#SVGID_00000137120608213076878680000007138349244838514331_);}
	.st3{opacity:0.1;fill:#FFFFFF;enable-background:new    ;}
	.st4{opacity:0.1;fill:url(#SVGID_00000016044582223107891550000007396142258430134442_);enable-background:new    ;}
	.st5{opacity:0.1;fill:url(#SVGID_00000003797202177189144570000014430354576439861920_);enable-background:new    ;}
	.st6{opacity:0.1;fill:url(#SVGID_00000051379286225409328610000003817189823822340253_);enable-background:new    ;}
	.st7{opacity:0.1;fill:url(#SVGID_00000132802474728472457530000006482754460593710230_);enable-background:new    ;}
	.st8{fill:url(#SVGID_00000165922636111820769350000008207884501478977450_);}
	.st9{opacity:0.5;fill:url(#SVGID_00000132073712443040845750000009962269806504350878_);enable-background:new    ;}
	.st10{fill:#E6ADFF;}
	.st11{opacity:0.1;fill:url(#SVGID_00000142158696647707920750000003518880783149770647_);enable-background:new    ;}
	.st12{opacity:0.5;fill:url(#SVGID_00000011746636530648423130000006138781834656376204_);enable-background:new    ;}
	.st13{fill:url(#SVGID_00000098218759541447929840000012432193398847413662_);}
	.st14{opacity:0.4;fill:url(#SVGID_00000178911357341150584040000009888094326483102849_);enable-background:new    ;}
	.st15{opacity:0.5;fill:url(#SVGID_00000048475437173320265460000007020827765632541071_);enable-background:new    ;}
	.st16{display:none;}
	
		.st17{display:inline;opacity:0.5;fill:url(#SVGID_00000006697387256587090110000005646986121520784813_);enable-background:new    ;}
	.st18{display:inline;fill:url(#SVGID_00000051364970587082209030000004356127736683879344_);}
	
		.st19{display:inline;opacity:0.4;fill:url(#SVGID_00000121984784627598775800000004856737049194176393_);enable-background:new    ;}
	
		.st20{display:inline;opacity:0.5;fill:url(#SVGID_00000113316162734133583820000017862707917837442467_);enable-background:new    ;}
	.st21{display:inline;opacity:0.1;fill:#FFFFFF;enable-background:new    ;}
	.st22{display:inline;fill:#E6ADFF;}
	.st23{opacity:0.5;fill:url(#SVGID_00000027562115493810382340000015707808474953012660_);enable-background:new    ;}
	.st24{fill:url(#SVGID_00000062897868016978854530000009879796097177123986_);}
	.st25{opacity:0.4;fill:url(#SVGID_00000131344086554487491480000012448855037982095274_);enable-background:new    ;}
	.st26{opacity:0.5;fill:url(#SVGID_00000072270773402788558470000015531479316669226151_);enable-background:new    ;}
	.st27{fill:url(#SVGID_00000124156048008131256860000015349133749634917299_);fill-opacity:0.49;}
	.st28{fill:url(#SVGID_00000011012837340592769950000011338047017700819895_);}
	.st29{opacity:0.5;fill:url(#SVGID_00000069387181228238163030000003193297638538364071_);}
	.st30{fill:url(#SVGID_00000100353775273493207850000013487576412758499511_);fill-opacity:0.49;}
	.st31{fill:url(#SVGID_00000134930362404722952100000011202252695712460201_);fill-opacity:0.49;}
	.st32{opacity:0.5;fill:url(#SVGID_00000110447202559650135190000015932253094801700489_);}
	.st33{opacity:0.73;fill:url(#SVGID_00000062907620648052439620000008272652618931355778_);}
	.st34{opacity:0.78;fill:url(#SVGID_00000018202731143859839590000014078430710246110398_);}
	.st35{opacity:0.35;fill:url(#SVGID_00000165214793400212825780000003788255281345699261_);}
	.st36{opacity:0.5;fill:url(#SVGID_00000043458170192553704270000008389392462314706623_);}
	.st37{opacity:0.26;fill:#FFFFFF;}
	.st38{opacity:0.5;fill:url(#SVGID_00000142870432817101701110000003380804777965544087_);}
	.st39{fill:url(#SVGID_00000101789725054736099090000003282671135518719905_);fill-opacity:0.7;}
	.st40{fill:url(#SVGID_00000175291922337655442750000005923192563418653866_);fill-opacity:0.7;}
	.st41{fill:url(#SVGID_00000014623581920212259310000004526729869908220567_);fill-opacity:0.7;}
	.st42{opacity:0.12;fill:#F7FFFF;}
	.st43{opacity:0.1;fill:#F7FFFF;}
	.st44{fill:url(#SVGID_00000040573823290702948050000012137555834861608087_);fill-opacity:0.49;}
	.st45{fill:url(#SVGID_00000129898342002579750540000001976844611443914880_);}
	.st46{opacity:0.5;fill:url(#SVGID_00000043437093256421458340000004948707325043677084_);}
	.st47{fill:url(#SVGID_00000122717343845567960510000005709526804391282094_);fill-opacity:0.49;}
	.st48{fill:url(#SVGID_00000067223590252420114290000012549948151805633421_);fill-opacity:0.49;}
	.st49{opacity:0.5;fill:url(#SVGID_00000016071958723786018370000002954628705925133479_);}
	.st50{opacity:0.73;fill:url(#SVGID_00000029724523213262935220000001233930622527497396_);}
	.st51{opacity:0.78;fill:url(#SVGID_00000142868004823267571270000004390100739933120414_);}
	.st52{opacity:0.35;fill:url(#SVGID_00000074405323625852166750000003447358475195571621_);}
	.st53{opacity:0.5;fill:url(#SVGID_00000176026012838442272610000007775712203601135019_);}
	.st54{opacity:0.5;fill:url(#SVGID_00000109742375347899566590000003481734772729311668_);}
	.st55{fill:url(#SVGID_00000041992913088128317830000015181915291544927157_);fill-opacity:0.7;}
	.st56{fill:url(#SVGID_00000131369668196045795230000005986916644878930075_);fill-opacity:0.7;}
	.st57{fill:url(#SVGID_00000142855867425594145010000001578394131601632658_);fill-opacity:0.7;}
	.st58{fill:url(#SVGID_00000065039096359955756430000007232262771813099174_);fill-opacity:0.49;}
	.st59{fill:url(#SVGID_00000042009555165685411000000017752063561871975102_);}
	.st60{opacity:0.5;fill:url(#SVGID_00000181809864215035078490000000293162775514234791_);}
	.st61{fill:url(#SVGID_00000088116579356757303380000006372346020346112152_);fill-opacity:0.49;}
	.st62{fill:url(#SVGID_00000070797994368360896380000001201022527270039441_);fill-opacity:0.49;}
	.st63{opacity:0.5;fill:url(#SVGID_00000049939465198579153270000010763461654066390207_);}
	.st64{opacity:0.73;fill:url(#SVGID_00000029733465610611796850000003617626685889339289_);}
	.st65{opacity:0.78;fill:url(#SVGID_00000061431663828677731860000006777002239668741524_);}
	.st66{opacity:0.35;fill:url(#SVGID_00000062891210033489410660000007365740654429234852_);}
	.st67{opacity:0.5;fill:url(#SVGID_00000029041779454385062870000017905929520360117399_);}
	.st68{opacity:0.5;fill:url(#SVGID_00000026123228563659984490000010037433087375513240_);}
	.st69{fill:url(#SVGID_00000062166567502916524940000002322864813580533931_);fill-opacity:0.7;}
	.st70{fill:url(#SVGID_00000102545674047834058550000017613350100363888546_);fill-opacity:0.7;}
	.st71{fill:url(#SVGID_00000072976571976249353910000010569524005581632385_);fill-opacity:0.7;}
</style>
<g>
	<g>
		<g>
			
				<linearGradient id="SVGID_1_" gradientUnits="userSpaceOnUse" x1="102.33" y1="30.0194" x2="102.33" y2="148.3591" gradientTransform="matrix(1 0 0 -1 0 194.8823)">
				<stop  offset="0" style="stop-color:#72466E"/>
				<stop  offset="0.4544" style="stop-color:#27283A"/>
				<stop  offset="0.8056" style="stop-color:#3E4253"/>
				<stop  offset="0.8403" style="stop-color:#424759"/>
				<stop  offset="0.8872" style="stop-color:#4F576A"/>
				<stop  offset="0.941" style="stop-color:#637187"/>
				<stop  offset="0.9997" style="stop-color:#7F94AE"/>
				<stop  offset="1" style="stop-color:#7F94AE"/>
			</linearGradient>
			<polygon class="st0" points="102.3,24.5 47.8,56 47.8,131 102.3,162.5 156.8,131 156.8,56 			"/>
			
				<linearGradient id="SVGID_00000029728080875128007140000007558542821326389408_" gradientUnits="userSpaceOnUse" x1="102.33" y1="151.8868" x2="102.33" y2="44.0777" gradientTransform="matrix(1 0 0 -1 0 194.8823)">
				<stop  offset="0" style="stop-color:#292D39"/>
				<stop  offset="0.1944" style="stop-color:#242734"/>
				<stop  offset="0.5456" style="stop-color:#2E2F42"/>
				<stop  offset="1" style="stop-color:#262738"/>
			</linearGradient>
			<polygon style="fill:url(#SVGID_00000029728080875128007140000007558542821326389408_);" points="57.7,125.3 57.7,61.6 
				102.3,35.9 147,61.6 147,125.3 102.3,151.1 			"/>
			
				<linearGradient id="SVGID_00000125571201194929323480000009048288656333624755_" gradientUnits="userSpaceOnUse" x1="102.33" y1="47.5673" x2="102.33" y2="155.2173" gradientTransform="matrix(1 0 0 -1 0 194.8823)">
				<stop  offset="0" style="stop-color:#3F3C51"/>
				<stop  offset="0.353" style="stop-color:#29293B"/>
				<stop  offset="0.5853" style="stop-color:#202132"/>
				<stop  offset="0.6419" style="stop-color:#2B2E3F"/>
				<stop  offset="0.7791" style="stop-color:#424759"/>
				<stop  offset="0.9027" style="stop-color:#4F5768"/>
				<stop  offset="1" style="stop-color:#545C6E"/>
			</linearGradient>
			<polygon style="fill:url(#SVGID_00000125571201194929323480000009048288656333624755_);" points="61,123.4 61,63.5 102.3,39.7 
				143.7,63.5 143.7,123.4 102.3,147.3 			"/>
			<path class="st3" d="M49.2,56.2c-0.7,2,5.1,4.5,9.2,3.6c4.1-0.9,42.4-23.4,43.4-25.4c0.3-0.6,0.3-8.4,0-8.4
				C100.4,25.9,49.5,55.2,49.2,56.2z"/>
			<path class="st3" d="M155.2,56.2c0.7,2-5.1,4.5-9.2,3.6s-42.1-23.6-43.4-25.4c-0.7-0.9-0.9-8.4,0-8.4
				C104,25.9,154.9,55.2,155.2,56.2z"/>
			
				<linearGradient id="SVGID_00000064356166070935651080000016769502580474644130_" gradientUnits="userSpaceOnUse" x1="52.7093" y1="51.0251" x2="52.7093" y2="116.2682" gradientTransform="matrix(1 0 0 -1 0 194.8823)">
				<stop  offset="0" style="stop-color:#705AB8"/>
				<stop  offset="1" style="stop-color:#FFFFFF"/>
			</linearGradient>
			<path style="opacity:0.1;fill:url(#SVGID_00000064356166070935651080000016769502580474644130_);enable-background:new    ;" d="
				M49.1,98.8c-0.4,2.2-1.3,30.7,0,30.9c1.3,0.2,7.2-3.8,7.5-5.7c0.3-1.9,0.4-21.3,0-23.2C56.2,98.9,49.8,95.1,49.1,98.8z"/>
			
				<linearGradient id="SVGID_00000124883909828822438750000016738358528041076363_" gradientUnits="userSpaceOnUse" x1="-4883.1592" y1="51.0251" x2="-4883.1592" y2="116.2682" gradientTransform="matrix(-1 0 0 -1 -4731.4185 194.8823)">
				<stop  offset="0" style="stop-color:#705AB8"/>
				<stop  offset="1" style="stop-color:#FFFFFF"/>
			</linearGradient>
			<path style="opacity:0.1;fill:url(#SVGID_00000124883909828822438750000016738358528041076363_);enable-background:new    ;" d="
				M155.3,98.8c0.4,2.2,1.3,30.7,0,30.9c-1.3,0.2-7.2-3.8-7.5-5.7s-0.4-21.3,0-23.2C148.3,99,154.7,95.1,155.3,98.8z"/>
			
				<linearGradient id="SVGID_00000101100054869524778100000005221943511657633965_" gradientUnits="userSpaceOnUse" x1="62.6515" y1="75.3728" x2="89.0253" y2="32.5965" gradientTransform="matrix(1 0 0 -1 0 194.8823)">
				<stop  offset="0" style="stop-color:#705AB8"/>
				<stop  offset="1" style="stop-color:#FFFFFF"/>
			</linearGradient>
			<path style="opacity:0.1;fill:url(#SVGID_00000101100054869524778100000005221943511657633965_);enable-background:new    ;" d="
				M50.5,130.5c0.7,1,49.7,30,50.5,30c0.4,0,0.9-7.2,0.9-8c0-2.2-43.4-25.3-44.2-25.5C56.6,126.7,49.8,129.5,50.5,130.5z"/>
			
				<linearGradient id="SVGID_00000177486350988029886220000015406598194831055035_" gradientUnits="userSpaceOnUse" x1="121.4079" y1="69.9782" x2="140.2984" y2="13.9635" gradientTransform="matrix(1 0 0 -1 0 194.8823)">
				<stop  offset="0" style="stop-color:#705AB8"/>
				<stop  offset="1" style="stop-color:#FFFFFF"/>
			</linearGradient>
			<path style="opacity:0.1;fill:url(#SVGID_00000177486350988029886220000015406598194831055035_);enable-background:new    ;" d="
				M154.2,131.3c-0.7,1-50.7,29.9-51.4,29.9c-0.2,0-0.2-9,0.2-9.3c1.6-1.6,43-24.7,43.7-24.9C147.9,126.7,154.9,130.3,154.2,131.3z"
				/>
			
				<linearGradient id="SVGID_00000034775912121183189430000008704078605266891691_" gradientUnits="userSpaceOnUse" x1="102.2206" y1="40.1462" x2="102.2206" y2="130.3445" gradientTransform="matrix(1 0 0 -1 0 194.8823)">
				<stop  offset="0" style="stop-color:#121117"/>
				<stop  offset="0.1464" style="stop-color:#14131B"/>
				<stop  offset="0.5853" style="stop-color:#171824"/>
				<stop  offset="1" style="stop-color:#171924"/>
			</linearGradient>
			<path style="fill:url(#SVGID_00000034775912121183189430000008704078605266891691_);" d="M62.9,121.8
				c-2.9-16.6-1.3-17.6,19.3-24.7c20.6-7,55.4-25.1,58.5-17.2s2,41.2,1.3,43.1c-0.7,1.8-36.7,22.5-39.6,22.5
				C99.4,145.6,63.2,123.7,62.9,121.8z"/>
			<path class="st3" d="M142.8,64c-0.7-0.2-38.1-21.8-40.2-21.6c-2,0.2-28,12.3-38.7,21.5c-2.8,2.4-1.8,39.1,0.8,38.4
				c2.6-0.7,4.6-15.5,33.5-23.8c28.5-8.2,40.9-1.1,44,0.2C143,79,144.5,64.4,142.8,64z"/>
			
				<linearGradient id="SVGID_00000061460998429690036540000004982074465154535073_" gradientUnits="userSpaceOnUse" x1="102.33" y1="69.5473" x2="102.33" y2="159.0173" gradientTransform="matrix(1 0 0 -1 0 194.8823)">
				<stop  offset="0" style="stop-color:#FFFFFF"/>
				<stop  offset="0.4444" style="stop-color:#361D4D"/>
				<stop  offset="1" style="stop-color:#000000"/>
			</linearGradient>
			<path style="opacity:0.5;fill:url(#SVGID_00000061460998429690036540000004982074465154535073_);enable-background:new    ;" d="
				M57.7,125.3V61.6l44.6-25.8L147,61.6v63.7l-3.3-1.9c0,0,0.2-55.4-1-57.1c-4.2-6.2-37.3-21.3-42.7-19.6
				C94.5,48.5,65.1,61,61.8,66.2C60.7,68,61,123.4,61,123.4L57.7,125.3z"/>
			<path class="st3" d="M110.7,70.3c11.1,5.1,27.9,5.2,29.4,4.2c1.5-1,2.6-8.1,0.1-9.3c-2.4-1.2-21.5-11.4-26.5-10.3
				C108.7,56,108.7,69.4,110.7,70.3z"/>
			<path class="st10" d="M121.8,47.1c0,0,23.9,13.6,24.3,15.2S147,105,147,105s0.2-41.6,0-43.3C146.8,59.9,121.8,47.1,121.8,47.1z"
				/>
			<path class="st10" d="M57.7,96.5c0,0-0.8-34.4-0.4-35.5c0.4-1.1,45-25.1,45-25.1s-43.1,24.6-44,26.2
				C57.5,63.6,57.7,96.5,57.7,96.5z"/>
			<path class="st10" d="M57.7,109c0,0-0.2,14.7,0.7,15.9c0.8,1.2,22,13.5,22,13.5s-22.9-11.9-23.2-12.6C57,125,57.7,109,57.7,109z"
				/>
			<path class="st3" d="M76.1,138.7c-1.6,0-6.1,1.8-5.1,2.9c0.8,0.9,27.8,17.2,30.9,18.4c1,0.4,0.9-6-0.4-8.1
				C100.8,151,81.1,138.7,76.1,138.7z"/>
			
				<linearGradient id="SVGID_00000027577606589645916780000007664843605080056962_" gradientUnits="userSpaceOnUse" x1="139.4708" y1="47.8473" x2="139.4708" y2="67.2709" gradientTransform="matrix(1 0 0 -1 0 194.8823)">
				<stop  offset="0" style="stop-color:#FFFFFF"/>
				<stop  offset="0.4444" style="stop-color:#881DED"/>
				<stop  offset="1" style="stop-color:#262262"/>
			</linearGradient>
			<path style="opacity:0.1;fill:url(#SVGID_00000027577606589645916780000007664843605080056962_);enable-background:new    ;" d="
				M127.5,138.9c-1.2,5.1-1,8.2-0.3,8.2c0.7,0,24.5-14.3,25.1-14.9c0.7-0.6-3.8-4.8-5.7-4.5C144.8,127.9,127.9,136.9,127.5,138.9z"
				/>
		</g>
		<g>
			
				<linearGradient id="SVGID_00000067916736216972772870000014742423252655542169_" gradientUnits="userSpaceOnUse" x1="102.115" y1="109.2473" x2="102.115" y2="67.5473" gradientTransform="matrix(1 0 0 -1 0 194.8823)">
				<stop  offset="0" style="stop-color:#4D3463"/>
				<stop  offset="0.4444" style="stop-color:#170529"/>
				<stop  offset="1" style="stop-color:#12121A"/>
			</linearGradient>
			<path style="opacity:0.5;fill:url(#SVGID_00000067916736216972772870000014742423252655542169_);enable-background:new    ;" d="
				M43.3,85.6l3.7,6.2l0.8,0.5l0,1.8c0,0,3.1,1.6,9.3,5c0.2,0.1,3.9,4,3.9,4s39.8,24.1,41.3,24.1c1.9,0,41.4-24.6,41.4-24.6
				s3.1-2.6,3.4-2.8l9.8-5.1v-2.6l0.7-0.4l3.3-6.2l-58.6,34.5L43.3,85.6z"/>
			
				<linearGradient id="SVGID_00000118392915676074376870000015351551853359928766_" gradientUnits="userSpaceOnUse" x1="102.12" y1="157.8037" x2="102.12" y2="72.0356" gradientTransform="matrix(1 0 0 -1 0 194.8823)">
				<stop  offset="0" style="stop-color:#B16376"/>
				<stop  offset="0.4544" style="stop-color:#574E66"/>
				<stop  offset="0.8056" style="stop-color:#5B469C"/>
				<stop  offset="0.8623" style="stop-color:#614996"/>
				<stop  offset="0.9389" style="stop-color:#725186"/>
				<stop  offset="1" style="stop-color:#855A75"/>
			</linearGradient>
			<path style="fill:url(#SVGID_00000118392915676074376870000015351551853359928766_);" d="M102.3,108.8L46,76
				c-2.2,5-2.7,9.6-2.7,9.6l3.7,6.2l55.3,32.1l0,0l55.3-32.1l3.3-6.2c0,0,0-4.7-2-9.6L102.3,108.8z"/>
			
				<linearGradient id="SVGID_00000018947978487767488570000000287357688717858186_" gradientUnits="userSpaceOnUse" x1="43.34" y1="90.0923" x2="160.89" y2="90.0923" gradientTransform="matrix(1 0 0 -1 0 194.8823)">
				<stop  offset="0" style="stop-color:#000000"/>
				<stop  offset="0.4544" style="stop-color:#655482"/>
				<stop  offset="0.8056" style="stop-color:#594573"/>
				<stop  offset="0.8355" style="stop-color:#54416D"/>
				<stop  offset="0.8759" style="stop-color:#47375C"/>
				<stop  offset="0.9223" style="stop-color:#31263F"/>
				<stop  offset="0.9728" style="stop-color:#130F18"/>
				<stop  offset="1" style="stop-color:#000000"/>
			</linearGradient>
			
				<polygon style="opacity:0.4;fill:url(#SVGID_00000018947978487767488570000000287357688717858186_);enable-background:new    ;" points="
				47,91.8 43.3,85.6 102.3,120.2 160.9,85.6 157.6,91.8 102.3,123.9 			"/>
			
				<linearGradient id="SVGID_00000018959001880162026220000001370700650688174753_" gradientUnits="userSpaceOnUse" x1="-4576.4419" y1="73.6651" x2="-4572.6782" y2="118.1218" gradientTransform="matrix(-0.9942 0 0 -1 -4416.7588 194.8823)">
				<stop  offset="0" style="stop-color:#705AB8"/>
				<stop  offset="1" style="stop-color:#FFFFFF"/>
			</linearGradient>
			<path style="opacity:0.5;fill:url(#SVGID_00000018959001880162026220000001370700650688174753_);enable-background:new    ;" d="
				M102.3,108.8v11.3l58.6-34.5c0,0-0.2-5.7-2-9.6L102.3,108.8z"/>
			<path class="st3" d="M48.9,78.5c-1.1,0-0.2,9.5,3.1,11.7c5.2,3.5,36.5,21.9,38.6,22c1.4,0,1.3-8.1,0.9-8.7
				C90.7,102.3,50.5,78.5,48.9,78.5z"/>
			<path class="st3" d="M119.7,99.1c-0.7,0.7-0.6,9.6,0.6,9.3c1.2-0.3,18.9-9.7,27.2-15.8c8.3-6.1,9.5-14.2,7.6-14
				C155.1,78.5,121.1,97.6,119.7,99.1z"/>
			<path class="st10" d="M73.6,103.4c0,0,26.9,16.2,28.7,16.2c1.7,0,23.2-13.1,23.2-13.1s-22.6,14.3-23.2,14.3
				C101.9,120.8,73.6,103.4,73.6,103.4z"/>
		</g>
		<g class="st16">
			
				<linearGradient id="SVGID_00000075844421254575012920000004078152072475459989_" gradientUnits="userSpaceOnUse" x1="102.115" y1="129.2473" x2="102.115" y2="87.5473" gradientTransform="matrix(1 0 0 -1 0 194.8823)">
				<stop  offset="0" style="stop-color:#4D3463"/>
				<stop  offset="0.4444" style="stop-color:#170529"/>
				<stop  offset="1" style="stop-color:#12121A"/>
			</linearGradient>
			
				<path style="display:inline;opacity:0.5;fill:url(#SVGID_00000075844421254575012920000004078152072475459989_);enable-background:new    ;" d="
				M43.3,65.6l3.7,6.2l0.8,0.5l0,1.8c0,0,3.1,1.6,9.3,5c0.2,0.1,3.9,4,3.9,4s39.8,24.1,41.3,24.1c1.9,0,41.4-24.6,41.4-24.6
				s3.1-2.6,3.4-2.8l9.8-5.1v-2.6l0.7-0.4l3.3-6.2l-58.6,34.5L43.3,65.6z"/>
			
				<linearGradient id="SVGID_00000160176818089389403970000015480141021546359199_" gradientUnits="userSpaceOnUse" x1="102.12" y1="177.8037" x2="102.12" y2="92.0356" gradientTransform="matrix(1 0 0 -1 0 194.8823)">
				<stop  offset="0" style="stop-color:#B16376"/>
				<stop  offset="0.4544" style="stop-color:#574E66"/>
				<stop  offset="0.8056" style="stop-color:#5B469C"/>
				<stop  offset="0.8623" style="stop-color:#614996"/>
				<stop  offset="0.9389" style="stop-color:#725186"/>
				<stop  offset="1" style="stop-color:#855A75"/>
			</linearGradient>
			<path style="display:inline;fill:url(#SVGID_00000160176818089389403970000015480141021546359199_);" d="M102.3,88.8L46,56
				c-2.2,5-2.7,9.6-2.7,9.6l3.7,6.2l55.3,32.1l0,0l55.3-32.1l3.3-6.2c0,0,0-4.7-2-9.6L102.3,88.8z"/>
			
				<linearGradient id="SVGID_00000173850994687491585990000008990001882645806268_" gradientUnits="userSpaceOnUse" x1="43.34" y1="110.0923" x2="160.89" y2="110.0923" gradientTransform="matrix(1 0 0 -1 0 194.8823)">
				<stop  offset="0" style="stop-color:#000000"/>
				<stop  offset="0.4544" style="stop-color:#655482"/>
				<stop  offset="0.8056" style="stop-color:#594573"/>
				<stop  offset="0.8355" style="stop-color:#54416D"/>
				<stop  offset="0.8759" style="stop-color:#47375C"/>
				<stop  offset="0.9223" style="stop-color:#31263F"/>
				<stop  offset="0.9728" style="stop-color:#130F18"/>
				<stop  offset="1" style="stop-color:#000000"/>
			</linearGradient>
			
				<polygon style="display:inline;opacity:0.4;fill:url(#SVGID_00000173850994687491585990000008990001882645806268_);enable-background:new    ;" points="
				47,71.8 43.3,65.6 102.3,100.2 160.9,65.6 157.6,71.8 102.3,103.9 			"/>
			
				<linearGradient id="SVGID_00000127753963349712796540000018268808685858457791_" gradientUnits="userSpaceOnUse" x1="-4576.4419" y1="93.6651" x2="-4572.6782" y2="138.1218" gradientTransform="matrix(-0.9942 0 0 -1 -4416.7588 194.8823)">
				<stop  offset="0" style="stop-color:#705AB8"/>
				<stop  offset="1" style="stop-color:#FFFFFF"/>
			</linearGradient>
			
				<path style="display:inline;opacity:0.5;fill:url(#SVGID_00000127753963349712796540000018268808685858457791_);enable-background:new    ;" d="
				M102.3,88.8v11.3l58.6-34.5c0,0-0.2-5.7-2-9.6L102.3,88.8z"/>
			<path class="st21" d="M48.9,58.5c-1.1,0-0.2,9.5,3.1,11.7c5.2,3.5,36.5,21.9,38.6,22c1.4,0,1.3-8.1,0.9-8.7
				C90.7,82.3,50.5,58.5,48.9,58.5z"/>
			<path class="st21" d="M119.7,79.1c-0.7,0.7-0.6,9.6,0.6,9.3c1.2-0.3,18.9-9.7,27.2-15.8c8.3-6.1,9.5-14.2,7.6-14
				C155.1,58.5,121.1,77.6,119.7,79.1z"/>
			<path class="st22" d="M73.6,83.4c0,0,26.9,16.2,28.7,16.2c1.7,0,23.2-13.1,23.2-13.1s-22.6,14.3-23.2,14.3
				C101.9,100.8,73.6,83.4,73.6,83.4z"/>
		</g>
		<g>
			
				<linearGradient id="SVGID_00000151538966234371033250000013511091208938215583_" gradientUnits="userSpaceOnUse" x1="102.115" y1="89.2473" x2="102.115" y2="47.5473" gradientTransform="matrix(1 0 0 -1 0 194.8823)">
				<stop  offset="0" style="stop-color:#4D3463"/>
				<stop  offset="0.4444" style="stop-color:#170529"/>
				<stop  offset="1" style="stop-color:#12121A"/>
			</linearGradient>
			<path style="opacity:0.5;fill:url(#SVGID_00000151538966234371033250000013511091208938215583_);enable-background:new    ;" d="
				M43.3,105.6l3.7,6.2l0.8,0.5l0,1.8c0,0,3.1,1.6,9.3,5c0.2,0.1,3.9,4,3.9,4s39.8,24.1,41.3,24.1c1.9,0,41.4-24.6,41.4-24.6
				s3.1-2.6,3.4-2.8l9.8-5.1v-2.6l0.7-0.4l3.3-6.2l-58.6,34.5L43.3,105.6z"/>
			
				<linearGradient id="SVGID_00000079455094092402505640000017098265001271252919_" gradientUnits="userSpaceOnUse" x1="102.12" y1="137.8037" x2="102.12" y2="52.0356" gradientTransform="matrix(1 0 0 -1 0 194.8823)">
				<stop  offset="0" style="stop-color:#B16376"/>
				<stop  offset="0.4544" style="stop-color:#574E66"/>
				<stop  offset="0.8056" style="stop-color:#5B469C"/>
				<stop  offset="0.8623" style="stop-color:#614996"/>
				<stop  offset="0.9389" style="stop-color:#725186"/>
				<stop  offset="1" style="stop-color:#855A75"/>
			</linearGradient>
			<path style="fill:url(#SVGID_00000079455094092402505640000017098265001271252919_);" d="M102.3,128.8L46,96
				c-2.2,5-2.7,9.6-2.7,9.6l3.7,6.2l55.3,32.1l0,0l55.3-32.1l3.3-6.2c0,0,0-4.7-2-9.6L102.3,128.8z"/>
			
				<linearGradient id="SVGID_00000179604879250022181060000014870909003505670584_" gradientUnits="userSpaceOnUse" x1="43.34" y1="70.0923" x2="160.89" y2="70.0923" gradientTransform="matrix(1 0 0 -1 0 194.8823)">
				<stop  offset="0" style="stop-color:#000000"/>
				<stop  offset="0.4544" style="stop-color:#655482"/>
				<stop  offset="0.8056" style="stop-color:#594573"/>
				<stop  offset="0.8355" style="stop-color:#54416D"/>
				<stop  offset="0.8759" style="stop-color:#47375C"/>
				<stop  offset="0.9223" style="stop-color:#31263F"/>
				<stop  offset="0.9728" style="stop-color:#130F18"/>
				<stop  offset="1" style="stop-color:#000000"/>
			</linearGradient>
			
				<polygon style="opacity:0.4;fill:url(#SVGID_00000179604879250022181060000014870909003505670584_);enable-background:new    ;" points="
				47,111.8 43.3,105.6 102.3,140.2 160.9,105.6 157.6,111.8 102.3,143.9 			"/>
			
				<linearGradient id="SVGID_00000056400338491095925250000004041969385258976175_" gradientUnits="userSpaceOnUse" x1="-4576.4419" y1="53.6651" x2="-4572.6782" y2="98.1218" gradientTransform="matrix(-0.9942 0 0 -1 -4416.7588 194.8823)">
				<stop  offset="0" style="stop-color:#705AB8"/>
				<stop  offset="1" style="stop-color:#FFFFFF"/>
			</linearGradient>
			<path style="opacity:0.5;fill:url(#SVGID_00000056400338491095925250000004041969385258976175_);enable-background:new    ;" d="
				M102.3,128.8v11.3l58.6-34.5c0,0-0.2-5.7-2-9.6L102.3,128.8z"/>
			<path class="st3" d="M48.9,98.5c-1.1,0-0.2,9.5,3.1,11.7c5.2,3.5,36.5,21.9,38.6,22c1.4,0,1.3-8.1,0.9-8.7
				C90.7,122.3,50.5,98.5,48.9,98.5z"/>
			<path class="st3" d="M119.7,119.1c-0.7,0.7-0.6,9.6,0.6,9.3c1.2-0.3,18.9-9.7,27.2-15.8c8.3-6.1,9.5-14.2,7.6-14
				C155.1,98.5,121.1,117.6,119.7,119.1z"/>
			<path class="st10" d="M73.6,123.4c0,0,26.9,16.2,28.7,16.2c1.7,0,23.2-13.1,23.2-13.1s-22.6,14.3-23.2,14.3
				C101.9,140.8,73.6,123.4,73.6,123.4z"/>
		</g>
	</g>
</g>
<g>
	<g>
		
			<linearGradient id="SVGID_00000136380733367862687340000015973135834768635057_" gradientUnits="userSpaceOnUse" x1="76.7332" y1="74.0874" x2="76.7332" y2="57.922">
			<stop  offset="0" style="stop-color:#000000"/>
			<stop  offset="0.4444" style="stop-color:#000000"/>
			<stop  offset="1" style="stop-color:#000000"/>
		</linearGradient>
		<polygon style="fill:url(#SVGID_00000136380733367862687340000015973135834768635057_);fill-opacity:0.49;" points="76.7,71.3 
			71.5,74.1 72.5,68.2 68.2,64.1 74.1,63.2 76.7,57.9 79.4,63.2 85.2,64.1 81,68.2 82,74.1 		"/>
		
			<linearGradient id="SVGID_00000014604236827612389810000004524860002271741570_" gradientUnits="userSpaceOnUse" x1="76.7332" y1="73.8474" x2="76.7332" y2="56.0234">
			<stop  offset="0" style="stop-color:#D484FF"/>
			<stop  offset="0.4486" style="stop-color:#906CC4"/>
			<stop  offset="0.8056" style="stop-color:#5C50C7"/>
			<stop  offset="0.8889" style="stop-color:#624BC6"/>
			<stop  offset="1" style="stop-color:#733DC4"/>
		</linearGradient>
		<polygon style="fill:url(#SVGID_00000014604236827612389810000004524860002271741570_);" points="84.6,64.3 81.8,63.9 81,63.8 
			79.2,63.5 76.7,58.6 74.3,63.5 68.8,64.3 72.8,68.1 71.9,73.6 76.7,71 81.6,73.6 80.7,68.1 		"/>
		<g>
			
				<linearGradient id="SVGID_00000068656313245768696840000017074852140585577913_" gradientUnits="userSpaceOnUse" x1="68.8204" y1="66.2175" x2="76.8464" y2="66.2175">
				<stop  offset="0" style="stop-color:#000000"/>
				<stop  offset="1" style="stop-color:#2B2B2B"/>
			</linearGradient>
			<polygon style="opacity:0.5;fill:url(#SVGID_00000068656313245768696840000017074852140585577913_);" points="68.8,64.3 
				76.8,66.4 72.8,68.1 			"/>
			
				<linearGradient id="SVGID_00000145059650308826918510000010369502958533008299_" gradientUnits="userSpaceOnUse" x1="76.8464" y1="66.2175" x2="84.5902" y2="66.2175">
				<stop  offset="0" style="stop-color:#000000"/>
				<stop  offset="0.4444" style="stop-color:#000000"/>
				<stop  offset="1" style="stop-color:#000000"/>
			</linearGradient>
			<polygon style="fill:url(#SVGID_00000145059650308826918510000010369502958533008299_);fill-opacity:0.49;" points="84.6,64.3 
				76.8,66.4 80.6,68.1 			"/>
			
				<linearGradient id="SVGID_00000023964712785134347410000006286636147565490829_" gradientUnits="userSpaceOnUse" x1="71.8321" y1="69.9798" x2="76.8464" y2="69.9798">
				<stop  offset="0" style="stop-color:#000000"/>
				<stop  offset="0.4444" style="stop-color:#000000"/>
				<stop  offset="1" style="stop-color:#000000"/>
			</linearGradient>
			<polygon style="fill:url(#SVGID_00000023964712785134347410000006286636147565490829_);fill-opacity:0.49;" points="76.7,71 
				76.8,66.4 71.8,73.6 			"/>
			
				<linearGradient id="SVGID_00000133501397078880119250000010331964186259130778_" gradientUnits="userSpaceOnUse" x1="76.7053" y1="69.9798" x2="81.5784" y2="69.9798">
				<stop  offset="0" style="stop-color:#705AB8"/>
				<stop  offset="1" style="stop-color:#FFFFFF"/>
			</linearGradient>
			<polygon style="opacity:0.5;fill:url(#SVGID_00000133501397078880119250000010331964186259130778_);" points="81.6,73.6 
				76.8,66.4 76.7,71 			"/>
			
				<linearGradient id="SVGID_00000148659033655508137510000001011835115841869446_" gradientUnits="userSpaceOnUse" x1="77.4263" y1="59.7441" x2="78.5173" y2="69.7458">
				<stop  offset="0" style="stop-color:#F0F5FF"/>
				<stop  offset="1" style="stop-color:#260073"/>
			</linearGradient>
			<polygon style="opacity:0.73;fill:url(#SVGID_00000148659033655508137510000001011835115841869446_);" points="76.7,58.6 
				76.8,66.4 79.1,63.5 			"/>
			
				<linearGradient id="SVGID_00000140736061765291264520000012871044558883483011_" gradientUnits="userSpaceOnUse" x1="76.8464" y1="64.9493" x2="84.5902" y2="64.9493">
				<stop  offset="0" style="stop-color:#AF96FF"/>
				<stop  offset="1" style="stop-color:#4D3396"/>
			</linearGradient>
			<polygon style="opacity:0.78;fill:url(#SVGID_00000140736061765291264520000012871044558883483011_);" points="84.6,64.3 
				76.8,66.4 79.1,63.5 			"/>
			
				<linearGradient id="SVGID_00000092416195676422880380000001311865428118895544_" gradientUnits="userSpaceOnUse" x1="80.0757" y1="59.4551" x2="81.1668" y2="69.4567">
				<stop  offset="0" style="stop-color:#FFFFFF"/>
				<stop  offset="1" style="stop-color:#000000"/>
			</linearGradient>
			<polygon style="opacity:0.35;fill:url(#SVGID_00000092416195676422880380000001311865428118895544_);" points="84.6,64.3 
				76.8,66.4 79.1,63.5 			"/>
			
				<linearGradient id="SVGID_00000112609298710613428590000014213164959619182509_" gradientUnits="userSpaceOnUse" x1="72.2835" y1="60.3052" x2="73.3746" y2="70.3068">
				<stop  offset="0" style="stop-color:#603CC2"/>
				<stop  offset="1" style="stop-color:#3A2D4F"/>
			</linearGradient>
			<polygon style="opacity:0.5;fill:url(#SVGID_00000112609298710613428590000014213164959619182509_);" points="74.3,63.5 
				76.8,66.4 68.8,64.3 			"/>
			<path class="st37" d="M79.1,65.2c-0.4,0.3-0.1,0.6-0.1,0.6l2.1-0.6C81.2,65.2,80.1,64.4,79.1,65.2z"/>
		</g>
		
			<linearGradient id="SVGID_00000004523731933637814350000001635120892781942434_" gradientUnits="userSpaceOnUse" x1="76.7332" y1="73.5653" x2="76.7332" y2="71.0034">
			<stop  offset="0" style="stop-color:#FFFFFF"/>
			<stop  offset="0.4444" style="stop-color:#881DED"/>
			<stop  offset="1" style="stop-color:#262262"/>
		</linearGradient>
		<path style="opacity:0.5;fill:url(#SVGID_00000004523731933637814350000001635120892781942434_);" d="M71.9,73.6
			c0,0,3.7-1.7,4.9-2.2l4.9,2.2L76.7,71L71.9,73.6z"/>
		
			<linearGradient id="SVGID_00000099620323316102636920000018193927056713618608_" gradientUnits="userSpaceOnUse" x1="72.8334" y1="70.1858" x2="72.8334" y2="64.296">
			<stop  offset="0" style="stop-color:#000000;stop-opacity:0"/>
			<stop  offset="0.4444" style="stop-color:#000000;stop-opacity:0.5"/>
			<stop  offset="1" style="stop-color:#000000"/>
		</linearGradient>
		<polygon style="fill:url(#SVGID_00000099620323316102636920000018193927056713618608_);fill-opacity:0.7;" points="68.8,64.3 
			76.8,66.4 72.4,70.2 		"/>
		
			<linearGradient id="SVGID_00000036228022628346191470000015904545889260090005_" gradientUnits="userSpaceOnUse" x1="80.7182" y1="70.6907" x2="80.7182" y2="64.296">
			<stop  offset="0" style="stop-color:#000000;stop-opacity:0"/>
			<stop  offset="0.4444" style="stop-color:#000000;stop-opacity:0.5"/>
			<stop  offset="1" style="stop-color:#000000"/>
		</linearGradient>
		<polygon style="fill:url(#SVGID_00000036228022628346191470000015904545889260090005_);fill-opacity:0.7;" points="84.6,64.3 
			76.8,66.4 81.1,70.7 		"/>
		
			<linearGradient id="SVGID_00000104669429888805689510000015286248473826450852_" gradientUnits="userSpaceOnUse" x1="76.7332" y1="73.5653" x2="76.7332" y2="66.3943">
			<stop  offset="0" style="stop-color:#000000;stop-opacity:0"/>
			<stop  offset="0.4444" style="stop-color:#000000;stop-opacity:0.5"/>
			<stop  offset="1" style="stop-color:#000000"/>
		</linearGradient>
		<polygon style="fill:url(#SVGID_00000104669429888805689510000015286248473826450852_);fill-opacity:0.7;" points="71.9,73.6 
			76.8,66.4 81.6,73.6 76.7,72.8 		"/>
		<path class="st42" d="M74.9,62.7c-0.5,1.4,1.5,2.4,1.7,2c0.3-0.4,0.1-2.9-0.2-3.2C76.1,61.1,75.1,62.1,74.9,62.7z"/>
		<path class="st43" d="M73.3,70c1,0.1,1.6-1.1,1.9-1.9C75.5,66.8,71.4,69.8,73.3,70z"/>
	</g>
	<g>
		
			<linearGradient id="SVGID_00000084505475363805185710000000496520993138550404_" gradientUnits="userSpaceOnUse" x1="127.5069" y1="74.0874" x2="127.5069" y2="57.922">
			<stop  offset="0" style="stop-color:#000000"/>
			<stop  offset="0.4444" style="stop-color:#000000"/>
			<stop  offset="1" style="stop-color:#000000"/>
		</linearGradient>
		<polygon style="fill:url(#SVGID_00000084505475363805185710000000496520993138550404_);fill-opacity:0.49;" points="127.5,71.3 
			122.3,74.1 123.3,68.2 119,64.1 124.9,63.2 127.5,57.9 130.1,63.2 136,64.1 131.8,68.2 132.8,74.1 		"/>
		
			<linearGradient id="SVGID_00000137107205963650323540000000130417522902410628_" gradientUnits="userSpaceOnUse" x1="127.5069" y1="73.8474" x2="127.5069" y2="56.0234">
			<stop  offset="0" style="stop-color:#D484FF"/>
			<stop  offset="0.4486" style="stop-color:#906CC4"/>
			<stop  offset="0.8056" style="stop-color:#5C50C7"/>
			<stop  offset="0.8889" style="stop-color:#624BC6"/>
			<stop  offset="1" style="stop-color:#733DC4"/>
		</linearGradient>
		<polygon style="fill:url(#SVGID_00000137107205963650323540000000130417522902410628_);" points="135.4,64.3 132.6,63.9 
			131.8,63.8 129.9,63.5 127.5,58.6 125.1,63.5 119.6,64.3 123.6,68.1 122.6,73.6 127.5,71 132.4,73.6 131.4,68.1 		"/>
		<g>
			
				<linearGradient id="SVGID_00000038385787915012274490000014174680611341424771_" gradientUnits="userSpaceOnUse" x1="119.594" y1="66.2175" x2="127.62" y2="66.2175">
				<stop  offset="0" style="stop-color:#000000"/>
				<stop  offset="1" style="stop-color:#2B2B2B"/>
			</linearGradient>
			<polygon style="opacity:0.5;fill:url(#SVGID_00000038385787915012274490000014174680611341424771_);" points="119.6,64.3 
				127.6,66.4 123.5,68.1 			"/>
			
				<linearGradient id="SVGID_00000052071775821696326230000014710529436636075453_" gradientUnits="userSpaceOnUse" x1="127.62" y1="66.2175" x2="135.3639" y2="66.2175">
				<stop  offset="0" style="stop-color:#000000"/>
				<stop  offset="0.4444" style="stop-color:#000000"/>
				<stop  offset="1" style="stop-color:#000000"/>
			</linearGradient>
			<polygon style="fill:url(#SVGID_00000052071775821696326230000014710529436636075453_);fill-opacity:0.49;" points="135.4,64.3 
				127.6,66.4 131.4,68.1 			"/>
			
				<linearGradient id="SVGID_00000166656083936083188730000014062763109273518470_" gradientUnits="userSpaceOnUse" x1="122.6058" y1="69.9798" x2="127.62" y2="69.9798">
				<stop  offset="0" style="stop-color:#000000"/>
				<stop  offset="0.4444" style="stop-color:#000000"/>
				<stop  offset="1" style="stop-color:#000000"/>
			</linearGradient>
			<polygon style="fill:url(#SVGID_00000166656083936083188730000014062763109273518470_);fill-opacity:0.49;" points="127.5,71 
				127.6,66.4 122.6,73.6 			"/>
			
				<linearGradient id="SVGID_00000085946485306451360070000015127379593043266480_" gradientUnits="userSpaceOnUse" x1="127.4789" y1="69.9798" x2="132.3521" y2="69.9798">
				<stop  offset="0" style="stop-color:#705AB8"/>
				<stop  offset="1" style="stop-color:#FFFFFF"/>
			</linearGradient>
			<polygon style="opacity:0.5;fill:url(#SVGID_00000085946485306451360070000015127379593043266480_);" points="132.4,73.6 
				127.6,66.4 127.5,71 			"/>
			
				<linearGradient id="SVGID_00000111179303386124850370000017368755665355077040_" gradientUnits="userSpaceOnUse" x1="128.2" y1="59.7441" x2="129.291" y2="69.7458">
				<stop  offset="0" style="stop-color:#F0F5FF"/>
				<stop  offset="1" style="stop-color:#260073"/>
			</linearGradient>
			<polygon style="opacity:0.73;fill:url(#SVGID_00000111179303386124850370000017368755665355077040_);" points="127.5,58.6 
				127.6,66.4 129.9,63.5 			"/>
			
				<linearGradient id="SVGID_00000142158979653799684140000017783684236807894437_" gradientUnits="userSpaceOnUse" x1="127.62" y1="64.9493" x2="135.3639" y2="64.9493">
				<stop  offset="0" style="stop-color:#AF96FF"/>
				<stop  offset="1" style="stop-color:#4D3396"/>
			</linearGradient>
			<polygon style="opacity:0.78;fill:url(#SVGID_00000142158979653799684140000017783684236807894437_);" points="135.4,64.3 
				127.6,66.4 129.9,63.5 			"/>
			
				<linearGradient id="SVGID_00000075855909941557334920000013713164179008246965_" gradientUnits="userSpaceOnUse" x1="130.8494" y1="59.4551" x2="131.9405" y2="69.4567">
				<stop  offset="0" style="stop-color:#FFFFFF"/>
				<stop  offset="1" style="stop-color:#000000"/>
			</linearGradient>
			<polygon style="opacity:0.35;fill:url(#SVGID_00000075855909941557334920000013713164179008246965_);" points="135.4,64.3 
				127.6,66.4 129.9,63.5 			"/>
			
				<linearGradient id="SVGID_00000145757318296279389970000006568543182715018425_" gradientUnits="userSpaceOnUse" x1="123.0572" y1="60.3052" x2="124.1483" y2="70.3068">
				<stop  offset="0" style="stop-color:#603CC2"/>
				<stop  offset="1" style="stop-color:#3A2D4F"/>
			</linearGradient>
			<polygon style="opacity:0.5;fill:url(#SVGID_00000145757318296279389970000006568543182715018425_);" points="125,63.5 
				127.6,66.4 119.6,64.3 			"/>
			<path class="st37" d="M129.9,65.2c-0.4,0.3-0.1,0.6-0.1,0.6l2.1-0.6C131.9,65.2,130.9,64.4,129.9,65.2z"/>
		</g>
		
			<linearGradient id="SVGID_00000002366664861534952210000017507360667693239182_" gradientUnits="userSpaceOnUse" x1="127.5069" y1="73.5653" x2="127.5069" y2="71.0034">
			<stop  offset="0" style="stop-color:#FFFFFF"/>
			<stop  offset="0.4444" style="stop-color:#881DED"/>
			<stop  offset="1" style="stop-color:#262262"/>
		</linearGradient>
		<path style="opacity:0.5;fill:url(#SVGID_00000002366664861534952210000017507360667693239182_);" d="M122.6,73.6
			c0,0,3.7-1.7,4.9-2.2l4.9,2.2l-4.9-2.6L122.6,73.6z"/>
		
			<linearGradient id="SVGID_00000093863037967005417990000012768255837069555077_" gradientUnits="userSpaceOnUse" x1="123.607" y1="70.1858" x2="123.607" y2="64.296">
			<stop  offset="0" style="stop-color:#000000;stop-opacity:0"/>
			<stop  offset="0.4444" style="stop-color:#000000;stop-opacity:0.5"/>
			<stop  offset="1" style="stop-color:#000000"/>
		</linearGradient>
		<polygon style="fill:url(#SVGID_00000093863037967005417990000012768255837069555077_);fill-opacity:0.7;" points="119.6,64.3 
			127.6,66.4 123.2,70.2 		"/>
		
			<linearGradient id="SVGID_00000029764736076624145460000004820290070758837420_" gradientUnits="userSpaceOnUse" x1="131.4919" y1="70.6907" x2="131.4919" y2="64.296">
			<stop  offset="0" style="stop-color:#000000;stop-opacity:0"/>
			<stop  offset="0.4444" style="stop-color:#000000;stop-opacity:0.5"/>
			<stop  offset="1" style="stop-color:#000000"/>
		</linearGradient>
		<polygon style="fill:url(#SVGID_00000029764736076624145460000004820290070758837420_);fill-opacity:0.7;" points="135.4,64.3 
			127.6,66.4 131.9,70.7 		"/>
		
			<linearGradient id="SVGID_00000003786815534493810190000014234445622976826247_" gradientUnits="userSpaceOnUse" x1="127.5069" y1="73.5653" x2="127.5069" y2="66.3943">
			<stop  offset="0" style="stop-color:#000000;stop-opacity:0"/>
			<stop  offset="0.4444" style="stop-color:#000000;stop-opacity:0.5"/>
			<stop  offset="1" style="stop-color:#000000"/>
		</linearGradient>
		<polygon style="fill:url(#SVGID_00000003786815534493810190000014234445622976826247_);fill-opacity:0.7;" points="122.6,73.6 
			127.6,66.4 132.4,73.6 127.5,72.8 		"/>
		<path class="st42" d="M125.7,62.7c-0.5,1.4,1.5,2.4,1.7,2c0.3-0.4,0.1-2.9-0.2-3.2C126.8,61.1,125.9,62.1,125.7,62.7z"/>
		<path class="st43" d="M124.1,70c1,0.1,1.6-1.1,1.9-1.9C126.3,66.8,122.2,69.8,124.1,70z"/>
	</g>
	<g>
		
			<linearGradient id="SVGID_00000087400410165636059870000001627478594561930154_" gradientUnits="userSpaceOnUse" x1="102.12" y1="99.3867" x2="102.12" y2="62.1959">
			<stop  offset="0" style="stop-color:#000000"/>
			<stop  offset="0.4444" style="stop-color:#000000"/>
			<stop  offset="1" style="stop-color:#000000"/>
		</linearGradient>
		<polygon style="fill:url(#SVGID_00000087400410165636059870000001627478594561930154_);fill-opacity:0.49;" points="102.1,93 
			90,99.4 92.3,85.9 82.6,76.4 96.1,74.4 102.1,62.2 108.2,74.4 121.7,76.4 111.9,85.9 114.2,99.4 		"/>
		
			<linearGradient id="SVGID_00000178890859308204374540000008267899733781223347_" gradientUnits="userSpaceOnUse" x1="102.12" y1="98.8344" x2="102.12" y2="57.828">
			<stop  offset="0" style="stop-color:#D484FF"/>
			<stop  offset="0.4486" style="stop-color:#906CC4"/>
			<stop  offset="0.8056" style="stop-color:#5C50C7"/>
			<stop  offset="0.8889" style="stop-color:#624BC6"/>
			<stop  offset="1" style="stop-color:#733DC4"/>
		</linearGradient>
		<polygon style="fill:url(#SVGID_00000178890859308204374540000008267899733781223347_);" points="120.3,76.9 113.7,75.9 112,75.7 
			107.7,75 102.1,63.7 96.5,75 84,76.9 93,85.7 90.9,98.2 102.1,92.3 113.3,98.2 111.2,85.7 		"/>
		<g>
			
				<linearGradient id="SVGID_00000116928033142709464890000004258681928651436166_" gradientUnits="userSpaceOnUse" x1="83.9155" y1="81.2808" x2="102.3804" y2="81.2808">
				<stop  offset="0" style="stop-color:#000000"/>
				<stop  offset="1" style="stop-color:#2B2B2B"/>
			</linearGradient>
			<polygon style="opacity:0.5;fill:url(#SVGID_00000116928033142709464890000004258681928651436166_);" points="83.9,76.9 
				102.4,81.7 93,85.7 			"/>
			
				<linearGradient id="SVGID_00000129202299996623865930000010488435226906858404_" gradientUnits="userSpaceOnUse" x1="102.3804" y1="81.2808" x2="120.1962" y2="81.2808">
				<stop  offset="0" style="stop-color:#000000"/>
				<stop  offset="0.4444" style="stop-color:#000000"/>
				<stop  offset="1" style="stop-color:#000000"/>
			</linearGradient>
			<polygon style="fill:url(#SVGID_00000129202299996623865930000010488435226906858404_);fill-opacity:0.49;" points="120.2,76.9 
				102.4,81.7 111.1,85.7 			"/>
			
				<linearGradient id="SVGID_00000046332138343427121690000002246210254742256061_" gradientUnits="userSpaceOnUse" x1="90.8445" y1="89.9366" x2="102.3804" y2="89.9366">
				<stop  offset="0" style="stop-color:#000000"/>
				<stop  offset="0.4444" style="stop-color:#000000"/>
				<stop  offset="1" style="stop-color:#000000"/>
			</linearGradient>
			<polygon style="fill:url(#SVGID_00000046332138343427121690000002246210254742256061_);fill-opacity:0.49;" points="102.1,92.3 
				102.4,81.7 90.8,98.2 			"/>
			
				<linearGradient id="SVGID_00000041993583780868427660000010455054245723940027_" gradientUnits="userSpaceOnUse" x1="102.0558" y1="89.9366" x2="113.2672" y2="89.9366">
				<stop  offset="0" style="stop-color:#705AB8"/>
				<stop  offset="1" style="stop-color:#FFFFFF"/>
			</linearGradient>
			<polygon style="opacity:0.5;fill:url(#SVGID_00000041993583780868427660000010455054245723940027_);" points="113.3,98.2 
				102.4,81.7 102.1,92.3 			"/>
			
				<linearGradient id="SVGID_00000051381903461348994490000009575954077500956862_" gradientUnits="userSpaceOnUse" x1="103.7145" y1="66.388" x2="106.2247" y2="89.3982">
				<stop  offset="0" style="stop-color:#F0F5FF"/>
				<stop  offset="1" style="stop-color:#260073"/>
			</linearGradient>
			<polygon style="opacity:0.73;fill:url(#SVGID_00000051381903461348994490000009575954077500956862_);" points="102.1,63.7 
				102.4,81.7 107.7,75 			"/>
			
				<linearGradient id="SVGID_00000070825159956354874020000015191534537489289398_" gradientUnits="userSpaceOnUse" x1="102.3804" y1="78.3633" x2="120.1962" y2="78.3633">
				<stop  offset="0" style="stop-color:#AF96FF"/>
				<stop  offset="1" style="stop-color:#4D3396"/>
			</linearGradient>
			<polygon style="opacity:0.78;fill:url(#SVGID_00000070825159956354874020000015191534537489289398_);" points="120.2,76.9 
				102.4,81.7 107.7,75 			"/>
			
				<linearGradient id="SVGID_00000183209013291059236770000014066384660999572130_" gradientUnits="userSpaceOnUse" x1="109.81" y1="65.7231" x2="112.3202" y2="88.7332">
				<stop  offset="0" style="stop-color:#FFFFFF"/>
				<stop  offset="1" style="stop-color:#000000"/>
			</linearGradient>
			<polygon style="opacity:0.35;fill:url(#SVGID_00000183209013291059236770000014066384660999572130_);" points="120.2,76.9 
				102.4,81.7 107.7,75 			"/>
			
				<linearGradient id="SVGID_00000138537069284571190340000001236656868691366025_" gradientUnits="userSpaceOnUse" x1="91.883" y1="67.6788" x2="94.3932" y2="90.6889">
				<stop  offset="0" style="stop-color:#603CC2"/>
				<stop  offset="1" style="stop-color:#3A2D4F"/>
			</linearGradient>
			<polygon style="opacity:0.5;fill:url(#SVGID_00000138537069284571190340000001236656868691366025_);" points="96.5,75 
				102.4,81.7 83.9,76.9 			"/>
			<path class="st37" d="M107.7,79c-0.9,0.8-0.1,1.3-0.1,1.3l4.8-1.3C112.3,79,109.8,77.2,107.7,79z"/>
		</g>
		
			<linearGradient id="SVGID_00000147903913419719624440000004042535058745121193_" gradientUnits="userSpaceOnUse" x1="102.12" y1="98.1855" x2="102.12" y2="92.2914">
			<stop  offset="0" style="stop-color:#FFFFFF"/>
			<stop  offset="0.4444" style="stop-color:#881DED"/>
			<stop  offset="1" style="stop-color:#262262"/>
		</linearGradient>
		<path style="opacity:0.5;fill:url(#SVGID_00000147903913419719624440000004042535058745121193_);" d="M90.9,98.2
			c0,0,8.5-4,11.2-5.1l11.2,5.1l-11.2-5.9L90.9,98.2z"/>
		
			<linearGradient id="SVGID_00000063605752527409484340000005068855913600155555_" gradientUnits="userSpaceOnUse" x1="93.1479" y1="90.4105" x2="93.1479" y2="76.8602">
			<stop  offset="0" style="stop-color:#000000;stop-opacity:0"/>
			<stop  offset="0.4444" style="stop-color:#000000;stop-opacity:0.5"/>
			<stop  offset="1" style="stop-color:#000000"/>
		</linearGradient>
		<polygon style="fill:url(#SVGID_00000063605752527409484340000005068855913600155555_);fill-opacity:0.7;" points="83.9,76.9 
			102.4,81.7 92.2,90.4 		"/>
		
			<linearGradient id="SVGID_00000080207388375037191850000000494736668382374546_" gradientUnits="userSpaceOnUse" x1="111.2882" y1="91.5722" x2="111.2882" y2="76.8602">
			<stop  offset="0" style="stop-color:#000000;stop-opacity:0"/>
			<stop  offset="0.4444" style="stop-color:#000000;stop-opacity:0.5"/>
			<stop  offset="1" style="stop-color:#000000"/>
		</linearGradient>
		<polygon style="fill:url(#SVGID_00000080207388375037191850000000494736668382374546_);fill-opacity:0.7;" points="120.2,76.9 
			102.4,81.7 112.2,91.6 		"/>
		
			<linearGradient id="SVGID_00000066483107230401292100000015969668187098318259_" gradientUnits="userSpaceOnUse" x1="102.12" y1="98.1855" x2="102.12" y2="81.6877">
			<stop  offset="0" style="stop-color:#000000;stop-opacity:0"/>
			<stop  offset="0.4444" style="stop-color:#000000;stop-opacity:0.5"/>
			<stop  offset="1" style="stop-color:#000000"/>
		</linearGradient>
		<polygon style="fill:url(#SVGID_00000066483107230401292100000015969668187098318259_);fill-opacity:0.7;" points="90.9,98.2 
			102.4,81.7 113.3,98.2 102.1,96.4 		"/>
		<path class="st42" d="M97.9,73.1c-1.2,3.3,3.4,5.6,4,4.6c0.6-1,0.2-6.7-0.5-7.5C100.6,69.4,98.4,71.7,97.9,73.1z"/>
		<path class="st43" d="M94.2,90c2.4,0.3,3.8-2.4,4.3-4.3C99.3,82.7,89.8,89.4,94.2,90z"/>
	</g>
</g>
</svg>
