<?xml version="1.0" encoding="utf-8"?>
<!-- Generator: Adobe Illustrator 26.4.1, SVG Export Plug-In . SVG Version: 6.00 Build 0)  -->
<svg version="1.1" id="Слой_1" xmlns="http://www.w3.org/2000/svg" xmlns:xlink="http://www.w3.org/1999/xlink" x="0px" y="0px"
	 viewBox="0 0 204.2 194.9" style="enable-background:new 0 0 204.2 194.9;" xml:space="preserve">
<style type="text/css">
	.st0{fill:url(#SVGID_1_);}
	.st1{fill:url(#SVGID_00000039819701296355424330000008435563826699058589_);}
	.st2{fill:url(#SVGID_00000165194422901232980680000007009165890085632132_);}
	.st3{opacity:0.1;fill:#FFFFFF;enable-background:new    ;}
	.st4{opacity:0.1;fill:url(#SVGID_00000171690499446605971700000008599374083000431027_);enable-background:new    ;}
	.st5{opacity:0.1;fill:url(#SVGID_00000163033258434478085760000017098055054142232743_);enable-background:new    ;}
	.st6{opacity:0.1;fill:url(#SVGID_00000074401616751359232000000005120918808119102635_);enable-background:new    ;}
	.st7{opacity:0.1;fill:url(#SVGID_00000090983861362993660620000003148518776931670440_);enable-background:new    ;}
	.st8{fill:url(#SVGID_00000099641356453235385250000015228748663670018950_);}
	.st9{opacity:0.5;fill:url(#SVGID_00000116945253435437643900000001650358197777986434_);enable-background:new    ;}
	.st10{fill:#E6ADFF;}
	.st11{opacity:0.1;fill:url(#SVGID_00000145017962153231754270000010440104429369002645_);enable-background:new    ;}
	.st12{display:none;}
	
		.st13{display:inline;opacity:0.5;fill:url(#SVGID_00000119111313674287271980000008156740182629058200_);enable-background:new    ;}
	.st14{display:inline;fill:url(#SVGID_00000102514615017994934790000016439630748483509403_);}
	
		.st15{display:inline;opacity:0.4;fill:url(#SVGID_00000004547420356955688170000002975160094253739906_);enable-background:new    ;}
	
		.st16{display:inline;opacity:0.5;fill:url(#SVGID_00000094617795219521901780000004709286340904496772_);enable-background:new    ;}
	.st17{display:inline;opacity:0.1;fill:#FFFFFF;enable-background:new    ;}
	.st18{display:inline;fill:#E6ADFF;}
	.st19{opacity:0.5;fill:url(#SVGID_00000106832360992156336310000009295448466091059084_);enable-background:new    ;}
	.st20{fill:url(#SVGID_00000170993225011866275460000007964956513918440124_);}
	.st21{opacity:0.4;fill:url(#SVGID_00000160156642074101452820000006695203455938797472_);enable-background:new    ;}
	.st22{opacity:0.5;fill:url(#SVGID_00000150079103152435726940000006019149826739195795_);enable-background:new    ;}
</style>
<g>
	<g>
		<g>
			
				<linearGradient id="SVGID_1_" gradientUnits="userSpaceOnUse" x1="102.33" y1="30.0194" x2="102.33" y2="148.3591" gradientTransform="matrix(1 0 0 -1 0 194.8823)">
				<stop  offset="0" style="stop-color:#72466E"/>
				<stop  offset="0.4544" style="stop-color:#27283A"/>
				<stop  offset="0.8056" style="stop-color:#3E4253"/>
				<stop  offset="0.8403" style="stop-color:#424759"/>
				<stop  offset="0.8872" style="stop-color:#4F576A"/>
				<stop  offset="0.941" style="stop-color:#637187"/>
				<stop  offset="0.9997" style="stop-color:#7F94AE"/>
				<stop  offset="1" style="stop-color:#7F94AE"/>
			</linearGradient>
			<polygon class="st0" points="102.3,24.5 47.8,56 47.8,131 102.3,162.5 156.8,131 156.8,56 			"/>
			
				<linearGradient id="SVGID_00000120522932894073158900000010110990070469666704_" gradientUnits="userSpaceOnUse" x1="102.33" y1="151.8868" x2="102.33" y2="44.0777" gradientTransform="matrix(1 0 0 -1 0 194.8823)">
				<stop  offset="0" style="stop-color:#292D39"/>
				<stop  offset="0.1944" style="stop-color:#242734"/>
				<stop  offset="0.5456" style="stop-color:#2E2F42"/>
				<stop  offset="1" style="stop-color:#262738"/>
			</linearGradient>
			<polygon style="fill:url(#SVGID_00000120522932894073158900000010110990070469666704_);" points="57.7,125.3 57.7,61.6 
				102.3,35.9 147,61.6 147,125.3 102.3,151.1 			"/>
			
				<linearGradient id="SVGID_00000172438250955345848170000015056763028769692085_" gradientUnits="userSpaceOnUse" x1="102.33" y1="47.5673" x2="102.33" y2="155.2173" gradientTransform="matrix(1 0 0 -1 0 194.8823)">
				<stop  offset="0" style="stop-color:#3F3C51"/>
				<stop  offset="0.353" style="stop-color:#29293B"/>
				<stop  offset="0.5853" style="stop-color:#202132"/>
				<stop  offset="0.6419" style="stop-color:#2B2E3F"/>
				<stop  offset="0.7791" style="stop-color:#424759"/>
				<stop  offset="0.9027" style="stop-color:#4F5768"/>
				<stop  offset="1" style="stop-color:#545C6E"/>
			</linearGradient>
			<polygon style="fill:url(#SVGID_00000172438250955345848170000015056763028769692085_);" points="61,123.4 61,63.5 102.3,39.7 
				143.7,63.5 143.7,123.4 102.3,147.3 			"/>
			<path class="st3" d="M49.2,56.2c-0.7,2,5.1,4.5,9.2,3.6c4.1-0.9,42.4-23.4,43.4-25.4c0.3-0.6,0.3-8.4,0-8.4
				C100.4,25.9,49.5,55.2,49.2,56.2z"/>
			<path class="st3" d="M155.2,56.2c0.7,2-5.1,4.5-9.2,3.6s-42.1-23.6-43.4-25.4c-0.7-0.9-0.9-8.4,0-8.4
				C104,25.9,154.9,55.2,155.2,56.2z"/>
			
				<linearGradient id="SVGID_00000078024195986693574870000004289589710932137917_" gradientUnits="userSpaceOnUse" x1="52.7093" y1="51.0251" x2="52.7093" y2="116.2682" gradientTransform="matrix(1 0 0 -1 0 194.8823)">
				<stop  offset="0" style="stop-color:#705AB8"/>
				<stop  offset="1" style="stop-color:#FFFFFF"/>
			</linearGradient>
			<path style="opacity:0.1;fill:url(#SVGID_00000078024195986693574870000004289589710932137917_);enable-background:new    ;" d="
				M49.1,98.8c-0.4,2.2-1.3,30.7,0,30.9c1.3,0.2,7.2-3.8,7.5-5.7c0.3-1.9,0.4-21.3,0-23.2C56.2,98.9,49.8,95.1,49.1,98.8z"/>
			
				<linearGradient id="SVGID_00000022531132838810797480000016227135321507936905_" gradientUnits="userSpaceOnUse" x1="-4883.1592" y1="51.0251" x2="-4883.1592" y2="116.2682" gradientTransform="matrix(-1 0 0 -1 -4731.4185 194.8823)">
				<stop  offset="0" style="stop-color:#705AB8"/>
				<stop  offset="1" style="stop-color:#FFFFFF"/>
			</linearGradient>
			<path style="opacity:0.1;fill:url(#SVGID_00000022531132838810797480000016227135321507936905_);enable-background:new    ;" d="
				M155.3,98.8c0.4,2.2,1.3,30.7,0,30.9c-1.3,0.2-7.2-3.8-7.5-5.7s-0.4-21.3,0-23.2C148.3,99,154.7,95.1,155.3,98.8z"/>
			
				<linearGradient id="SVGID_00000006698576178169392870000009563008899899407032_" gradientUnits="userSpaceOnUse" x1="62.6515" y1="75.3728" x2="89.0253" y2="32.5965" gradientTransform="matrix(1 0 0 -1 0 194.8823)">
				<stop  offset="0" style="stop-color:#705AB8"/>
				<stop  offset="1" style="stop-color:#FFFFFF"/>
			</linearGradient>
			<path style="opacity:0.1;fill:url(#SVGID_00000006698576178169392870000009563008899899407032_);enable-background:new    ;" d="
				M50.5,130.5c0.7,1,49.7,30,50.5,30c0.4,0,0.9-7.2,0.9-8c0-2.2-43.4-25.3-44.2-25.5C56.6,126.7,49.8,129.5,50.5,130.5z"/>
			
				<linearGradient id="SVGID_00000170963760603872317390000013981736719209051835_" gradientUnits="userSpaceOnUse" x1="121.4079" y1="69.9782" x2="140.2984" y2="13.9635" gradientTransform="matrix(1 0 0 -1 0 194.8823)">
				<stop  offset="0" style="stop-color:#705AB8"/>
				<stop  offset="1" style="stop-color:#FFFFFF"/>
			</linearGradient>
			<path style="opacity:0.1;fill:url(#SVGID_00000170963760603872317390000013981736719209051835_);enable-background:new    ;" d="
				M154.2,131.3c-0.7,1-50.7,29.9-51.4,29.9c-0.2,0-0.2-9,0.2-9.3c1.6-1.6,43-24.7,43.7-24.9C147.9,126.7,154.9,130.3,154.2,131.3z"
				/>
			
				<linearGradient id="SVGID_00000181768523738844315800000011362518224147542204_" gradientUnits="userSpaceOnUse" x1="102.2206" y1="40.1462" x2="102.2206" y2="130.3445" gradientTransform="matrix(1 0 0 -1 0 194.8823)">
				<stop  offset="0" style="stop-color:#121117"/>
				<stop  offset="0.1464" style="stop-color:#14131B"/>
				<stop  offset="0.5853" style="stop-color:#171824"/>
				<stop  offset="1" style="stop-color:#171924"/>
			</linearGradient>
			<path style="fill:url(#SVGID_00000181768523738844315800000011362518224147542204_);" d="M62.9,121.8
				c-2.9-16.6-1.3-17.6,19.3-24.7c20.6-7,55.4-25.1,58.5-17.2s2,41.2,1.3,43.1c-0.7,1.8-36.7,22.5-39.6,22.5
				C99.4,145.6,63.2,123.7,62.9,121.8z"/>
			<path class="st3" d="M142.8,64c-0.7-0.2-38.1-21.8-40.2-21.6c-2,0.2-28,12.3-38.7,21.5c-2.8,2.4-1.8,39.1,0.8,38.4
				c2.6-0.7,4.6-15.5,33.5-23.8c28.5-8.2,40.9-1.1,44,0.2C143,79,144.5,64.4,142.8,64z"/>
			
				<linearGradient id="SVGID_00000016033459156427714560000009587173412223360431_" gradientUnits="userSpaceOnUse" x1="102.33" y1="69.5473" x2="102.33" y2="159.0173" gradientTransform="matrix(1 0 0 -1 0 194.8823)">
				<stop  offset="0" style="stop-color:#FFFFFF"/>
				<stop  offset="0.4444" style="stop-color:#361D4D"/>
				<stop  offset="1" style="stop-color:#000000"/>
			</linearGradient>
			<path style="opacity:0.5;fill:url(#SVGID_00000016033459156427714560000009587173412223360431_);enable-background:new    ;" d="
				M57.7,125.3V61.6l44.6-25.8L147,61.6v63.7l-3.3-1.9c0,0,0.2-55.4-1-57.1c-4.2-6.2-37.3-21.3-42.7-19.6
				C94.5,48.5,65.1,61,61.8,66.2C60.7,68,61,123.4,61,123.4L57.7,125.3z"/>
			<path class="st3" d="M110.7,70.3c11.1,5.1,27.9,5.2,29.4,4.2c1.5-1,2.6-8.1,0.1-9.3c-2.4-1.2-21.5-11.4-26.5-10.3
				C108.7,56,108.7,69.4,110.7,70.3z"/>
			<path class="st10" d="M121.8,47.1c0,0,23.9,13.6,24.3,15.2S147,105,147,105s0.2-41.6,0-43.3C146.8,59.9,121.8,47.1,121.8,47.1z"
				/>
			<path class="st10" d="M57.7,96.5c0,0-0.8-34.4-0.4-35.5c0.4-1.1,45-25.1,45-25.1s-43.1,24.6-44,26.2
				C57.5,63.6,57.7,96.5,57.7,96.5z"/>
			<path class="st10" d="M57.7,109c0,0-0.2,14.7,0.7,15.9c0.8,1.2,22,13.5,22,13.5s-22.9-11.9-23.2-12.6C57,125,57.7,109,57.7,109z"
				/>
			<path class="st3" d="M76.1,138.7c-1.6,0-6.1,1.8-5.1,2.9c0.8,0.9,27.8,17.2,30.9,18.4c1,0.4,0.9-6-0.4-8.1
				C100.8,151,81.1,138.7,76.1,138.7z"/>
			
				<linearGradient id="SVGID_00000073717587070008637030000010218031081478934925_" gradientUnits="userSpaceOnUse" x1="139.4708" y1="47.8473" x2="139.4708" y2="67.2709" gradientTransform="matrix(1 0 0 -1 0 194.8823)">
				<stop  offset="0" style="stop-color:#FFFFFF"/>
				<stop  offset="0.4444" style="stop-color:#881DED"/>
				<stop  offset="1" style="stop-color:#262262"/>
			</linearGradient>
			<path style="opacity:0.1;fill:url(#SVGID_00000073717587070008637030000010218031081478934925_);enable-background:new    ;" d="
				M127.5,138.9c-1.2,5.1-1,8.2-0.3,8.2c0.7,0,24.5-14.3,25.1-14.9c0.7-0.6-3.8-4.8-5.7-4.5C144.8,127.9,127.9,136.9,127.5,138.9z"
				/>
		</g>
		<g class="st12">
			
				<linearGradient id="SVGID_00000082354949101240725210000002045752533064445631_" gradientUnits="userSpaceOnUse" x1="102.115" y1="109.2473" x2="102.115" y2="67.5473" gradientTransform="matrix(1 0 0 -1 0 194.8823)">
				<stop  offset="0" style="stop-color:#4D3463"/>
				<stop  offset="0.4444" style="stop-color:#170529"/>
				<stop  offset="1" style="stop-color:#12121A"/>
			</linearGradient>
			
				<path style="display:inline;opacity:0.5;fill:url(#SVGID_00000082354949101240725210000002045752533064445631_);enable-background:new    ;" d="
				M43.3,85.6l3.7,6.2l0.8,0.5l0,1.8c0,0,3.1,1.6,9.3,5c0.2,0.1,3.9,4,3.9,4s39.8,24.1,41.3,24.1c1.9,0,41.4-24.6,41.4-24.6
				s3.1-2.6,3.4-2.8l9.8-5.1v-2.6l0.7-0.4l3.3-6.2l-58.6,34.5L43.3,85.6z"/>
			
				<linearGradient id="SVGID_00000048466097553642456630000000360256796298953857_" gradientUnits="userSpaceOnUse" x1="102.12" y1="157.8037" x2="102.12" y2="72.0356" gradientTransform="matrix(1 0 0 -1 0 194.8823)">
				<stop  offset="0" style="stop-color:#B16376"/>
				<stop  offset="0.4544" style="stop-color:#574E66"/>
				<stop  offset="0.8056" style="stop-color:#5B469C"/>
				<stop  offset="0.8623" style="stop-color:#614996"/>
				<stop  offset="0.9389" style="stop-color:#725186"/>
				<stop  offset="1" style="stop-color:#855A75"/>
			</linearGradient>
			<path style="display:inline;fill:url(#SVGID_00000048466097553642456630000000360256796298953857_);" d="M102.3,108.8L46,76
				c-2.2,5-2.7,9.6-2.7,9.6l3.7,6.2l55.3,32.1l0,0l55.3-32.1l3.3-6.2c0,0,0-4.7-2-9.6L102.3,108.8z"/>
			
				<linearGradient id="SVGID_00000150798166938972328430000002928698015687024276_" gradientUnits="userSpaceOnUse" x1="43.34" y1="90.0923" x2="160.89" y2="90.0923" gradientTransform="matrix(1 0 0 -1 0 194.8823)">
				<stop  offset="0" style="stop-color:#000000"/>
				<stop  offset="0.4544" style="stop-color:#655482"/>
				<stop  offset="0.8056" style="stop-color:#594573"/>
				<stop  offset="0.8355" style="stop-color:#54416D"/>
				<stop  offset="0.8759" style="stop-color:#47375C"/>
				<stop  offset="0.9223" style="stop-color:#31263F"/>
				<stop  offset="0.9728" style="stop-color:#130F18"/>
				<stop  offset="1" style="stop-color:#000000"/>
			</linearGradient>
			
				<polygon style="display:inline;opacity:0.4;fill:url(#SVGID_00000150798166938972328430000002928698015687024276_);enable-background:new    ;" points="
				47,91.8 43.3,85.6 102.3,120.2 160.9,85.6 157.6,91.8 102.3,123.9 			"/>
			
				<linearGradient id="SVGID_00000027566870406414727980000006984009074215798975_" gradientUnits="userSpaceOnUse" x1="-4576.4419" y1="73.6651" x2="-4572.6782" y2="118.1218" gradientTransform="matrix(-0.9942 0 0 -1 -4416.7588 194.8823)">
				<stop  offset="0" style="stop-color:#705AB8"/>
				<stop  offset="1" style="stop-color:#FFFFFF"/>
			</linearGradient>
			
				<path style="display:inline;opacity:0.5;fill:url(#SVGID_00000027566870406414727980000006984009074215798975_);enable-background:new    ;" d="
				M102.3,108.8v11.3l58.6-34.5c0,0-0.2-5.7-2-9.6L102.3,108.8z"/>
			<path class="st17" d="M48.9,78.5c-1.1,0-0.2,9.5,3.1,11.7c5.2,3.5,36.5,21.9,38.6,22c1.4,0,1.3-8.1,0.9-8.7
				C90.7,102.3,50.5,78.5,48.9,78.5z"/>
			<path class="st17" d="M119.7,99.1c-0.7,0.7-0.6,9.6,0.6,9.3c1.2-0.3,18.9-9.7,27.2-15.8c8.3-6.1,9.5-14.2,7.6-14
				C155.1,78.5,121.1,97.6,119.7,99.1z"/>
			<path class="st18" d="M73.6,103.4c0,0,26.9,16.2,28.7,16.2c1.7,0,23.2-13.1,23.2-13.1s-22.6,14.3-23.2,14.3
				C101.9,120.8,73.6,103.4,73.6,103.4z"/>
		</g>
		<g>
			
				<linearGradient id="SVGID_00000120548358402895689200000012341519253814250428_" gradientUnits="userSpaceOnUse" x1="102.115" y1="89.2473" x2="102.115" y2="47.5473" gradientTransform="matrix(1 0 0 -1 0 194.8823)">
				<stop  offset="0" style="stop-color:#4D3463"/>
				<stop  offset="0.4444" style="stop-color:#170529"/>
				<stop  offset="1" style="stop-color:#12121A"/>
			</linearGradient>
			<path style="opacity:0.5;fill:url(#SVGID_00000120548358402895689200000012341519253814250428_);enable-background:new    ;" d="
				M43.3,105.6l3.7,6.2l0.8,0.5l0,1.8c0,0,3.1,1.6,9.3,5c0.2,0.1,3.9,4,3.9,4s39.8,24.1,41.3,24.1c1.9,0,41.4-24.6,41.4-24.6
				s3.1-2.6,3.4-2.8l9.8-5.1v-2.6l0.7-0.4l3.3-6.2l-58.6,34.5L43.3,105.6z"/>
			
				<linearGradient id="SVGID_00000012464995035940297330000016548379027083752862_" gradientUnits="userSpaceOnUse" x1="102.12" y1="137.8037" x2="102.12" y2="52.0356" gradientTransform="matrix(1 0 0 -1 0 194.8823)">
				<stop  offset="0" style="stop-color:#B16376"/>
				<stop  offset="0.4544" style="stop-color:#574E66"/>
				<stop  offset="0.8056" style="stop-color:#5B469C"/>
				<stop  offset="0.8623" style="stop-color:#614996"/>
				<stop  offset="0.9389" style="stop-color:#725186"/>
				<stop  offset="1" style="stop-color:#855A75"/>
			</linearGradient>
			<path style="fill:url(#SVGID_00000012464995035940297330000016548379027083752862_);" d="M102.3,128.8L46,96
				c-2.2,5-2.7,9.6-2.7,9.6l3.7,6.2l55.3,32.1l0,0l55.3-32.1l3.3-6.2c0,0,0-4.7-2-9.6L102.3,128.8z"/>
			
				<linearGradient id="SVGID_00000140011558308535561410000004609654650060466857_" gradientUnits="userSpaceOnUse" x1="43.34" y1="70.0923" x2="160.89" y2="70.0923" gradientTransform="matrix(1 0 0 -1 0 194.8823)">
				<stop  offset="0" style="stop-color:#000000"/>
				<stop  offset="0.4544" style="stop-color:#655482"/>
				<stop  offset="0.8056" style="stop-color:#594573"/>
				<stop  offset="0.8355" style="stop-color:#54416D"/>
				<stop  offset="0.8759" style="stop-color:#47375C"/>
				<stop  offset="0.9223" style="stop-color:#31263F"/>
				<stop  offset="0.9728" style="stop-color:#130F18"/>
				<stop  offset="1" style="stop-color:#000000"/>
			</linearGradient>
			
				<polygon style="opacity:0.4;fill:url(#SVGID_00000140011558308535561410000004609654650060466857_);enable-background:new    ;" points="
				47,111.8 43.3,105.6 102.3,140.2 160.9,105.6 157.6,111.8 102.3,143.9 			"/>
			
				<linearGradient id="SVGID_00000039843205586824957630000006080880670641774237_" gradientUnits="userSpaceOnUse" x1="-4576.4419" y1="53.6651" x2="-4572.6782" y2="98.1218" gradientTransform="matrix(-0.9942 0 0 -1 -4416.7588 194.8823)">
				<stop  offset="0" style="stop-color:#705AB8"/>
				<stop  offset="1" style="stop-color:#FFFFFF"/>
			</linearGradient>
			<path style="opacity:0.5;fill:url(#SVGID_00000039843205586824957630000006080880670641774237_);enable-background:new    ;" d="
				M102.3,128.8v11.3l58.6-34.5c0,0-0.2-5.7-2-9.6L102.3,128.8z"/>
			<path class="st3" d="M48.9,98.5c-1.1,0-0.2,9.5,3.1,11.7c5.2,3.5,36.5,21.9,38.6,22c1.4,0,1.3-8.1,0.9-8.7
				C90.7,122.3,50.5,98.5,48.9,98.5z"/>
			<path class="st3" d="M119.7,119.1c-0.7,0.7-0.6,9.6,0.6,9.3c1.2-0.3,18.9-9.7,27.2-15.8c8.3-6.1,9.5-14.2,7.6-14
				C155.1,98.5,121.1,117.6,119.7,119.1z"/>
			<path class="st10" d="M73.6,123.4c0,0,26.9,16.2,28.7,16.2c1.7,0,23.2-13.1,23.2-13.1s-22.6,14.3-23.2,14.3
				C101.9,140.8,73.6,123.4,73.6,123.4z"/>
		</g>
	</g>
</g>
</svg>
