<?xml version="1.0" encoding="utf-8"?>
<!-- Generator: Adobe Illustrator 26.4.1, SVG Export Plug-In . SVG Version: 6.00 Build 0)  -->
<svg version="1.1" id="Слой_1" xmlns="http://www.w3.org/2000/svg" xmlns:xlink="http://www.w3.org/1999/xlink" x="0px" y="0px"
	 viewBox="0 0 212.7 212.7" style="enable-background:new 0 0 212.7 212.7;" xml:space="preserve">
<style type="text/css">
	.st0{fill:url(#SVGID_1_);}
	.st1{fill:url(#SVGID_00000183939181573875789670000005114545162544571288_);}
	.st2{fill:url(#SVGID_00000036237426981239428420000008896044472434113968_);}
	.st3{opacity:0.1;fill:#FFFFFF;enable-background:new    ;}
	.st4{opacity:0.1;fill:url(#SVGID_00000040565795814526144500000002844839880793599376_);enable-background:new    ;}
	.st5{opacity:0.1;fill:url(#SVGID_00000018923580243437153290000006861200943370517408_);enable-background:new    ;}
	.st6{opacity:0.1;fill:url(#SVGID_00000154407916220954992130000015237447589827120555_);enable-background:new    ;}
	.st7{opacity:0.1;fill:url(#SVGID_00000176001079258174235260000004009537183457795746_);enable-background:new    ;}
	.st8{fill:url(#SVGID_00000139994212546372988260000017366805764071733693_);}
	.st9{opacity:0.5;fill:url(#SVGID_00000130645543475166013190000012834787068443620743_);enable-background:new    ;}
	.st10{fill:#E6ADFF;}
	.st11{opacity:0.1;fill:url(#SVGID_00000090976464156968323550000001343258242184609166_);enable-background:new    ;}
	.st12{opacity:0.5;fill:url(#SVGID_00000072280306812346069740000012344179412504811953_);enable-background:new    ;}
	.st13{fill:url(#SVGID_00000180353767162507047940000004749163281233471158_);}
	.st14{opacity:0.4;fill:url(#SVGID_00000171677237469567755020000003253449521266451605_);enable-background:new    ;}
	.st15{opacity:0.5;fill:url(#SVGID_00000081633104565440219080000005397086005092302730_);enable-background:new    ;}
	.st16{opacity:0.5;fill:url(#SVGID_00000106105433016161535420000005694218344872457110_);enable-background:new    ;}
	.st17{fill:url(#SVGID_00000050629581231548667160000015171099985549988773_);}
	.st18{opacity:0.4;fill:url(#SVGID_00000070081132568287917080000003376432063683011515_);enable-background:new    ;}
	.st19{opacity:0.5;fill:url(#SVGID_00000043442281887770484740000012476576652011706302_);enable-background:new    ;}
</style>
<g>
	<g>
		<g>
			
				<linearGradient id="SVGID_1_" gradientUnits="userSpaceOnUse" x1="106.3379" y1="34.9223" x2="106.3379" y2="153.262" gradientTransform="matrix(1 0 0 -1 0 212.6881)">
				<stop  offset="0" style="stop-color:#72466E"/>
				<stop  offset="0.4544" style="stop-color:#27283A"/>
				<stop  offset="0.8056" style="stop-color:#3E4253"/>
				<stop  offset="0.8403" style="stop-color:#424759"/>
				<stop  offset="0.8872" style="stop-color:#4F576A"/>
				<stop  offset="0.941" style="stop-color:#637187"/>
				<stop  offset="0.9997" style="stop-color:#7F94AE"/>
				<stop  offset="1" style="stop-color:#7F94AE"/>
			</linearGradient>
			<polygon class="st0" points="106.3,37.4 51.8,68.9 51.8,143.9 106.3,175.4 160.8,143.9 160.8,68.9 			"/>
			
				<linearGradient id="SVGID_00000036224570851893934330000004994719035551354259_" gradientUnits="userSpaceOnUse" x1="106.3379" y1="156.7897" x2="106.3379" y2="48.9806" gradientTransform="matrix(1 0 0 -1 0 212.6881)">
				<stop  offset="0" style="stop-color:#292D39"/>
				<stop  offset="0.1944" style="stop-color:#242734"/>
				<stop  offset="0.5456" style="stop-color:#2E2F42"/>
				<stop  offset="1" style="stop-color:#262738"/>
			</linearGradient>
			<polygon style="fill:url(#SVGID_00000036224570851893934330000004994719035551354259_);" points="61.7,138.2 61.7,74.5 
				106.3,48.8 151,74.5 151,138.2 106.3,164 			"/>
			
				<linearGradient id="SVGID_00000150101100926765965580000005375447132836181684_" gradientUnits="userSpaceOnUse" x1="106.3379" y1="52.4702" x2="106.3379" y2="160.1202" gradientTransform="matrix(1 0 0 -1 0 212.6881)">
				<stop  offset="0" style="stop-color:#3F3C51"/>
				<stop  offset="0.353" style="stop-color:#29293B"/>
				<stop  offset="0.5853" style="stop-color:#202132"/>
				<stop  offset="0.6419" style="stop-color:#2B2E3F"/>
				<stop  offset="0.7791" style="stop-color:#424759"/>
				<stop  offset="0.9027" style="stop-color:#4F5768"/>
				<stop  offset="1" style="stop-color:#545C6E"/>
			</linearGradient>
			<polygon style="fill:url(#SVGID_00000150101100926765965580000005375447132836181684_);" points="65,136.3 65,76.4 106.3,52.6 
				147.7,76.4 147.7,136.3 106.3,160.2 			"/>
			<path class="st3" d="M53.2,69.1c-0.7,2,5.1,4.5,9.2,3.6c4.1-0.9,42.4-23.4,43.4-25.4c0.3-0.6,0.3-8.4,0-8.4
				C104.4,38.8,53.5,68.1,53.2,69.1z"/>
			<path class="st3" d="M159.2,69.1c0.7,2-5.1,4.5-9.2,3.6c-4.1-0.9-42.1-23.6-43.4-25.4c-0.7-0.9-0.9-8.4,0-8.4
				C108,38.8,158.9,68.1,159.2,69.1z"/>
			
				<linearGradient id="SVGID_00000127030988977432425780000016145367049081929400_" gradientUnits="userSpaceOnUse" x1="56.7172" y1="55.928" x2="56.7172" y2="121.1711" gradientTransform="matrix(1 0 0 -1 0 212.6881)">
				<stop  offset="0" style="stop-color:#705AB8"/>
				<stop  offset="1" style="stop-color:#FFFFFF"/>
			</linearGradient>
			<path style="opacity:0.1;fill:url(#SVGID_00000127030988977432425780000016145367049081929400_);enable-background:new    ;" d="
				M53.1,111.7c-0.4,2.2-1.3,30.7,0,30.9c1.3,0.2,7.2-3.8,7.5-5.7c0.3-1.9,0.4-21.3,0-23.2C60.2,111.8,53.8,108,53.1,111.7z"/>
			
				<linearGradient id="SVGID_00000183214370263694090100000005685297262747236024_" gradientUnits="userSpaceOnUse" x1="-4878.7217" y1="55.928" x2="-4878.7217" y2="121.1711" gradientTransform="matrix(-1 0 0 -1 -4722.9727 212.6881)">
				<stop  offset="0" style="stop-color:#705AB8"/>
				<stop  offset="1" style="stop-color:#FFFFFF"/>
			</linearGradient>
			<path style="opacity:0.1;fill:url(#SVGID_00000183214370263694090100000005685297262747236024_);enable-background:new    ;" d="
				M159.3,111.7c0.4,2.2,1.3,30.7,0,30.9c-1.3,0.2-7.2-3.8-7.5-5.7s-0.4-21.3,0-23.2C152.3,111.9,158.7,108,159.3,111.7z"/>
			
				<linearGradient id="SVGID_00000145022303104908050020000003610887843079201429_" gradientUnits="userSpaceOnUse" x1="66.6594" y1="80.2757" x2="93.0332" y2="37.4994" gradientTransform="matrix(1 0 0 -1 0 212.6881)">
				<stop  offset="0" style="stop-color:#705AB8"/>
				<stop  offset="1" style="stop-color:#FFFFFF"/>
			</linearGradient>
			<path style="opacity:0.1;fill:url(#SVGID_00000145022303104908050020000003610887843079201429_);enable-background:new    ;" d="
				M54.5,143.4c0.7,1,49.7,30,50.5,30c0.4,0,0.9-7.2,0.9-8c0-2.2-43.4-25.3-44.2-25.5C60.6,139.6,53.8,142.4,54.5,143.4z"/>
			
				<linearGradient id="SVGID_00000133520526977510953350000009735739839728837275_" gradientUnits="userSpaceOnUse" x1="125.4158" y1="74.8811" x2="144.3063" y2="18.8663" gradientTransform="matrix(1 0 0 -1 0 212.6881)">
				<stop  offset="0" style="stop-color:#705AB8"/>
				<stop  offset="1" style="stop-color:#FFFFFF"/>
			</linearGradient>
			<path style="opacity:0.1;fill:url(#SVGID_00000133520526977510953350000009735739839728837275_);enable-background:new    ;" d="
				M158.2,144.2c-0.7,1-50.7,29.9-51.4,29.9c-0.2,0-0.2-9,0.2-9.3c1.6-1.6,43-24.7,43.7-24.9C151.9,139.6,158.9,143.2,158.2,144.2z"
				/>
			
				<linearGradient id="SVGID_00000183232064305232852670000013962180143083963814_" gradientUnits="userSpaceOnUse" x1="106.2284" y1="45.0491" x2="106.2284" y2="135.2474" gradientTransform="matrix(1 0 0 -1 0 212.6881)">
				<stop  offset="0" style="stop-color:#121117"/>
				<stop  offset="0.1464" style="stop-color:#14131B"/>
				<stop  offset="0.5853" style="stop-color:#171824"/>
				<stop  offset="1" style="stop-color:#171924"/>
			</linearGradient>
			<path style="fill:url(#SVGID_00000183232064305232852670000013962180143083963814_);" d="M66.9,134.7
				c-2.9-16.6-1.3-17.6,19.3-24.7c20.6-7,55.4-25.1,58.5-17.2s2,41.2,1.3,43.1c-0.7,1.8-36.7,22.5-39.6,22.5
				C103.4,158.5,67.2,136.6,66.9,134.7z"/>
			<path class="st3" d="M146.8,76.9c-0.7-0.2-38.1-21.8-40.2-21.6c-2,0.1-28,12.3-38.7,21.5c-2.8,2.5-1.8,39.1,0.8,38.4
				c2.6-0.7,4.6-15.5,33.5-23.8c28.5-8.2,40.9-1.1,44,0.2C147,91.9,148.5,77.3,146.8,76.9z"/>
			
				<linearGradient id="SVGID_00000165913995412081511970000011218666264628893344_" gradientUnits="userSpaceOnUse" x1="106.3379" y1="74.4502" x2="106.3379" y2="163.9202" gradientTransform="matrix(1 0 0 -1 0 212.6881)">
				<stop  offset="0" style="stop-color:#FFFFFF"/>
				<stop  offset="0.4444" style="stop-color:#361D4D"/>
				<stop  offset="1" style="stop-color:#000000"/>
			</linearGradient>
			<path style="opacity:0.5;fill:url(#SVGID_00000165913995412081511970000011218666264628893344_);enable-background:new    ;" d="
				M61.7,138.2V74.5l44.6-25.8L151,74.5v63.7l-3.3-1.9c0,0,0.2-55.4-1-57.1C142.4,73,109.4,58,104,59.7
				c-5.5,1.7-34.9,14.2-38.2,19.5c-1.1,1.8-0.8,57.2-0.8,57.2L61.7,138.2z"/>
			<path class="st3" d="M114.7,83.2c11.1,5.1,27.9,5.2,29.4,4.2s2.6-8.1,0.1-9.3c-2.4-1.2-21.5-11.4-26.5-10.3
				C112.7,68.9,112.7,82.3,114.7,83.2z"/>
			<path class="st10" d="M125.8,60c0,0,23.9,13.6,24.3,15.1c0.3,1.5,0.9,42.7,0.9,42.7s0.2-41.6,0-43.3
				C150.8,72.8,125.8,60,125.8,60z"/>
			<path class="st10" d="M61.7,109.4c0,0-0.8-34.4-0.4-35.5c0.4-1.1,45-25.1,45-25.1S63.2,73.4,62.4,75
				C61.5,76.5,61.7,109.4,61.7,109.4z"/>
			<path class="st10" d="M61.7,121.9c0,0-0.1,14.7,0.7,15.9c0.8,1.2,22,13.5,22,13.5s-22.9-11.9-23.2-12.6
				C61,137.9,61.7,121.9,61.7,121.9z"/>
			<path class="st3" d="M80.1,151.6c-1.6,0-6.1,1.8-5.1,2.9c0.8,0.9,27.8,17.2,30.9,18.4c1,0.4,0.9-6-0.4-8.1
				C104.8,163.9,85.1,151.6,80.1,151.6z"/>
			
				<linearGradient id="SVGID_00000161603261180826835880000002649507971992704908_" gradientUnits="userSpaceOnUse" x1="143.4787" y1="52.7501" x2="143.4787" y2="72.1738" gradientTransform="matrix(1 0 0 -1 0 212.6881)">
				<stop  offset="0" style="stop-color:#FFFFFF"/>
				<stop  offset="0.4444" style="stop-color:#881DED"/>
				<stop  offset="1" style="stop-color:#262262"/>
			</linearGradient>
			<path style="opacity:0.1;fill:url(#SVGID_00000161603261180826835880000002649507971992704908_);enable-background:new    ;" d="
				M131.5,151.8c-1.2,5.1-1,8.2-0.3,8.2s24.5-14.3,25.1-14.9c0.6-0.6-3.8-4.8-5.7-4.5C148.8,140.8,131.9,149.8,131.5,151.8z"/>
		</g>
		<g>
			
				<linearGradient id="SVGID_00000039096956102871315560000006101269756902321292_" gradientUnits="userSpaceOnUse" x1="106.1229" y1="114.1502" x2="106.1229" y2="72.4502" gradientTransform="matrix(1 0 0 -1 0 212.6881)">
				<stop  offset="0" style="stop-color:#4D3463"/>
				<stop  offset="0.4444" style="stop-color:#170529"/>
				<stop  offset="1" style="stop-color:#12121A"/>
			</linearGradient>
			<path style="opacity:0.5;fill:url(#SVGID_00000039096956102871315560000006101269756902321292_);enable-background:new    ;" d="
				M47.3,98.5l3.7,6.2l0.8,0.5l0,1.8c0,0,3.2,1.6,9.4,5c0.2,0.1,3.9,4,3.9,4s39.8,24.1,41.3,24.1c1.9,0,41.4-24.6,41.4-24.6
				s3.1-2.6,3.4-2.8l9.8-5.1v-2.6l0.7-0.4l3.3-6.2l-58.6,34.5L47.3,98.5z"/>
			
				<linearGradient id="SVGID_00000105409347208407094520000015290481801639278763_" gradientUnits="userSpaceOnUse" x1="106.1279" y1="162.7066" x2="106.1279" y2="76.9385" gradientTransform="matrix(1 0 0 -1 0 212.6881)">
				<stop  offset="0" style="stop-color:#B16376"/>
				<stop  offset="0.4544" style="stop-color:#574E66"/>
				<stop  offset="0.8056" style="stop-color:#5B469C"/>
				<stop  offset="0.8623" style="stop-color:#614996"/>
				<stop  offset="0.9389" style="stop-color:#725186"/>
				<stop  offset="1" style="stop-color:#855A75"/>
			</linearGradient>
			<path style="fill:url(#SVGID_00000105409347208407094520000015290481801639278763_);" d="M106.3,121.7L50,88.9
				c-2.2,5-2.7,9.6-2.7,9.6l3.7,6.2l55.3,32.1l0,0l55.3-32.1l3.3-6.2c0,0,0-4.7-2-9.6L106.3,121.7z"/>
			
				<linearGradient id="SVGID_00000058589272301098809920000011013589755142915988_" gradientUnits="userSpaceOnUse" x1="47.3479" y1="94.9952" x2="164.8979" y2="94.9952" gradientTransform="matrix(1 0 0 -1 0 212.6881)">
				<stop  offset="0" style="stop-color:#000000"/>
				<stop  offset="0.4544" style="stop-color:#655482"/>
				<stop  offset="0.8056" style="stop-color:#594573"/>
				<stop  offset="0.8355" style="stop-color:#54416D"/>
				<stop  offset="0.8759" style="stop-color:#47375C"/>
				<stop  offset="0.9223" style="stop-color:#31263F"/>
				<stop  offset="0.9728" style="stop-color:#130F18"/>
				<stop  offset="1" style="stop-color:#000000"/>
			</linearGradient>
			
				<polygon style="opacity:0.4;fill:url(#SVGID_00000058589272301098809920000011013589755142915988_);enable-background:new    ;" points="
				51,104.7 47.3,98.5 106.3,133.1 164.9,98.5 161.6,104.7 106.3,136.8 			"/>
			
				<linearGradient id="SVGID_00000168087021565163283170000002586791305832605624_" gradientUnits="userSpaceOnUse" x1="-4572.0029" y1="78.568" x2="-4568.2393" y2="123.0247" gradientTransform="matrix(-0.9942 0 0 -1 -4408.3374 212.6881)">
				<stop  offset="0" style="stop-color:#705AB8"/>
				<stop  offset="1" style="stop-color:#FFFFFF"/>
			</linearGradient>
			<path style="opacity:0.5;fill:url(#SVGID_00000168087021565163283170000002586791305832605624_);enable-background:new    ;" d="
				M106.3,121.7v11.3l58.6-34.5c0,0-0.2-5.7-2-9.6L106.3,121.7z"/>
			<path class="st3" d="M52.9,91.4c-1.1,0-0.2,9.5,3.1,11.7c5.2,3.5,36.5,21.9,38.6,22c1.4,0,1.3-8.1,0.9-8.7
				C94.7,115.2,54.5,91.4,52.9,91.4z"/>
			<path class="st3" d="M123.7,112c-0.7,0.7-0.6,9.6,0.6,9.3c1.2-0.3,18.9-9.7,27.2-15.8c8.4-6.1,9.5-14.2,7.7-14
				C159.1,91.4,125.1,110.5,123.7,112z"/>
			<path class="st10" d="M77.6,116.3c0,0,26.9,16.2,28.7,16.2c1.7,0,23.2-13.1,23.2-13.1s-22.6,14.3-23.2,14.3
				C105.9,133.7,77.6,116.3,77.6,116.3z"/>
		</g>
		<g>
			
				<linearGradient id="SVGID_00000163040473208950518780000007264399940553569707_" gradientUnits="userSpaceOnUse" x1="106.1229" y1="94.1502" x2="106.1229" y2="52.4502" gradientTransform="matrix(1 0 0 -1 0 212.6881)">
				<stop  offset="0" style="stop-color:#4D3463"/>
				<stop  offset="0.4444" style="stop-color:#170529"/>
				<stop  offset="1" style="stop-color:#12121A"/>
			</linearGradient>
			<path style="opacity:0.5;fill:url(#SVGID_00000163040473208950518780000007264399940553569707_);enable-background:new    ;" d="
				M47.3,118.5l3.7,6.2l0.8,0.5l0,1.8c0,0,3.2,1.6,9.4,5c0.2,0.1,3.9,4,3.9,4s39.8,24.1,41.3,24.1c1.9,0,41.4-24.6,41.4-24.6
				s3.1-2.6,3.4-2.8l9.8-5.1v-2.6l0.7-0.4l3.3-6.2l-58.6,34.5L47.3,118.5z"/>
			
				<linearGradient id="SVGID_00000023974355742267058130000016668665178301858750_" gradientUnits="userSpaceOnUse" x1="106.1279" y1="142.7066" x2="106.1279" y2="56.9385" gradientTransform="matrix(1 0 0 -1 0 212.6881)">
				<stop  offset="0" style="stop-color:#B16376"/>
				<stop  offset="0.4544" style="stop-color:#574E66"/>
				<stop  offset="0.8056" style="stop-color:#5B469C"/>
				<stop  offset="0.8623" style="stop-color:#614996"/>
				<stop  offset="0.9389" style="stop-color:#725186"/>
				<stop  offset="1" style="stop-color:#855A75"/>
			</linearGradient>
			<path style="fill:url(#SVGID_00000023974355742267058130000016668665178301858750_);" d="M106.3,141.7L50,108.9
				c-2.2,5-2.7,9.6-2.7,9.6l3.7,6.2l55.3,32.1l0,0l55.3-32.1l3.3-6.2c0,0,0-4.7-2-9.6L106.3,141.7z"/>
			
				<linearGradient id="SVGID_00000035518893219944974160000011331707356477722797_" gradientUnits="userSpaceOnUse" x1="47.3479" y1="74.9952" x2="164.8979" y2="74.9952" gradientTransform="matrix(1 0 0 -1 0 212.6881)">
				<stop  offset="0" style="stop-color:#000000"/>
				<stop  offset="0.4544" style="stop-color:#655482"/>
				<stop  offset="0.8056" style="stop-color:#594573"/>
				<stop  offset="0.8355" style="stop-color:#54416D"/>
				<stop  offset="0.8759" style="stop-color:#47375C"/>
				<stop  offset="0.9223" style="stop-color:#31263F"/>
				<stop  offset="0.9728" style="stop-color:#130F18"/>
				<stop  offset="1" style="stop-color:#000000"/>
			</linearGradient>
			
				<polygon style="opacity:0.4;fill:url(#SVGID_00000035518893219944974160000011331707356477722797_);enable-background:new    ;" points="
				51,124.7 47.3,118.5 106.3,153.1 164.9,118.5 161.6,124.7 106.3,156.8 			"/>
			
				<linearGradient id="SVGID_00000127021818715773246810000007781950377850364859_" gradientUnits="userSpaceOnUse" x1="-4572.0029" y1="58.568" x2="-4568.2393" y2="103.0247" gradientTransform="matrix(-0.9942 0 0 -1 -4408.3374 212.6881)">
				<stop  offset="0" style="stop-color:#705AB8"/>
				<stop  offset="1" style="stop-color:#FFFFFF"/>
			</linearGradient>
			<path style="opacity:0.5;fill:url(#SVGID_00000127021818715773246810000007781950377850364859_);enable-background:new    ;" d="
				M106.3,141.7v11.3l58.6-34.5c0,0-0.2-5.7-2-9.6L106.3,141.7z"/>
			<path class="st3" d="M52.9,111.4c-1.1,0-0.2,9.5,3.1,11.7c5.2,3.5,36.5,21.9,38.6,22c1.4,0,1.3-8.1,0.9-8.7
				C94.7,135.2,54.5,111.4,52.9,111.4z"/>
			<path class="st3" d="M123.7,132c-0.7,0.7-0.6,9.6,0.6,9.3c1.2-0.3,18.9-9.7,27.2-15.8c8.4-6.1,9.5-14.2,7.7-14
				C159.1,111.4,125.1,130.5,123.7,132z"/>
			<path class="st10" d="M77.6,136.3c0,0,26.9,16.2,28.7,16.2c1.7,0,23.2-13.1,23.2-13.1s-22.6,14.3-23.2,14.3
				C105.9,153.7,77.6,136.3,77.6,136.3z"/>
		</g>
	</g>
</g>
</svg>
