<?xml version="1.0" encoding="utf-8"?>
<!-- Generator: Adobe Illustrator 26.4.1, SVG Export Plug-In . SVG Version: 6.00 Build 0)  -->
<svg version="1.0" id="Слой_1" xmlns="http://www.w3.org/2000/svg" xmlns:xlink="http://www.w3.org/1999/xlink" x="0px" y="0px"
	 viewBox="0 0 204.2 194.9" style="enable-background:new 0 0 204.2 194.9;" xml:space="preserve">
<style type="text/css">
	.st0{fill:url(#SVGID_1_);}
	.st1{fill:url(#SVGID_00000029754510593858074830000018142983551741413025_);}
	.st2{fill:url(#SVGID_00000131357544461931529510000001557497294926897554_);}
	.st3{opacity:0.1;fill:#FFFFFF;enable-background:new    ;}
	.st4{opacity:0.1;fill:url(#SVGID_00000139990605893716727050000016530818270132123047_);enable-background:new    ;}
	.st5{opacity:0.1;fill:url(#SVGID_00000181767584124999163310000003980972256359350162_);enable-background:new    ;}
	.st6{opacity:0.1;fill:url(#SVGID_00000162346533355586018780000017163565530977876139_);enable-background:new    ;}
	.st7{opacity:0.1;fill:url(#SVGID_00000060720369612490819810000004097480181443497867_);enable-background:new    ;}
	.st8{fill:url(#SVGID_00000054241109221833719290000006126663857780789130_);}
	.st9{opacity:0.5;fill:url(#SVGID_00000028326669564414697330000015172825514797786774_);enable-background:new    ;}
	.st10{fill:#E6ADFF;}
	.st11{opacity:0.1;fill:url(#SVGID_00000001639879203500366660000005812861117494623422_);enable-background:new    ;}
	.st12{display:none;}
	
		.st13{display:inline;opacity:0.5;fill:url(#SVGID_00000119810654950892579620000012186564791200696454_);enable-background:new    ;}
	.st14{display:inline;fill:url(#SVGID_00000158010241355411905220000015159435952638835863_);}
	
		.st15{display:inline;opacity:0.4;fill:url(#SVGID_00000119109124714832417780000015974000708431264694_);enable-background:new    ;}
	
		.st16{display:inline;opacity:0.5;fill:url(#SVGID_00000154413565306829177690000000124254436335141798_);enable-background:new    ;}
	.st17{display:inline;opacity:0.1;fill:#FFFFFF;enable-background:new    ;}
	.st18{display:inline;fill:#E6ADFF;}
	
		.st19{display:inline;opacity:0.5;fill:url(#SVGID_00000165222389876946637650000012463732544968236988_);enable-background:new    ;}
	.st20{display:inline;fill:url(#SVGID_00000155837587857132636450000002300983651045770388_);}
	
		.st21{display:inline;opacity:0.4;fill:url(#SVGID_00000134969266468830909350000008091351452940777912_);enable-background:new    ;}
	
		.st22{display:inline;opacity:0.5;fill:url(#SVGID_00000125586946257300985170000011143692536155467663_);enable-background:new    ;}
	
		.st23{display:inline;opacity:0.5;fill:url(#SVGID_00000137846665453815256150000015446242957655324301_);enable-background:new    ;}
	.st24{display:inline;fill:url(#SVGID_00000063632583668081899540000009697823393179039167_);}
	
		.st25{display:inline;opacity:0.4;fill:url(#SVGID_00000134209201019432813720000010236277475585688739_);enable-background:new    ;}
	
		.st26{display:inline;opacity:0.5;fill:url(#SVGID_00000016073815492080687300000016305934858739971205_);enable-background:new    ;}
	.st27{fill:url(#SVGID_00000170957189882180243870000016015701674749510043_);fill-opacity:0.49;}
	.st28{fill:url(#SVGID_00000003817418180029778260000006240151565418232472_);}
	.st29{opacity:0.5;fill:url(#SVGID_00000049941207597781559660000015921794550434816170_);}
	.st30{fill:url(#SVGID_00000082370539956056770690000003314629918320160947_);fill-opacity:0.49;}
	.st31{fill:url(#SVGID_00000018196688646054562070000010031438346472102838_);fill-opacity:0.49;}
	.st32{opacity:0.5;fill:url(#SVGID_00000101789632161403251150000009429293229505721262_);}
	.st33{opacity:0.73;fill:url(#SVGID_00000119096595156391897200000016118316597123942580_);}
	.st34{opacity:0.78;fill:url(#SVGID_00000054267996311233762750000003990762644981674138_);}
	.st35{opacity:0.35;fill:url(#SVGID_00000065066640928052142340000016718704402759938698_);}
	.st36{opacity:0.5;fill:url(#SVGID_00000029752146323055642890000016355751016582247336_);}
	.st37{opacity:0.26;fill:#FFFFFF;}
	.st38{opacity:0.5;fill:url(#SVGID_00000096046081282456934710000017729318147464322219_);}
	.st39{fill:url(#SVGID_00000123426118459188616260000000979486948855695008_);fill-opacity:0.7;}
	.st40{fill:url(#SVGID_00000102523361515559687170000001992962009107299484_);fill-opacity:0.7;}
	.st41{fill:url(#SVGID_00000061458537111729929500000011342847396721069980_);fill-opacity:0.7;}
	.st42{opacity:0.12;fill:#F7FFFF;}
	.st43{opacity:0.1;fill:#F7FFFF;}
</style>
<g>
	<g>
		<g>
			
				<linearGradient id="SVGID_1_" gradientUnits="userSpaceOnUse" x1="102.33" y1="30.0194" x2="102.33" y2="148.3591" gradientTransform="matrix(1 0 0 -1 0 194.8823)">
				<stop  offset="0" style="stop-color:#72466E"/>
				<stop  offset="0.4544" style="stop-color:#27283A"/>
				<stop  offset="0.8056" style="stop-color:#3E4253"/>
				<stop  offset="0.8403" style="stop-color:#424759"/>
				<stop  offset="0.8872" style="stop-color:#4F576A"/>
				<stop  offset="0.941" style="stop-color:#637187"/>
				<stop  offset="0.9997" style="stop-color:#7F94AE"/>
				<stop  offset="1" style="stop-color:#7F94AE"/>
			</linearGradient>
			<polygon class="st0" points="102.3,24.5 47.8,56 47.8,131 102.3,162.5 156.8,131 156.8,56 			"/>
			
				<linearGradient id="SVGID_00000108998044232251335150000017148546893788177086_" gradientUnits="userSpaceOnUse" x1="102.33" y1="151.8868" x2="102.33" y2="44.0777" gradientTransform="matrix(1 0 0 -1 0 194.8823)">
				<stop  offset="0" style="stop-color:#292D39"/>
				<stop  offset="0.1944" style="stop-color:#242734"/>
				<stop  offset="0.5456" style="stop-color:#2E2F42"/>
				<stop  offset="1" style="stop-color:#262738"/>
			</linearGradient>
			<polygon style="fill:url(#SVGID_00000108998044232251335150000017148546893788177086_);" points="57.7,125.3 57.7,61.6 
				102.3,35.9 147,61.6 147,125.3 102.3,151.1 			"/>
			
				<linearGradient id="SVGID_00000098936391179685087620000009975599380578616205_" gradientUnits="userSpaceOnUse" x1="102.33" y1="47.5673" x2="102.33" y2="155.2173" gradientTransform="matrix(1 0 0 -1 0 194.8823)">
				<stop  offset="0" style="stop-color:#3F3C51"/>
				<stop  offset="0.353" style="stop-color:#29293B"/>
				<stop  offset="0.5853" style="stop-color:#202132"/>
				<stop  offset="0.6419" style="stop-color:#2B2E3F"/>
				<stop  offset="0.7791" style="stop-color:#424759"/>
				<stop  offset="0.9027" style="stop-color:#4F5768"/>
				<stop  offset="1" style="stop-color:#545C6E"/>
			</linearGradient>
			<polygon style="fill:url(#SVGID_00000098936391179685087620000009975599380578616205_);" points="61,123.4 61,63.5 102.3,39.7 
				143.7,63.5 143.7,123.4 102.3,147.3 			"/>
			<path class="st3" d="M49.2,56.2c-0.7,2,5.1,4.5,9.2,3.6c4.1-0.9,42.4-23.4,43.4-25.4c0.3-0.6,0.3-8.4,0-8.4
				C100.4,25.9,49.5,55.2,49.2,56.2z"/>
			<path class="st3" d="M155.2,56.2c0.7,2-5.1,4.5-9.2,3.6s-42.1-23.6-43.4-25.4c-0.7-0.9-0.9-8.4,0-8.4
				C104,25.9,154.9,55.2,155.2,56.2z"/>
			
				<linearGradient id="SVGID_00000021807321542705633500000004395366020948760738_" gradientUnits="userSpaceOnUse" x1="52.7093" y1="51.0251" x2="52.7093" y2="116.2682" gradientTransform="matrix(1 0 0 -1 0 194.8823)">
				<stop  offset="0" style="stop-color:#705AB8"/>
				<stop  offset="1" style="stop-color:#FFFFFF"/>
			</linearGradient>
			<path style="opacity:0.1;fill:url(#SVGID_00000021807321542705633500000004395366020948760738_);enable-background:new    ;" d="
				M49.1,98.8c-0.4,2.2-1.3,30.7,0,30.9c1.3,0.2,7.2-3.8,7.5-5.7c0.3-1.9,0.4-21.3,0-23.2C56.2,98.9,49.8,95.1,49.1,98.8z"/>
			
				<linearGradient id="SVGID_00000170993978198014079850000006547470906029769646_" gradientUnits="userSpaceOnUse" x1="-4883.1592" y1="51.0251" x2="-4883.1592" y2="116.2682" gradientTransform="matrix(-1 0 0 -1 -4731.4185 194.8823)">
				<stop  offset="0" style="stop-color:#705AB8"/>
				<stop  offset="1" style="stop-color:#FFFFFF"/>
			</linearGradient>
			<path style="opacity:0.1;fill:url(#SVGID_00000170993978198014079850000006547470906029769646_);enable-background:new    ;" d="
				M155.3,98.8c0.4,2.2,1.3,30.7,0,30.9c-1.3,0.2-7.2-3.8-7.5-5.7s-0.4-21.3,0-23.2C148.3,99,154.7,95.1,155.3,98.8z"/>
			
				<linearGradient id="SVGID_00000114772974030246789420000005424549883436557735_" gradientUnits="userSpaceOnUse" x1="62.6515" y1="75.3728" x2="89.0253" y2="32.5965" gradientTransform="matrix(1 0 0 -1 0 194.8823)">
				<stop  offset="0" style="stop-color:#705AB8"/>
				<stop  offset="1" style="stop-color:#FFFFFF"/>
			</linearGradient>
			<path style="opacity:0.1;fill:url(#SVGID_00000114772974030246789420000005424549883436557735_);enable-background:new    ;" d="
				M50.5,130.5c0.7,1,49.7,30,50.5,30c0.4,0,0.9-7.2,0.9-8c0-2.2-43.4-25.3-44.2-25.5C56.6,126.7,49.8,129.5,50.5,130.5z"/>
			
				<linearGradient id="SVGID_00000132807619356454470220000012732417233773417652_" gradientUnits="userSpaceOnUse" x1="121.4079" y1="69.9782" x2="140.2984" y2="13.9635" gradientTransform="matrix(1 0 0 -1 0 194.8823)">
				<stop  offset="0" style="stop-color:#705AB8"/>
				<stop  offset="1" style="stop-color:#FFFFFF"/>
			</linearGradient>
			<path style="opacity:0.1;fill:url(#SVGID_00000132807619356454470220000012732417233773417652_);enable-background:new    ;" d="
				M154.2,131.3c-0.7,1-50.7,29.9-51.4,29.9c-0.2,0-0.2-9,0.2-9.3c1.6-1.6,43-24.7,43.7-24.9C147.9,126.7,154.9,130.3,154.2,131.3z"
				/>
			
				<linearGradient id="SVGID_00000041976198166203298510000005459939052494073476_" gradientUnits="userSpaceOnUse" x1="102.2206" y1="40.1462" x2="102.2206" y2="130.3445" gradientTransform="matrix(1 0 0 -1 0 194.8823)">
				<stop  offset="0" style="stop-color:#121117"/>
				<stop  offset="0.1464" style="stop-color:#14131B"/>
				<stop  offset="0.5853" style="stop-color:#171824"/>
				<stop  offset="1" style="stop-color:#171924"/>
			</linearGradient>
			<path style="fill:url(#SVGID_00000041976198166203298510000005459939052494073476_);" d="M62.9,121.8
				c-2.9-16.6-1.3-17.6,19.3-24.7c20.6-7,55.4-25.1,58.5-17.2s2,41.2,1.3,43.1c-0.7,1.8-36.7,22.5-39.6,22.5
				C99.4,145.6,63.2,123.7,62.9,121.8z"/>
			<path class="st3" d="M142.8,64c-0.7-0.2-38.1-21.8-40.2-21.6c-2,0.2-28,12.3-38.7,21.5c-2.8,2.4-1.8,39.1,0.8,38.4
				c2.6-0.7,4.6-15.5,33.5-23.8c28.5-8.2,40.9-1.1,44,0.2C143,79,144.5,64.4,142.8,64z"/>
			
				<linearGradient id="SVGID_00000082329626931797657490000005691703838536428416_" gradientUnits="userSpaceOnUse" x1="102.33" y1="69.5473" x2="102.33" y2="159.0173" gradientTransform="matrix(1 0 0 -1 0 194.8823)">
				<stop  offset="0" style="stop-color:#FFFFFF"/>
				<stop  offset="0.4444" style="stop-color:#361D4D"/>
				<stop  offset="1" style="stop-color:#000000"/>
			</linearGradient>
			<path style="opacity:0.5;fill:url(#SVGID_00000082329626931797657490000005691703838536428416_);enable-background:new    ;" d="
				M57.7,125.3V61.6l44.6-25.8L147,61.6v63.7l-3.3-1.9c0,0,0.2-55.4-1-57.1c-4.2-6.2-37.3-21.3-42.7-19.6
				C94.5,48.5,65.1,61,61.8,66.2C60.7,68,61,123.4,61,123.4L57.7,125.3z"/>
			<path class="st3" d="M110.7,70.3c11.1,5.1,27.9,5.2,29.4,4.2c1.5-1,2.6-8.1,0.1-9.3c-2.4-1.2-21.5-11.4-26.5-10.3
				C108.7,56,108.7,69.4,110.7,70.3z"/>
			<path class="st10" d="M121.8,47.1c0,0,23.9,13.6,24.3,15.2S147,105,147,105s0.2-41.6,0-43.3C146.8,59.9,121.8,47.1,121.8,47.1z"
				/>
			<path class="st10" d="M57.7,96.5c0,0-0.8-34.4-0.4-35.5c0.4-1.1,45-25.1,45-25.1s-43.1,24.6-44,26.2
				C57.5,63.6,57.7,96.5,57.7,96.5z"/>
			<path class="st10" d="M57.7,109c0,0-0.2,14.7,0.7,15.9c0.8,1.2,22,13.5,22,13.5s-22.9-11.9-23.2-12.6C57,125,57.7,109,57.7,109z"
				/>
			<path class="st3" d="M76.1,138.7c-1.6,0-6.1,1.8-5.1,2.9c0.8,0.9,27.8,17.2,30.9,18.4c1,0.4,0.9-6-0.4-8.1
				C100.8,151,81.1,138.7,76.1,138.7z"/>
			
				<linearGradient id="SVGID_00000125579848493606607040000018400203531813183646_" gradientUnits="userSpaceOnUse" x1="139.4708" y1="47.8473" x2="139.4708" y2="67.2709" gradientTransform="matrix(1 0 0 -1 0 194.8823)">
				<stop  offset="0" style="stop-color:#FFFFFF"/>
				<stop  offset="0.4444" style="stop-color:#881DED"/>
				<stop  offset="1" style="stop-color:#262262"/>
			</linearGradient>
			<path style="opacity:0.1;fill:url(#SVGID_00000125579848493606607040000018400203531813183646_);enable-background:new    ;" d="
				M127.5,138.9c-1.2,5.1-1,8.2-0.3,8.2c0.7,0,24.5-14.3,25.1-14.9c0.7-0.6-3.8-4.8-5.7-4.5C144.8,127.9,127.9,136.9,127.5,138.9z"
				/>
		</g>
		<g class="st12">
			
				<linearGradient id="SVGID_00000016771101162104235990000015525811453484298934_" gradientUnits="userSpaceOnUse" x1="102.115" y1="109.2473" x2="102.115" y2="67.5473" gradientTransform="matrix(1 0 0 -1 0 194.8823)">
				<stop  offset="0" style="stop-color:#4D3463"/>
				<stop  offset="0.4444" style="stop-color:#170529"/>
				<stop  offset="1" style="stop-color:#12121A"/>
			</linearGradient>
			
				<path style="display:inline;opacity:0.5;fill:url(#SVGID_00000016771101162104235990000015525811453484298934_);enable-background:new    ;" d="
				M43.3,85.6l3.7,6.2l0.8,0.5l0,1.8c0,0,3.1,1.6,9.3,5c0.2,0.1,3.9,4,3.9,4s39.8,24.1,41.3,24.1c1.9,0,41.4-24.6,41.4-24.6
				s3.1-2.6,3.4-2.8l9.8-5.1v-2.6l0.7-0.4l3.3-6.2l-58.6,34.5L43.3,85.6z"/>
			
				<linearGradient id="SVGID_00000179630278213705015360000015718970558184042373_" gradientUnits="userSpaceOnUse" x1="102.12" y1="157.8037" x2="102.12" y2="72.0356" gradientTransform="matrix(1 0 0 -1 0 194.8823)">
				<stop  offset="0" style="stop-color:#B16376"/>
				<stop  offset="0.4544" style="stop-color:#574E66"/>
				<stop  offset="0.8056" style="stop-color:#5B469C"/>
				<stop  offset="0.8623" style="stop-color:#614996"/>
				<stop  offset="0.9389" style="stop-color:#725186"/>
				<stop  offset="1" style="stop-color:#855A75"/>
			</linearGradient>
			<path style="display:inline;fill:url(#SVGID_00000179630278213705015360000015718970558184042373_);" d="M102.3,108.8L46,76
				c-2.2,5-2.7,9.6-2.7,9.6l3.7,6.2l55.3,32.1l0,0l55.3-32.1l3.3-6.2c0,0,0-4.7-2-9.6L102.3,108.8z"/>
			
				<linearGradient id="SVGID_00000172413858047963482550000000957049802643819948_" gradientUnits="userSpaceOnUse" x1="43.34" y1="90.0923" x2="160.89" y2="90.0923" gradientTransform="matrix(1 0 0 -1 0 194.8823)">
				<stop  offset="0" style="stop-color:#000000"/>
				<stop  offset="0.4544" style="stop-color:#655482"/>
				<stop  offset="0.8056" style="stop-color:#594573"/>
				<stop  offset="0.8355" style="stop-color:#54416D"/>
				<stop  offset="0.8759" style="stop-color:#47375C"/>
				<stop  offset="0.9223" style="stop-color:#31263F"/>
				<stop  offset="0.9728" style="stop-color:#130F18"/>
				<stop  offset="1" style="stop-color:#000000"/>
			</linearGradient>
			
				<polygon style="display:inline;opacity:0.4;fill:url(#SVGID_00000172413858047963482550000000957049802643819948_);enable-background:new    ;" points="
				47,91.8 43.3,85.6 102.3,120.2 160.9,85.6 157.6,91.8 102.3,123.9 			"/>
			
				<linearGradient id="SVGID_00000029758649704564052640000008997077018012198314_" gradientUnits="userSpaceOnUse" x1="-4576.4419" y1="73.6651" x2="-4572.6782" y2="118.1218" gradientTransform="matrix(-0.9942 0 0 -1 -4416.7588 194.8823)">
				<stop  offset="0" style="stop-color:#705AB8"/>
				<stop  offset="1" style="stop-color:#FFFFFF"/>
			</linearGradient>
			
				<path style="display:inline;opacity:0.5;fill:url(#SVGID_00000029758649704564052640000008997077018012198314_);enable-background:new    ;" d="
				M102.3,108.8v11.3l58.6-34.5c0,0-0.2-5.7-2-9.6L102.3,108.8z"/>
			<path class="st17" d="M48.9,78.5c-1.1,0-0.2,9.5,3.1,11.7c5.2,3.5,36.5,21.9,38.6,22c1.4,0,1.3-8.1,0.9-8.7
				C90.7,102.3,50.5,78.5,48.9,78.5z"/>
			<path class="st17" d="M119.7,99.1c-0.7,0.7-0.6,9.6,0.6,9.3c1.2-0.3,18.9-9.7,27.2-15.8c8.3-6.1,9.5-14.2,7.6-14
				C155.1,78.5,121.1,97.6,119.7,99.1z"/>
			<path class="st18" d="M73.6,103.4c0,0,26.9,16.2,28.7,16.2c1.7,0,23.2-13.1,23.2-13.1s-22.6,14.3-23.2,14.3
				C101.9,120.8,73.6,103.4,73.6,103.4z"/>
		</g>
		<g class="st12">
			
				<linearGradient id="SVGID_00000012453982986514552210000016119024402105078962_" gradientUnits="userSpaceOnUse" x1="102.115" y1="129.2473" x2="102.115" y2="87.5473" gradientTransform="matrix(1 0 0 -1 0 194.8823)">
				<stop  offset="0" style="stop-color:#4D3463"/>
				<stop  offset="0.4444" style="stop-color:#170529"/>
				<stop  offset="1" style="stop-color:#12121A"/>
			</linearGradient>
			
				<path style="display:inline;opacity:0.5;fill:url(#SVGID_00000012453982986514552210000016119024402105078962_);enable-background:new    ;" d="
				M43.3,65.6l3.7,6.2l0.8,0.5l0,1.8c0,0,3.1,1.6,9.3,5c0.2,0.1,3.9,4,3.9,4s39.8,24.1,41.3,24.1c1.9,0,41.4-24.6,41.4-24.6
				s3.1-2.6,3.4-2.8l9.8-5.1v-2.6l0.7-0.4l3.3-6.2l-58.6,34.5L43.3,65.6z"/>
			
				<linearGradient id="SVGID_00000138543822520559995170000000229437721901247130_" gradientUnits="userSpaceOnUse" x1="102.12" y1="177.8037" x2="102.12" y2="92.0356" gradientTransform="matrix(1 0 0 -1 0 194.8823)">
				<stop  offset="0" style="stop-color:#B16376"/>
				<stop  offset="0.4544" style="stop-color:#574E66"/>
				<stop  offset="0.8056" style="stop-color:#5B469C"/>
				<stop  offset="0.8623" style="stop-color:#614996"/>
				<stop  offset="0.9389" style="stop-color:#725186"/>
				<stop  offset="1" style="stop-color:#855A75"/>
			</linearGradient>
			<path style="display:inline;fill:url(#SVGID_00000138543822520559995170000000229437721901247130_);" d="M102.3,88.8L46,56
				c-2.2,5-2.7,9.6-2.7,9.6l3.7,6.2l55.3,32.1l0,0l55.3-32.1l3.3-6.2c0,0,0-4.7-2-9.6L102.3,88.8z"/>
			
				<linearGradient id="SVGID_00000101811924082656538450000007092576614892297901_" gradientUnits="userSpaceOnUse" x1="43.34" y1="110.0923" x2="160.89" y2="110.0923" gradientTransform="matrix(1 0 0 -1 0 194.8823)">
				<stop  offset="0" style="stop-color:#000000"/>
				<stop  offset="0.4544" style="stop-color:#655482"/>
				<stop  offset="0.8056" style="stop-color:#594573"/>
				<stop  offset="0.8355" style="stop-color:#54416D"/>
				<stop  offset="0.8759" style="stop-color:#47375C"/>
				<stop  offset="0.9223" style="stop-color:#31263F"/>
				<stop  offset="0.9728" style="stop-color:#130F18"/>
				<stop  offset="1" style="stop-color:#000000"/>
			</linearGradient>
			
				<polygon style="display:inline;opacity:0.4;fill:url(#SVGID_00000101811924082656538450000007092576614892297901_);enable-background:new    ;" points="
				47,71.8 43.3,65.6 102.3,100.2 160.9,65.6 157.6,71.8 102.3,103.9 			"/>
			
				<linearGradient id="SVGID_00000052071783195406879810000010034667657206349722_" gradientUnits="userSpaceOnUse" x1="-4576.4419" y1="93.6651" x2="-4572.6782" y2="138.1218" gradientTransform="matrix(-0.9942 0 0 -1 -4416.7588 194.8823)">
				<stop  offset="0" style="stop-color:#705AB8"/>
				<stop  offset="1" style="stop-color:#FFFFFF"/>
			</linearGradient>
			
				<path style="display:inline;opacity:0.5;fill:url(#SVGID_00000052071783195406879810000010034667657206349722_);enable-background:new    ;" d="
				M102.3,88.8v11.3l58.6-34.5c0,0-0.2-5.7-2-9.6L102.3,88.8z"/>
			<path class="st17" d="M48.9,58.5c-1.1,0-0.2,9.5,3.1,11.7c5.2,3.5,36.5,21.9,38.6,22c1.4,0,1.3-8.1,0.9-8.7
				C90.7,82.3,50.5,58.5,48.9,58.5z"/>
			<path class="st17" d="M119.7,79.1c-0.7,0.7-0.6,9.6,0.6,9.3c1.2-0.3,18.9-9.7,27.2-15.8c8.3-6.1,9.5-14.2,7.6-14
				C155.1,58.5,121.1,77.6,119.7,79.1z"/>
			<path class="st18" d="M73.6,83.4c0,0,26.9,16.2,28.7,16.2c1.7,0,23.2-13.1,23.2-13.1s-22.6,14.3-23.2,14.3
				C101.9,100.8,73.6,83.4,73.6,83.4z"/>
		</g>
		<g class="st12">
			
				<linearGradient id="SVGID_00000036948594004628330800000010154587835268295065_" gradientUnits="userSpaceOnUse" x1="102.115" y1="89.2473" x2="102.115" y2="47.5473" gradientTransform="matrix(1 0 0 -1 0 194.8823)">
				<stop  offset="0" style="stop-color:#4D3463"/>
				<stop  offset="0.4444" style="stop-color:#170529"/>
				<stop  offset="1" style="stop-color:#12121A"/>
			</linearGradient>
			
				<path style="display:inline;opacity:0.5;fill:url(#SVGID_00000036948594004628330800000010154587835268295065_);enable-background:new    ;" d="
				M43.3,105.6l3.7,6.2l0.8,0.5l0,1.8c0,0,3.1,1.6,9.3,5c0.2,0.1,3.9,4,3.9,4s39.8,24.1,41.3,24.1c1.9,0,41.4-24.6,41.4-24.6
				s3.1-2.6,3.4-2.8l9.8-5.1v-2.6l0.7-0.4l3.3-6.2l-58.6,34.5L43.3,105.6z"/>
			
				<linearGradient id="SVGID_00000097463201859514043970000010210853913759817139_" gradientUnits="userSpaceOnUse" x1="102.12" y1="137.8037" x2="102.12" y2="52.0356" gradientTransform="matrix(1 0 0 -1 0 194.8823)">
				<stop  offset="0" style="stop-color:#B16376"/>
				<stop  offset="0.4544" style="stop-color:#574E66"/>
				<stop  offset="0.8056" style="stop-color:#5B469C"/>
				<stop  offset="0.8623" style="stop-color:#614996"/>
				<stop  offset="0.9389" style="stop-color:#725186"/>
				<stop  offset="1" style="stop-color:#855A75"/>
			</linearGradient>
			<path style="display:inline;fill:url(#SVGID_00000097463201859514043970000010210853913759817139_);" d="M102.3,128.8L46,96
				c-2.2,5-2.7,9.6-2.7,9.6l3.7,6.2l55.3,32.1l0,0l55.3-32.1l3.3-6.2c0,0,0-4.7-2-9.6L102.3,128.8z"/>
			
				<linearGradient id="SVGID_00000049931930327331148710000014302191851399721389_" gradientUnits="userSpaceOnUse" x1="43.34" y1="70.0923" x2="160.89" y2="70.0923" gradientTransform="matrix(1 0 0 -1 0 194.8823)">
				<stop  offset="0" style="stop-color:#000000"/>
				<stop  offset="0.4544" style="stop-color:#655482"/>
				<stop  offset="0.8056" style="stop-color:#594573"/>
				<stop  offset="0.8355" style="stop-color:#54416D"/>
				<stop  offset="0.8759" style="stop-color:#47375C"/>
				<stop  offset="0.9223" style="stop-color:#31263F"/>
				<stop  offset="0.9728" style="stop-color:#130F18"/>
				<stop  offset="1" style="stop-color:#000000"/>
			</linearGradient>
			
				<polygon style="display:inline;opacity:0.4;fill:url(#SVGID_00000049931930327331148710000014302191851399721389_);enable-background:new    ;" points="
				47,111.8 43.3,105.6 102.3,140.2 160.9,105.6 157.6,111.8 102.3,143.9 			"/>
			
				<linearGradient id="SVGID_00000040566836155554030430000003621663523341477539_" gradientUnits="userSpaceOnUse" x1="-4576.4419" y1="53.6651" x2="-4572.6782" y2="98.1218" gradientTransform="matrix(-0.9942 0 0 -1 -4416.7588 194.8823)">
				<stop  offset="0" style="stop-color:#705AB8"/>
				<stop  offset="1" style="stop-color:#FFFFFF"/>
			</linearGradient>
			
				<path style="display:inline;opacity:0.5;fill:url(#SVGID_00000040566836155554030430000003621663523341477539_);enable-background:new    ;" d="
				M102.3,128.8v11.3l58.6-34.5c0,0-0.2-5.7-2-9.6L102.3,128.8z"/>
			<path class="st17" d="M48.9,98.5c-1.1,0-0.2,9.5,3.1,11.7c5.2,3.5,36.5,21.9,38.6,22c1.4,0,1.3-8.1,0.9-8.7
				C90.7,122.3,50.5,98.5,48.9,98.5z"/>
			<path class="st17" d="M119.7,119.1c-0.7,0.7-0.6,9.6,0.6,9.3c1.2-0.3,18.9-9.7,27.2-15.8c8.3-6.1,9.5-14.2,7.6-14
				C155.1,98.5,121.1,117.6,119.7,119.1z"/>
			<path class="st18" d="M73.6,123.4c0,0,26.9,16.2,28.7,16.2c1.7,0,23.2-13.1,23.2-13.1s-22.6,14.3-23.2,14.3
				C101.9,140.8,73.6,123.4,73.6,123.4z"/>
		</g>
	</g>
</g>
<g>
	
		<linearGradient id="SVGID_00000085245554444842471340000006496402294514668721_" gradientUnits="userSpaceOnUse" x1="102.12" y1="111.0874" x2="102.12" y2="73.8966">
		<stop  offset="0" style="stop-color:#000000"/>
		<stop  offset="0.4444" style="stop-color:#000000"/>
		<stop  offset="1" style="stop-color:#000000"/>
	</linearGradient>
	<polygon style="fill:url(#SVGID_00000085245554444842471340000006496402294514668721_);fill-opacity:0.49;" points="102.1,104.7 
		90,111.1 92.3,97.6 82.6,88.1 96.1,86.1 102.1,73.9 108.2,86.1 121.7,88.1 111.9,97.6 114.2,111.1 	"/>
	
		<linearGradient id="SVGID_00000005231614314902492800000001628554084791366281_" gradientUnits="userSpaceOnUse" x1="102.12" y1="110.5352" x2="102.12" y2="69.5288">
		<stop  offset="0" style="stop-color:#D484FF"/>
		<stop  offset="0.4486" style="stop-color:#906CC4"/>
		<stop  offset="0.8056" style="stop-color:#5C50C7"/>
		<stop  offset="0.8889" style="stop-color:#624BC6"/>
		<stop  offset="1" style="stop-color:#733DC4"/>
	</linearGradient>
	<polygon style="fill:url(#SVGID_00000005231614314902492800000001628554084791366281_);" points="120.3,88.6 113.7,87.6 112,87.4 
		107.7,86.7 102.1,75.4 96.5,86.7 84,88.6 93,97.4 90.9,109.9 102.1,104 113.3,109.9 111.2,97.4 	"/>
	<g>
		
			<linearGradient id="SVGID_00000039816480566314211630000007221355180924914593_" gradientUnits="userSpaceOnUse" x1="83.9155" y1="92.9816" x2="102.3804" y2="92.9816">
			<stop  offset="0" style="stop-color:#000000"/>
			<stop  offset="1" style="stop-color:#2B2B2B"/>
		</linearGradient>
		<polygon style="opacity:0.5;fill:url(#SVGID_00000039816480566314211630000007221355180924914593_);" points="83.9,88.6 
			102.4,93.4 93,97.4 		"/>
		
			<linearGradient id="SVGID_00000071546986610207394120000001829701327071957417_" gradientUnits="userSpaceOnUse" x1="102.3804" y1="92.9816" x2="120.1962" y2="92.9816">
			<stop  offset="0" style="stop-color:#000000"/>
			<stop  offset="0.4444" style="stop-color:#000000"/>
			<stop  offset="1" style="stop-color:#000000"/>
		</linearGradient>
		<polygon style="fill:url(#SVGID_00000071546986610207394120000001829701327071957417_);fill-opacity:0.49;" points="120.2,88.6 
			102.4,93.4 111.1,97.4 		"/>
		
			<linearGradient id="SVGID_00000157272473335019612220000009808288948153270158_" gradientUnits="userSpaceOnUse" x1="90.8445" y1="101.6373" x2="102.3804" y2="101.6373">
			<stop  offset="0" style="stop-color:#000000"/>
			<stop  offset="0.4444" style="stop-color:#000000"/>
			<stop  offset="1" style="stop-color:#000000"/>
		</linearGradient>
		<polygon style="fill:url(#SVGID_00000157272473335019612220000009808288948153270158_);fill-opacity:0.49;" points="102.1,104 
			102.4,93.4 90.8,109.9 		"/>
		
			<linearGradient id="SVGID_00000085971472460265803100000004439861206880794260_" gradientUnits="userSpaceOnUse" x1="102.0558" y1="101.6373" x2="113.2672" y2="101.6373">
			<stop  offset="0" style="stop-color:#705AB8"/>
			<stop  offset="1" style="stop-color:#FFFFFF"/>
		</linearGradient>
		<polygon style="opacity:0.5;fill:url(#SVGID_00000085971472460265803100000004439861206880794260_);" points="113.3,109.9 
			102.4,93.4 102.1,104 		"/>
		
			<linearGradient id="SVGID_00000070087888266967841820000001544759356176425882_" gradientUnits="userSpaceOnUse" x1="103.7145" y1="78.0888" x2="106.2247" y2="101.0989">
			<stop  offset="0" style="stop-color:#F0F5FF"/>
			<stop  offset="1" style="stop-color:#260073"/>
		</linearGradient>
		<polygon style="opacity:0.73;fill:url(#SVGID_00000070087888266967841820000001544759356176425882_);" points="102.1,75.4 
			102.4,93.4 107.7,86.7 		"/>
		
			<linearGradient id="SVGID_00000093173201701898535080000007325942145388704699_" gradientUnits="userSpaceOnUse" x1="102.3804" y1="90.064" x2="120.1962" y2="90.064">
			<stop  offset="0" style="stop-color:#AF96FF"/>
			<stop  offset="1" style="stop-color:#4D3396"/>
		</linearGradient>
		<polygon style="opacity:0.78;fill:url(#SVGID_00000093173201701898535080000007325942145388704699_);" points="120.2,88.6 
			102.4,93.4 107.7,86.7 		"/>
		
			<linearGradient id="SVGID_00000117654991816521910790000009035684684045662881_" gradientUnits="userSpaceOnUse" x1="109.81" y1="77.4238" x2="112.3202" y2="100.4339">
			<stop  offset="0" style="stop-color:#FFFFFF"/>
			<stop  offset="1" style="stop-color:#000000"/>
		</linearGradient>
		<polygon style="opacity:0.35;fill:url(#SVGID_00000117654991816521910790000009035684684045662881_);" points="120.2,88.6 
			102.4,93.4 107.7,86.7 		"/>
		
			<linearGradient id="SVGID_00000013879264096776613220000000919750837652648638_" gradientUnits="userSpaceOnUse" x1="91.883" y1="79.3795" x2="94.3932" y2="102.3896">
			<stop  offset="0" style="stop-color:#603CC2"/>
			<stop  offset="1" style="stop-color:#3A2D4F"/>
		</linearGradient>
		<polygon style="opacity:0.5;fill:url(#SVGID_00000013879264096776613220000000919750837652648638_);" points="96.5,86.7 
			102.4,93.4 83.9,88.6 		"/>
		<path class="st37" d="M107.7,90.7c-0.9,0.8-0.1,1.3-0.1,1.3l4.8-1.3C112.3,90.7,109.8,88.9,107.7,90.7z"/>
	</g>
	
		<linearGradient id="SVGID_00000049186328687614087970000011155741661551773098_" gradientUnits="userSpaceOnUse" x1="102.12" y1="109.8862" x2="102.12" y2="103.9921">
		<stop  offset="0" style="stop-color:#FFFFFF"/>
		<stop  offset="0.4444" style="stop-color:#881DED"/>
		<stop  offset="1" style="stop-color:#262262"/>
	</linearGradient>
	<path style="opacity:0.5;fill:url(#SVGID_00000049186328687614087970000011155741661551773098_);" d="M90.9,109.9
		c0,0,8.5-4,11.2-5.1l11.2,5.1l-11.2-5.9L90.9,109.9z"/>
	
		<linearGradient id="SVGID_00000042721486814278193930000007132116141031484325_" gradientUnits="userSpaceOnUse" x1="93.1479" y1="102.1112" x2="93.1479" y2="88.5609">
		<stop  offset="0" style="stop-color:#000000;stop-opacity:0"/>
		<stop  offset="0.4444" style="stop-color:#000000;stop-opacity:0.5"/>
		<stop  offset="1" style="stop-color:#000000"/>
	</linearGradient>
	<polygon style="fill:url(#SVGID_00000042721486814278193930000007132116141031484325_);fill-opacity:0.7;" points="83.9,88.6 
		102.4,93.4 92.2,102.1 	"/>
	
		<linearGradient id="SVGID_00000130634778202801080640000016684124195056285337_" gradientUnits="userSpaceOnUse" x1="111.2882" y1="103.2729" x2="111.2882" y2="88.5609">
		<stop  offset="0" style="stop-color:#000000;stop-opacity:0"/>
		<stop  offset="0.4444" style="stop-color:#000000;stop-opacity:0.5"/>
		<stop  offset="1" style="stop-color:#000000"/>
	</linearGradient>
	<polygon style="fill:url(#SVGID_00000130634778202801080640000016684124195056285337_);fill-opacity:0.7;" points="120.2,88.6 
		102.4,93.4 112.2,103.3 	"/>
	
		<linearGradient id="SVGID_00000134944295326224611750000013176054705896232870_" gradientUnits="userSpaceOnUse" x1="102.12" y1="109.8862" x2="102.12" y2="93.3884">
		<stop  offset="0" style="stop-color:#000000;stop-opacity:0"/>
		<stop  offset="0.4444" style="stop-color:#000000;stop-opacity:0.5"/>
		<stop  offset="1" style="stop-color:#000000"/>
	</linearGradient>
	<polygon style="fill:url(#SVGID_00000134944295326224611750000013176054705896232870_);fill-opacity:0.7;" points="90.9,109.9 
		102.4,93.4 113.3,109.9 102.1,108.1 	"/>
	<path class="st42" d="M97.9,84.8c-1.2,3.3,3.4,5.6,4,4.6c0.6-1,0.2-6.7-0.5-7.5C100.6,81.1,98.4,83.4,97.9,84.8z"/>
	<path class="st43" d="M94.2,101.7c2.4,0.3,3.8-2.4,4.3-4.3C99.3,94.4,89.8,101.1,94.2,101.7z"/>
</g>
</svg>
