<?xml version="1.0" encoding="utf-8"?>
<!-- Generator: Adobe Illustrator 26.4.1, SVG Export Plug-In . SVG Version: 6.00 Build 0)  -->
<svg version="1.1" id="Слой_1" xmlns="http://www.w3.org/2000/svg" xmlns:xlink="http://www.w3.org/1999/xlink" x="0px" y="0px"
	 viewBox="0 0 204.2 194.9" style="enable-background:new 0 0 204.2 194.9;" xml:space="preserve">
<style type="text/css">
	.st0{fill:url(#SVGID_1_);}
	.st1{fill:url(#SVGID_00000081641417832935679330000016871779812507358088_);}
	.st2{fill:url(#SVGID_00000037664598797780330990000012315197730814429845_);}
	.st3{opacity:0.1;fill:#FFFFFF;enable-background:new    ;}
	.st4{opacity:0.1;fill:url(#SVGID_00000173853065192706208370000002392237503047286202_);enable-background:new    ;}
	.st5{opacity:0.1;fill:url(#SVGID_00000136393550128828543620000017324987688608670600_);enable-background:new    ;}
	.st6{opacity:0.1;fill:url(#SVGID_00000085236886413225614960000006902098655839949503_);enable-background:new    ;}
	.st7{opacity:0.1;fill:url(#SVGID_00000158707390731246324620000005350520443418627752_);enable-background:new    ;}
	.st8{fill:url(#SVGID_00000133498455465240874110000008544913854711113358_);}
	.st9{opacity:0.5;fill:url(#SVGID_00000111187056861131670040000003197992762420820374_);enable-background:new    ;}
	.st10{fill:#E6ADFF;}
	.st11{opacity:0.1;fill:url(#SVGID_00000019671164050367991440000017829672024604930948_);enable-background:new    ;}
	.st12{opacity:0.5;fill:url(#SVGID_00000101785901107100880610000018369096499717657733_);enable-background:new    ;}
	.st13{fill:url(#SVGID_00000108999897868826668020000010287191677596728709_);}
	.st14{opacity:0.4;fill:url(#SVGID_00000124146651021373568310000009781435528008847543_);enable-background:new    ;}
	.st15{opacity:0.5;fill:url(#SVGID_00000183944577527523846050000006523567095467788683_);enable-background:new    ;}
	.st16{opacity:0.5;fill:url(#SVGID_00000032608639373191617740000008783903697248136340_);enable-background:new    ;}
	.st17{fill:url(#SVGID_00000148625973299778209030000003273377977254408848_);}
	.st18{opacity:0.4;fill:url(#SVGID_00000004511429647192867390000004339286203635565707_);enable-background:new    ;}
	.st19{opacity:0.5;fill:url(#SVGID_00000082345655570558842310000003447409183498883980_);enable-background:new    ;}
	.st20{opacity:0.5;fill:url(#SVGID_00000008841583020410061610000008677910738759301054_);enable-background:new    ;}
	.st21{fill:url(#SVGID_00000108303069144435151710000004536524056051311744_);}
	.st22{opacity:0.4;fill:url(#SVGID_00000005945156339937833850000005187106118663667867_);enable-background:new    ;}
	.st23{opacity:0.5;fill:url(#SVGID_00000091732152642123700260000013864752136917290645_);enable-background:new    ;}
	.st24{fill:url(#SVGID_00000003062689972240846330000002927547917456971429_);fill-opacity:0.49;}
	.st25{fill:url(#SVGID_00000075844687694359694650000010109168669265320603_);}
	.st26{opacity:0.5;fill:url(#SVGID_00000073707878342207761360000012020518170195455667_);}
	.st27{fill:url(#SVGID_00000108310692605821067380000013067730834385807497_);fill-opacity:0.49;}
	.st28{fill:url(#SVGID_00000036252206307589875630000010589041607690769342_);fill-opacity:0.49;}
	.st29{opacity:0.5;fill:url(#SVGID_00000130613762563888075550000004002496084778521782_);}
	.st30{opacity:0.73;fill:url(#SVGID_00000034086711861394046110000007200347709277997739_);}
	.st31{opacity:0.78;fill:url(#SVGID_00000150814005131094295040000009746209313141673395_);}
	.st32{opacity:0.35;fill:url(#SVGID_00000046301450746687644440000006078041168998024612_);}
	.st33{opacity:0.5;fill:url(#SVGID_00000162322637681676585180000005797826313498820793_);}
	.st34{opacity:0.26;fill:#FFFFFF;}
	.st35{opacity:0.5;fill:url(#SVGID_00000004531384128465098700000000734618792605714351_);}
	.st36{fill:url(#SVGID_00000173862121793015434420000012276064490918791350_);fill-opacity:0.7;}
	.st37{fill:url(#SVGID_00000033349602128065987570000012388667520009638570_);fill-opacity:0.7;}
	.st38{fill:url(#SVGID_00000173852921741921565920000010571513519074511497_);fill-opacity:0.7;}
	.st39{opacity:0.12;fill:#F7FFFF;}
	.st40{opacity:0.1;fill:#F7FFFF;}
</style>
<g>
	<g>
		<g>
			
				<linearGradient id="SVGID_1_" gradientUnits="userSpaceOnUse" x1="102.33" y1="30.0194" x2="102.33" y2="148.3591" gradientTransform="matrix(1 0 0 -1 0 194.8823)">
				<stop  offset="0" style="stop-color:#72466E"/>
				<stop  offset="0.4544" style="stop-color:#27283A"/>
				<stop  offset="0.8056" style="stop-color:#3E4253"/>
				<stop  offset="0.8403" style="stop-color:#424759"/>
				<stop  offset="0.8872" style="stop-color:#4F576A"/>
				<stop  offset="0.941" style="stop-color:#637187"/>
				<stop  offset="0.9997" style="stop-color:#7F94AE"/>
				<stop  offset="1" style="stop-color:#7F94AE"/>
			</linearGradient>
			<polygon class="st0" points="102.3,24.5 47.8,56 47.8,131 102.3,162.5 156.8,131 156.8,56 			"/>
			
				<linearGradient id="SVGID_00000147183767537792096950000002293245829503181698_" gradientUnits="userSpaceOnUse" x1="102.33" y1="151.8868" x2="102.33" y2="44.0777" gradientTransform="matrix(1 0 0 -1 0 194.8823)">
				<stop  offset="0" style="stop-color:#292D39"/>
				<stop  offset="0.1944" style="stop-color:#242734"/>
				<stop  offset="0.5456" style="stop-color:#2E2F42"/>
				<stop  offset="1" style="stop-color:#262738"/>
			</linearGradient>
			<polygon style="fill:url(#SVGID_00000147183767537792096950000002293245829503181698_);" points="57.7,125.3 57.7,61.6 
				102.3,35.9 147,61.6 147,125.3 102.3,151.1 			"/>
			
				<linearGradient id="SVGID_00000068643178397970622490000008986832162059117184_" gradientUnits="userSpaceOnUse" x1="102.33" y1="47.5673" x2="102.33" y2="155.2173" gradientTransform="matrix(1 0 0 -1 0 194.8823)">
				<stop  offset="0" style="stop-color:#3F3C51"/>
				<stop  offset="0.353" style="stop-color:#29293B"/>
				<stop  offset="0.5853" style="stop-color:#202132"/>
				<stop  offset="0.6419" style="stop-color:#2B2E3F"/>
				<stop  offset="0.7791" style="stop-color:#424759"/>
				<stop  offset="0.9027" style="stop-color:#4F5768"/>
				<stop  offset="1" style="stop-color:#545C6E"/>
			</linearGradient>
			<polygon style="fill:url(#SVGID_00000068643178397970622490000008986832162059117184_);" points="61,123.4 61,63.5 102.3,39.7 
				143.7,63.5 143.7,123.4 102.3,147.3 			"/>
			<path class="st3" d="M49.2,56.2c-0.7,2,5.1,4.5,9.2,3.6c4.1-0.9,42.4-23.4,43.4-25.4c0.3-0.6,0.3-8.4,0-8.4
				C100.4,25.9,49.5,55.2,49.2,56.2z"/>
			<path class="st3" d="M155.2,56.2c0.7,2-5.1,4.5-9.2,3.6s-42.1-23.6-43.4-25.4c-0.7-0.9-0.9-8.4,0-8.4
				C104,25.9,154.9,55.2,155.2,56.2z"/>
			
				<linearGradient id="SVGID_00000143583229653000023690000014201256006078877601_" gradientUnits="userSpaceOnUse" x1="52.7093" y1="51.0251" x2="52.7093" y2="116.2682" gradientTransform="matrix(1 0 0 -1 0 194.8823)">
				<stop  offset="0" style="stop-color:#705AB8"/>
				<stop  offset="1" style="stop-color:#FFFFFF"/>
			</linearGradient>
			<path style="opacity:0.1;fill:url(#SVGID_00000143583229653000023690000014201256006078877601_);enable-background:new    ;" d="
				M49.1,98.8c-0.4,2.2-1.3,30.7,0,30.9c1.3,0.2,7.2-3.8,7.5-5.7c0.3-1.9,0.4-21.3,0-23.2C56.2,98.9,49.8,95.1,49.1,98.8z"/>
			
				<linearGradient id="SVGID_00000052803682121459974550000014315193952574726562_" gradientUnits="userSpaceOnUse" x1="-4883.1592" y1="51.0251" x2="-4883.1592" y2="116.2682" gradientTransform="matrix(-1 0 0 -1 -4731.4185 194.8823)">
				<stop  offset="0" style="stop-color:#705AB8"/>
				<stop  offset="1" style="stop-color:#FFFFFF"/>
			</linearGradient>
			<path style="opacity:0.1;fill:url(#SVGID_00000052803682121459974550000014315193952574726562_);enable-background:new    ;" d="
				M155.3,98.8c0.4,2.2,1.3,30.7,0,30.9c-1.3,0.2-7.2-3.8-7.5-5.7s-0.4-21.3,0-23.2C148.3,99,154.7,95.1,155.3,98.8z"/>
			
				<linearGradient id="SVGID_00000075128333510306423670000000202292363308153787_" gradientUnits="userSpaceOnUse" x1="62.6515" y1="75.3728" x2="89.0253" y2="32.5965" gradientTransform="matrix(1 0 0 -1 0 194.8823)">
				<stop  offset="0" style="stop-color:#705AB8"/>
				<stop  offset="1" style="stop-color:#FFFFFF"/>
			</linearGradient>
			<path style="opacity:0.1;fill:url(#SVGID_00000075128333510306423670000000202292363308153787_);enable-background:new    ;" d="
				M50.5,130.5c0.7,1,49.7,30,50.5,30c0.4,0,0.9-7.2,0.9-8c0-2.2-43.4-25.3-44.2-25.5C56.6,126.7,49.8,129.5,50.5,130.5z"/>
			
				<linearGradient id="SVGID_00000054225088012467568370000003424230497507849090_" gradientUnits="userSpaceOnUse" x1="121.4079" y1="69.9782" x2="140.2984" y2="13.9635" gradientTransform="matrix(1 0 0 -1 0 194.8823)">
				<stop  offset="0" style="stop-color:#705AB8"/>
				<stop  offset="1" style="stop-color:#FFFFFF"/>
			</linearGradient>
			<path style="opacity:0.1;fill:url(#SVGID_00000054225088012467568370000003424230497507849090_);enable-background:new    ;" d="
				M154.2,131.3c-0.7,1-50.7,29.9-51.4,29.9c-0.2,0-0.2-9,0.2-9.3c1.6-1.6,43-24.7,43.7-24.9C147.9,126.7,154.9,130.3,154.2,131.3z"
				/>
			
				<linearGradient id="SVGID_00000140014582715802250230000008512036810798083216_" gradientUnits="userSpaceOnUse" x1="102.2206" y1="40.1462" x2="102.2206" y2="130.3445" gradientTransform="matrix(1 0 0 -1 0 194.8823)">
				<stop  offset="0" style="stop-color:#121117"/>
				<stop  offset="0.1464" style="stop-color:#14131B"/>
				<stop  offset="0.5853" style="stop-color:#171824"/>
				<stop  offset="1" style="stop-color:#171924"/>
			</linearGradient>
			<path style="fill:url(#SVGID_00000140014582715802250230000008512036810798083216_);" d="M62.9,121.8
				c-2.9-16.6-1.3-17.6,19.3-24.7c20.6-7,55.4-25.1,58.5-17.2s2,41.2,1.3,43.1c-0.7,1.8-36.7,22.5-39.6,22.5
				C99.4,145.6,63.2,123.7,62.9,121.8z"/>
			<path class="st3" d="M142.8,64c-0.7-0.2-38.1-21.8-40.2-21.6c-2,0.2-28,12.3-38.7,21.5c-2.8,2.4-1.8,39.1,0.8,38.4
				c2.6-0.7,4.6-15.5,33.5-23.8c28.5-8.2,40.9-1.1,44,0.2C143,79,144.5,64.4,142.8,64z"/>
			
				<linearGradient id="SVGID_00000138543168761350156090000003294676209241944753_" gradientUnits="userSpaceOnUse" x1="102.33" y1="69.5473" x2="102.33" y2="159.0173" gradientTransform="matrix(1 0 0 -1 0 194.8823)">
				<stop  offset="0" style="stop-color:#FFFFFF"/>
				<stop  offset="0.4444" style="stop-color:#361D4D"/>
				<stop  offset="1" style="stop-color:#000000"/>
			</linearGradient>
			<path style="opacity:0.5;fill:url(#SVGID_00000138543168761350156090000003294676209241944753_);enable-background:new    ;" d="
				M57.7,125.3V61.6l44.6-25.8L147,61.6v63.7l-3.3-1.9c0,0,0.2-55.4-1-57.1c-4.2-6.2-37.3-21.3-42.7-19.6
				C94.5,48.5,65.1,61,61.8,66.2C60.7,68,61,123.4,61,123.4L57.7,125.3z"/>
			<path class="st3" d="M110.7,70.3c11.1,5.1,27.9,5.2,29.4,4.2c1.5-1,2.6-8.1,0.1-9.3c-2.4-1.2-21.5-11.4-26.5-10.3
				C108.7,56,108.7,69.4,110.7,70.3z"/>
			<path class="st10" d="M121.8,47.1c0,0,23.9,13.6,24.3,15.2S147,105,147,105s0.2-41.6,0-43.3C146.8,59.9,121.8,47.1,121.8,47.1z"
				/>
			<path class="st10" d="M57.7,96.5c0,0-0.8-34.4-0.4-35.5c0.4-1.1,45-25.1,45-25.1s-43.1,24.6-44,26.2
				C57.5,63.6,57.7,96.5,57.7,96.5z"/>
			<path class="st10" d="M57.7,109c0,0-0.2,14.7,0.7,15.9c0.8,1.2,22,13.5,22,13.5s-22.9-11.9-23.2-12.6C57,125,57.7,109,57.7,109z"
				/>
			<path class="st3" d="M76.1,138.7c-1.6,0-6.1,1.8-5.1,2.9c0.8,0.9,27.8,17.2,30.9,18.4c1,0.4,0.9-6-0.4-8.1
				C100.8,151,81.1,138.7,76.1,138.7z"/>
			
				<linearGradient id="SVGID_00000150810494034427629520000015631671201196006819_" gradientUnits="userSpaceOnUse" x1="139.4708" y1="47.8473" x2="139.4708" y2="67.2709" gradientTransform="matrix(1 0 0 -1 0 194.8823)">
				<stop  offset="0" style="stop-color:#FFFFFF"/>
				<stop  offset="0.4444" style="stop-color:#881DED"/>
				<stop  offset="1" style="stop-color:#262262"/>
			</linearGradient>
			<path style="opacity:0.1;fill:url(#SVGID_00000150810494034427629520000015631671201196006819_);enable-background:new    ;" d="
				M127.5,138.9c-1.2,5.1-1,8.2-0.3,8.2c0.7,0,24.5-14.3,25.1-14.9c0.7-0.6-3.8-4.8-5.7-4.5C144.8,127.9,127.9,136.9,127.5,138.9z"
				/>
		</g>
		<g>
			
				<linearGradient id="SVGID_00000044886683251429173840000012302434582674969218_" gradientUnits="userSpaceOnUse" x1="102.115" y1="109.2473" x2="102.115" y2="67.5473" gradientTransform="matrix(1 0 0 -1 0 194.8823)">
				<stop  offset="0" style="stop-color:#4D3463"/>
				<stop  offset="0.4444" style="stop-color:#170529"/>
				<stop  offset="1" style="stop-color:#12121A"/>
			</linearGradient>
			<path style="opacity:0.5;fill:url(#SVGID_00000044886683251429173840000012302434582674969218_);enable-background:new    ;" d="
				M43.3,85.6l3.7,6.2l0.8,0.5l0,1.8c0,0,3.1,1.6,9.3,5c0.2,0.1,3.9,4,3.9,4s39.8,24.1,41.3,24.1c1.9,0,41.4-24.6,41.4-24.6
				s3.1-2.6,3.4-2.8l9.8-5.1v-2.6l0.7-0.4l3.3-6.2l-58.6,34.5L43.3,85.6z"/>
			
				<linearGradient id="SVGID_00000021097460202970435290000002032705313224243853_" gradientUnits="userSpaceOnUse" x1="102.12" y1="157.8037" x2="102.12" y2="72.0356" gradientTransform="matrix(1 0 0 -1 0 194.8823)">
				<stop  offset="0" style="stop-color:#B16376"/>
				<stop  offset="0.4544" style="stop-color:#574E66"/>
				<stop  offset="0.8056" style="stop-color:#5B469C"/>
				<stop  offset="0.8623" style="stop-color:#614996"/>
				<stop  offset="0.9389" style="stop-color:#725186"/>
				<stop  offset="1" style="stop-color:#855A75"/>
			</linearGradient>
			<path style="fill:url(#SVGID_00000021097460202970435290000002032705313224243853_);" d="M102.3,108.8L46,76
				c-2.2,5-2.7,9.6-2.7,9.6l3.7,6.2l55.3,32.1l0,0l55.3-32.1l3.3-6.2c0,0,0-4.7-2-9.6L102.3,108.8z"/>
			
				<linearGradient id="SVGID_00000009588271573593386710000014547538739357393034_" gradientUnits="userSpaceOnUse" x1="43.34" y1="90.0923" x2="160.89" y2="90.0923" gradientTransform="matrix(1 0 0 -1 0 194.8823)">
				<stop  offset="0" style="stop-color:#000000"/>
				<stop  offset="0.4544" style="stop-color:#655482"/>
				<stop  offset="0.8056" style="stop-color:#594573"/>
				<stop  offset="0.8355" style="stop-color:#54416D"/>
				<stop  offset="0.8759" style="stop-color:#47375C"/>
				<stop  offset="0.9223" style="stop-color:#31263F"/>
				<stop  offset="0.9728" style="stop-color:#130F18"/>
				<stop  offset="1" style="stop-color:#000000"/>
			</linearGradient>
			
				<polygon style="opacity:0.4;fill:url(#SVGID_00000009588271573593386710000014547538739357393034_);enable-background:new    ;" points="
				47,91.8 43.3,85.6 102.3,120.2 160.9,85.6 157.6,91.8 102.3,123.9 			"/>
			
				<linearGradient id="SVGID_00000093167490645085211620000011994795246937492905_" gradientUnits="userSpaceOnUse" x1="-4576.4419" y1="73.6651" x2="-4572.6782" y2="118.1218" gradientTransform="matrix(-0.9942 0 0 -1 -4416.7588 194.8823)">
				<stop  offset="0" style="stop-color:#705AB8"/>
				<stop  offset="1" style="stop-color:#FFFFFF"/>
			</linearGradient>
			<path style="opacity:0.5;fill:url(#SVGID_00000093167490645085211620000011994795246937492905_);enable-background:new    ;" d="
				M102.3,108.8v11.3l58.6-34.5c0,0-0.2-5.7-2-9.6L102.3,108.8z"/>
			<path class="st3" d="M48.9,78.5c-1.1,0-0.2,9.5,3.1,11.7c5.2,3.5,36.5,21.9,38.6,22c1.4,0,1.3-8.1,0.9-8.7
				C90.7,102.3,50.5,78.5,48.9,78.5z"/>
			<path class="st3" d="M119.7,99.1c-0.7,0.7-0.6,9.6,0.6,9.3c1.2-0.3,18.9-9.7,27.2-15.8c8.3-6.1,9.5-14.2,7.6-14
				C155.1,78.5,121.1,97.6,119.7,99.1z"/>
			<path class="st10" d="M73.6,103.4c0,0,26.9,16.2,28.7,16.2c1.7,0,23.2-13.1,23.2-13.1s-22.6,14.3-23.2,14.3
				C101.9,120.8,73.6,103.4,73.6,103.4z"/>
		</g>
		<g>
			
				<linearGradient id="SVGID_00000042701650846341481650000004698754098089513117_" gradientUnits="userSpaceOnUse" x1="102.115" y1="129.2473" x2="102.115" y2="87.5473" gradientTransform="matrix(1 0 0 -1 0 194.8823)">
				<stop  offset="0" style="stop-color:#4D3463"/>
				<stop  offset="0.4444" style="stop-color:#170529"/>
				<stop  offset="1" style="stop-color:#12121A"/>
			</linearGradient>
			<path style="opacity:0.5;fill:url(#SVGID_00000042701650846341481650000004698754098089513117_);enable-background:new    ;" d="
				M43.3,65.6l3.7,6.2l0.8,0.5l0,1.8c0,0,3.1,1.6,9.3,5c0.2,0.1,3.9,4,3.9,4s39.8,24.1,41.3,24.1c1.9,0,41.4-24.6,41.4-24.6
				s3.1-2.6,3.4-2.8l9.8-5.1v-2.6l0.7-0.4l3.3-6.2l-58.6,34.5L43.3,65.6z"/>
			
				<linearGradient id="SVGID_00000067204453602695498460000001704884505325086136_" gradientUnits="userSpaceOnUse" x1="102.12" y1="177.8037" x2="102.12" y2="92.0356" gradientTransform="matrix(1 0 0 -1 0 194.8823)">
				<stop  offset="0" style="stop-color:#B16376"/>
				<stop  offset="0.4544" style="stop-color:#574E66"/>
				<stop  offset="0.8056" style="stop-color:#5B469C"/>
				<stop  offset="0.8623" style="stop-color:#614996"/>
				<stop  offset="0.9389" style="stop-color:#725186"/>
				<stop  offset="1" style="stop-color:#855A75"/>
			</linearGradient>
			<path style="fill:url(#SVGID_00000067204453602695498460000001704884505325086136_);" d="M102.3,88.8L46,56
				c-2.2,5-2.7,9.6-2.7,9.6l3.7,6.2l55.3,32.1l0,0l55.3-32.1l3.3-6.2c0,0,0-4.7-2-9.6L102.3,88.8z"/>
			
				<linearGradient id="SVGID_00000088127051637517952940000000365650998433628314_" gradientUnits="userSpaceOnUse" x1="43.34" y1="110.0923" x2="160.89" y2="110.0923" gradientTransform="matrix(1 0 0 -1 0 194.8823)">
				<stop  offset="0" style="stop-color:#000000"/>
				<stop  offset="0.4544" style="stop-color:#655482"/>
				<stop  offset="0.8056" style="stop-color:#594573"/>
				<stop  offset="0.8355" style="stop-color:#54416D"/>
				<stop  offset="0.8759" style="stop-color:#47375C"/>
				<stop  offset="0.9223" style="stop-color:#31263F"/>
				<stop  offset="0.9728" style="stop-color:#130F18"/>
				<stop  offset="1" style="stop-color:#000000"/>
			</linearGradient>
			
				<polygon style="opacity:0.4;fill:url(#SVGID_00000088127051637517952940000000365650998433628314_);enable-background:new    ;" points="
				47,71.8 43.3,65.6 102.3,100.2 160.9,65.6 157.6,71.8 102.3,103.9 			"/>
			
				<linearGradient id="SVGID_00000018229556976020221910000012359878585943377310_" gradientUnits="userSpaceOnUse" x1="-4576.4419" y1="93.6651" x2="-4572.6782" y2="138.1218" gradientTransform="matrix(-0.9942 0 0 -1 -4416.7588 194.8823)">
				<stop  offset="0" style="stop-color:#705AB8"/>
				<stop  offset="1" style="stop-color:#FFFFFF"/>
			</linearGradient>
			<path style="opacity:0.5;fill:url(#SVGID_00000018229556976020221910000012359878585943377310_);enable-background:new    ;" d="
				M102.3,88.8v11.3l58.6-34.5c0,0-0.2-5.7-2-9.6L102.3,88.8z"/>
			<path class="st3" d="M48.9,58.5c-1.1,0-0.2,9.5,3.1,11.7c5.2,3.5,36.5,21.9,38.6,22c1.4,0,1.3-8.1,0.9-8.7
				C90.7,82.3,50.5,58.5,48.9,58.5z"/>
			<path class="st3" d="M119.7,79.1c-0.7,0.7-0.6,9.6,0.6,9.3c1.2-0.3,18.9-9.7,27.2-15.8c8.3-6.1,9.5-14.2,7.6-14
				C155.1,58.5,121.1,77.6,119.7,79.1z"/>
			<path class="st10" d="M73.6,83.4c0,0,26.9,16.2,28.7,16.2c1.7,0,23.2-13.1,23.2-13.1s-22.6,14.3-23.2,14.3
				C101.9,100.8,73.6,83.4,73.6,83.4z"/>
		</g>
		<g>
			
				<linearGradient id="SVGID_00000060028822869316055420000007202831121814266752_" gradientUnits="userSpaceOnUse" x1="102.115" y1="89.2473" x2="102.115" y2="47.5473" gradientTransform="matrix(1 0 0 -1 0 194.8823)">
				<stop  offset="0" style="stop-color:#4D3463"/>
				<stop  offset="0.4444" style="stop-color:#170529"/>
				<stop  offset="1" style="stop-color:#12121A"/>
			</linearGradient>
			<path style="opacity:0.5;fill:url(#SVGID_00000060028822869316055420000007202831121814266752_);enable-background:new    ;" d="
				M43.3,105.6l3.7,6.2l0.8,0.5l0,1.8c0,0,3.1,1.6,9.3,5c0.2,0.1,3.9,4,3.9,4s39.8,24.1,41.3,24.1c1.9,0,41.4-24.6,41.4-24.6
				s3.1-2.6,3.4-2.8l9.8-5.1v-2.6l0.7-0.4l3.3-6.2l-58.6,34.5L43.3,105.6z"/>
			
				<linearGradient id="SVGID_00000091006563364949543070000015036713353311414201_" gradientUnits="userSpaceOnUse" x1="102.12" y1="137.8037" x2="102.12" y2="52.0356" gradientTransform="matrix(1 0 0 -1 0 194.8823)">
				<stop  offset="0" style="stop-color:#B16376"/>
				<stop  offset="0.4544" style="stop-color:#574E66"/>
				<stop  offset="0.8056" style="stop-color:#5B469C"/>
				<stop  offset="0.8623" style="stop-color:#614996"/>
				<stop  offset="0.9389" style="stop-color:#725186"/>
				<stop  offset="1" style="stop-color:#855A75"/>
			</linearGradient>
			<path style="fill:url(#SVGID_00000091006563364949543070000015036713353311414201_);" d="M102.3,128.8L46,96
				c-2.2,5-2.7,9.6-2.7,9.6l3.7,6.2l55.3,32.1l0,0l55.3-32.1l3.3-6.2c0,0,0-4.7-2-9.6L102.3,128.8z"/>
			
				<linearGradient id="SVGID_00000075163260400853829550000004088466844846958243_" gradientUnits="userSpaceOnUse" x1="43.34" y1="70.0923" x2="160.89" y2="70.0923" gradientTransform="matrix(1 0 0 -1 0 194.8823)">
				<stop  offset="0" style="stop-color:#000000"/>
				<stop  offset="0.4544" style="stop-color:#655482"/>
				<stop  offset="0.8056" style="stop-color:#594573"/>
				<stop  offset="0.8355" style="stop-color:#54416D"/>
				<stop  offset="0.8759" style="stop-color:#47375C"/>
				<stop  offset="0.9223" style="stop-color:#31263F"/>
				<stop  offset="0.9728" style="stop-color:#130F18"/>
				<stop  offset="1" style="stop-color:#000000"/>
			</linearGradient>
			
				<polygon style="opacity:0.4;fill:url(#SVGID_00000075163260400853829550000004088466844846958243_);enable-background:new    ;" points="
				47,111.8 43.3,105.6 102.3,140.2 160.9,105.6 157.6,111.8 102.3,143.9 			"/>
			
				<linearGradient id="SVGID_00000171716921869230283370000003876362455687935149_" gradientUnits="userSpaceOnUse" x1="-4576.4419" y1="53.6651" x2="-4572.6782" y2="98.1218" gradientTransform="matrix(-0.9942 0 0 -1 -4416.7588 194.8823)">
				<stop  offset="0" style="stop-color:#705AB8"/>
				<stop  offset="1" style="stop-color:#FFFFFF"/>
			</linearGradient>
			<path style="opacity:0.5;fill:url(#SVGID_00000171716921869230283370000003876362455687935149_);enable-background:new    ;" d="
				M102.3,128.8v11.3l58.6-34.5c0,0-0.2-5.7-2-9.6L102.3,128.8z"/>
			<path class="st3" d="M48.9,98.5c-1.1,0-0.2,9.5,3.1,11.7c5.2,3.5,36.5,21.9,38.6,22c1.4,0,1.3-8.1,0.9-8.7
				C90.7,122.3,50.5,98.5,48.9,98.5z"/>
			<path class="st3" d="M119.7,119.1c-0.7,0.7-0.6,9.6,0.6,9.3c1.2-0.3,18.9-9.7,27.2-15.8c8.3-6.1,9.5-14.2,7.6-14
				C155.1,98.5,121.1,117.6,119.7,119.1z"/>
			<path class="st10" d="M73.6,123.4c0,0,26.9,16.2,28.7,16.2c1.7,0,23.2-13.1,23.2-13.1s-22.6,14.3-23.2,14.3
				C101.9,140.8,73.6,123.4,73.6,123.4z"/>
		</g>
	</g>
</g>
<g>
	
		<linearGradient id="SVGID_00000040549353539797841980000002579319753148445603_" gradientUnits="userSpaceOnUse" x1="102.12" y1="80.0874" x2="102.12" y2="42.8966">
		<stop  offset="0" style="stop-color:#000000"/>
		<stop  offset="0.4444" style="stop-color:#000000"/>
		<stop  offset="1" style="stop-color:#000000"/>
	</linearGradient>
	<polygon style="fill:url(#SVGID_00000040549353539797841980000002579319753148445603_);fill-opacity:0.49;" points="102.1,73.7 
		90,80.1 92.3,66.6 82.6,57.1 96.1,55.1 102.1,42.9 108.2,55.1 121.7,57.1 111.9,66.6 114.2,80.1 	"/>
	
		<linearGradient id="SVGID_00000021831468911610484240000017027834186067609477_" gradientUnits="userSpaceOnUse" x1="102.12" y1="79.5352" x2="102.12" y2="38.5288">
		<stop  offset="0" style="stop-color:#D484FF"/>
		<stop  offset="0.4486" style="stop-color:#906CC4"/>
		<stop  offset="0.8056" style="stop-color:#5C50C7"/>
		<stop  offset="0.8889" style="stop-color:#624BC6"/>
		<stop  offset="1" style="stop-color:#733DC4"/>
	</linearGradient>
	<polygon style="fill:url(#SVGID_00000021831468911610484240000017027834186067609477_);" points="120.3,57.6 113.7,56.6 112,56.4 
		107.7,55.7 102.1,44.4 96.5,55.7 84,57.6 93,66.4 90.9,78.9 102.1,73 113.3,78.9 111.2,66.4 	"/>
	<g>
		
			<linearGradient id="SVGID_00000071561996011375134940000000591862903902608782_" gradientUnits="userSpaceOnUse" x1="83.9155" y1="61.9816" x2="102.3804" y2="61.9816">
			<stop  offset="0" style="stop-color:#000000"/>
			<stop  offset="1" style="stop-color:#2B2B2B"/>
		</linearGradient>
		<polygon style="opacity:0.5;fill:url(#SVGID_00000071561996011375134940000000591862903902608782_);" points="83.9,57.6 
			102.4,62.4 93,66.4 		"/>
		
			<linearGradient id="SVGID_00000034071816952549327060000007097696748948128674_" gradientUnits="userSpaceOnUse" x1="102.3804" y1="61.9816" x2="120.1962" y2="61.9816">
			<stop  offset="0" style="stop-color:#000000"/>
			<stop  offset="0.4444" style="stop-color:#000000"/>
			<stop  offset="1" style="stop-color:#000000"/>
		</linearGradient>
		<polygon style="fill:url(#SVGID_00000034071816952549327060000007097696748948128674_);fill-opacity:0.49;" points="120.2,57.6 
			102.4,62.4 111.1,66.4 		"/>
		
			<linearGradient id="SVGID_00000161605437139268743010000003802263414114869911_" gradientUnits="userSpaceOnUse" x1="90.8445" y1="70.6373" x2="102.3804" y2="70.6373">
			<stop  offset="0" style="stop-color:#000000"/>
			<stop  offset="0.4444" style="stop-color:#000000"/>
			<stop  offset="1" style="stop-color:#000000"/>
		</linearGradient>
		<polygon style="fill:url(#SVGID_00000161605437139268743010000003802263414114869911_);fill-opacity:0.49;" points="102.1,73 
			102.4,62.4 90.8,78.9 		"/>
		
			<linearGradient id="SVGID_00000027565899178671509830000006258863402311425164_" gradientUnits="userSpaceOnUse" x1="102.0558" y1="70.6373" x2="113.2672" y2="70.6373">
			<stop  offset="0" style="stop-color:#705AB8"/>
			<stop  offset="1" style="stop-color:#FFFFFF"/>
		</linearGradient>
		<polygon style="opacity:0.5;fill:url(#SVGID_00000027565899178671509830000006258863402311425164_);" points="113.3,78.9 
			102.4,62.4 102.1,73 		"/>
		
			<linearGradient id="SVGID_00000033331365863004115470000015561640940664970400_" gradientUnits="userSpaceOnUse" x1="103.7145" y1="47.0888" x2="106.2247" y2="70.0989">
			<stop  offset="0" style="stop-color:#F0F5FF"/>
			<stop  offset="1" style="stop-color:#260073"/>
		</linearGradient>
		<polygon style="opacity:0.73;fill:url(#SVGID_00000033331365863004115470000015561640940664970400_);" points="102.1,44.4 
			102.4,62.4 107.7,55.7 		"/>
		
			<linearGradient id="SVGID_00000122678500478347187240000010131585761675357580_" gradientUnits="userSpaceOnUse" x1="102.3804" y1="59.064" x2="120.1962" y2="59.064">
			<stop  offset="0" style="stop-color:#AF96FF"/>
			<stop  offset="1" style="stop-color:#4D3396"/>
		</linearGradient>
		<polygon style="opacity:0.78;fill:url(#SVGID_00000122678500478347187240000010131585761675357580_);" points="120.2,57.6 
			102.4,62.4 107.7,55.7 		"/>
		
			<linearGradient id="SVGID_00000074430983665326288620000004709166322484110731_" gradientUnits="userSpaceOnUse" x1="109.81" y1="46.4238" x2="112.3202" y2="69.4339">
			<stop  offset="0" style="stop-color:#FFFFFF"/>
			<stop  offset="1" style="stop-color:#000000"/>
		</linearGradient>
		<polygon style="opacity:0.35;fill:url(#SVGID_00000074430983665326288620000004709166322484110731_);" points="120.2,57.6 
			102.4,62.4 107.7,55.7 		"/>
		
			<linearGradient id="SVGID_00000071536999079875878230000012151106660186234543_" gradientUnits="userSpaceOnUse" x1="91.883" y1="48.3795" x2="94.3932" y2="71.3896">
			<stop  offset="0" style="stop-color:#603CC2"/>
			<stop  offset="1" style="stop-color:#3A2D4F"/>
		</linearGradient>
		<polygon style="opacity:0.5;fill:url(#SVGID_00000071536999079875878230000012151106660186234543_);" points="96.5,55.7 
			102.4,62.4 83.9,57.6 		"/>
		<path class="st34" d="M107.7,59.7c-0.9,0.8-0.1,1.3-0.1,1.3l4.8-1.3C112.3,59.7,109.8,57.9,107.7,59.7z"/>
	</g>
	
		<linearGradient id="SVGID_00000042015309825298738710000004318010628904084918_" gradientUnits="userSpaceOnUse" x1="102.12" y1="78.8862" x2="102.12" y2="72.9921">
		<stop  offset="0" style="stop-color:#FFFFFF"/>
		<stop  offset="0.4444" style="stop-color:#881DED"/>
		<stop  offset="1" style="stop-color:#262262"/>
	</linearGradient>
	<path style="opacity:0.5;fill:url(#SVGID_00000042015309825298738710000004318010628904084918_);" d="M90.9,78.9
		c0,0,8.5-4,11.2-5.1l11.2,5.1L102.1,73L90.9,78.9z"/>
	
		<linearGradient id="SVGID_00000128457178088847054520000010807858679357488279_" gradientUnits="userSpaceOnUse" x1="93.1479" y1="71.1112" x2="93.1479" y2="57.5609">
		<stop  offset="0" style="stop-color:#000000;stop-opacity:0"/>
		<stop  offset="0.4444" style="stop-color:#000000;stop-opacity:0.5"/>
		<stop  offset="1" style="stop-color:#000000"/>
	</linearGradient>
	<polygon style="fill:url(#SVGID_00000128457178088847054520000010807858679357488279_);fill-opacity:0.7;" points="83.9,57.6 
		102.4,62.4 92.2,71.1 	"/>
	
		<linearGradient id="SVGID_00000023961351295755848420000005089719489053935750_" gradientUnits="userSpaceOnUse" x1="111.2882" y1="72.2729" x2="111.2882" y2="57.5609">
		<stop  offset="0" style="stop-color:#000000;stop-opacity:0"/>
		<stop  offset="0.4444" style="stop-color:#000000;stop-opacity:0.5"/>
		<stop  offset="1" style="stop-color:#000000"/>
	</linearGradient>
	<polygon style="fill:url(#SVGID_00000023961351295755848420000005089719489053935750_);fill-opacity:0.7;" points="120.2,57.6 
		102.4,62.4 112.2,72.3 	"/>
	
		<linearGradient id="SVGID_00000118389118089585797070000009864617755693386880_" gradientUnits="userSpaceOnUse" x1="102.12" y1="78.8862" x2="102.12" y2="62.3884">
		<stop  offset="0" style="stop-color:#000000;stop-opacity:0"/>
		<stop  offset="0.4444" style="stop-color:#000000;stop-opacity:0.5"/>
		<stop  offset="1" style="stop-color:#000000"/>
	</linearGradient>
	<polygon style="fill:url(#SVGID_00000118389118089585797070000009864617755693386880_);fill-opacity:0.7;" points="90.9,78.9 
		102.4,62.4 113.3,78.9 102.1,77.1 	"/>
	<path class="st39" d="M97.9,53.8c-1.2,3.3,3.4,5.6,4,4.6c0.6-1,0.2-6.7-0.5-7.5C100.6,50.1,98.4,52.4,97.9,53.8z"/>
	<path class="st40" d="M94.2,70.7c2.4,0.3,3.8-2.4,4.3-4.3C99.3,63.4,89.8,70.1,94.2,70.7z"/>
</g>
</svg>
