<svg xmlns="http://www.w3.org/2000/svg" xmlns:xlink="http://www.w3.org/1999/xlink" viewBox="0 0 163.59 25.84">
    <defs>
        <linearGradient id="linear-gradient" x1="62.81" y1="20.21" x2="80.71" y2="1.67"
                        gradientUnits="userSpaceOnUse">
            <stop offset="0" stop-color="#f6a45a"/>
            <stop offset="0.07" stop-color="#f69954"/>
            <stop offset="0.2" stop-color="#f67b43"/>
            <stop offset="0.36" stop-color="#f74b27"/>
            <stop offset="0.43" stop-color="#f7351b"/>
            <stop offset="1" stop-color="#d72b1e"/>
        </linearGradient>
    </defs>
    <g>
        <path fill="#d2d2d2"
              d="M0,19.69V6.94A6.56,6.56,0,0,1,1.46,2.38,5.56,5.56,0,0,1,5.76.79a5.86,5.86,0,0,1,4.38,1.59,6.31,6.31,0,0,1,1.55,4.56V9.33H7.84V6.7c0-1.61-.66-2.41-2-2.41s-2,.8-2,2.41V19.93c0,1.59.66,2.39,2,2.39s2-.8,2-2.39v-3.5h3.85v3.26a6.27,6.27,0,0,1-1.55,4.55,5.82,5.82,0,0,1-4.38,1.6,5.53,5.53,0,0,1-4.3-1.6A6.51,6.51,0,0,1,0,19.69Z"/>
        <path fill="#d2d2d2" d="M13.73,25.57l3.9-24.51h5.94l3.9,24.51H23.62L23,21.12H18.24l-.67,4.45Zm5-7.78h3.71L20.59,5.46Z"/>
        <path fill="#d2d2d2"
              d="M29.28,19.69v-1.5h3.95v1.74c0,1.59.62,2.39,1.85,2.39s1.84-.8,1.84-2.39A4.49,4.49,0,0,0,36.51,18a6.41,6.41,0,0,0-1.06-1.64c-.43-.48-.9-1-1.43-1.45s-1.06-1-1.62-1.52a13.79,13.79,0,0,1-1.49-1.68,7.7,7.7,0,0,1-1.1-2.12,8.13,8.13,0,0,1-.42-2.65A6.24,6.24,0,0,1,31,2.38,5.66,5.66,0,0,1,35.19.79a5.25,5.25,0,0,1,4.1,1.59,6.6,6.6,0,0,1,1.44,4.56v.79H37.09v-1c0-1.61-.64-2.41-1.94-2.41a1.78,1.78,0,0,0-1.44.57,2.87,2.87,0,0,0-.48,1.84,4.53,4.53,0,0,0,.42,1.93,6.25,6.25,0,0,0,1.08,1.63,20.3,20.3,0,0,0,1.47,1.46c.54.48,1.08,1,1.61,1.52a14.4,14.4,0,0,1,1.46,1.68A7.67,7.67,0,0,1,40.35,17a8.13,8.13,0,0,1,.42,2.65,6.47,6.47,0,0,1-1.47,4.55,5.34,5.34,0,0,1-4.15,1.6,5.73,5.73,0,0,1-4.27-1.6A6.13,6.13,0,0,1,29.28,19.69Z"/>
        <path fill="#d2d2d2" d="M43.87,25.57V1.06H54.36v3.5H47.71V11.4H53v3.49H47.71v7.17h6.65v3.51Z"/>
        <path fill="#d2d2d2"
              d="M84.67,25.52V1h5.81a5.91,5.91,0,0,1,4.33,1.38,5.84,5.84,0,0,1,1.38,4.26v.87c0,2.51-.83,4.15-2.5,4.94,1.92.74,2.87,2.49,2.87,5.25v2A5.86,5.86,0,0,1,95.08,24a5.94,5.94,0,0,1-4.36,1.49ZM88.51,11H90a2.36,2.36,0,0,0,1.74-.59,2.77,2.77,0,0,0,.58-2V7a3.17,3.17,0,0,0-.46-1.92,1.78,1.78,0,0,0-1.5-.61H88.51Zm0,11h2.21a1.94,1.94,0,0,0,1.5-.54,2.79,2.79,0,0,0,.5-1.87V17.47a3.6,3.6,0,0,0-.57-2.33,2.46,2.46,0,0,0-1.91-.65H88.51Z"/>
        <path fill="#d2d2d2" d="M98.77,25.52,102.67,1h5.94l3.9,24.51h-3.84L108,21.07h-4.72l-.66,4.45Zm5-7.78h3.71L105.63,5.4Z"/>
        <path fill="#d2d2d2" d="M112.46,4.51V1h11.92v3.5h-4v21H116.5v-21Z"/>
        <path fill="#d2d2d2" d="M125.83,4.51V1h11.91v3.5h-4v21h-3.84v-21Z"/>
        <path fill="#d2d2d2" d="M140.33,25.52V1h3.84V22h6.34v3.51Z"/>
        <path fill="#d2d2d2" d="M153.1,25.52V1h10.49v3.5h-6.65v6.84h5.28v3.48h-5.28V22h6.65v3.51Z"/>
        <ellipse fill="#ffffff;" cx="69.82" cy="15.86" rx="11.91" ry="9.46"/>
        <path fill="url(#linear-gradient)"
              d="M78.31,7.2a10.4,10.4,0,0,0-2.8-1.52,4.53,4.53,0,0,0-1.83-.19A2.91,2.91,0,0,0,74,4.9a1.62,1.62,0,0,0,.67-.54,2.11,2.11,0,0,0,0-2.12l.13-.07a1,1,0,0,0,.33-.49.8.8,0,0,0,0-.66c-.09-.16-.23,0-.34.07a1.84,1.84,0,0,0-.6-1c-.08-.06-.26-.21-.34-.08a.75.75,0,0,0,0,.26.76.76,0,0,0,0,.21A1.82,1.82,0,0,0,71.79.35c-.08,0-.12.09-.09.18s.12.16.17.24L72,1a2.32,2.32,0,0,0,.21.38l.11.14c-.2,0-.52.1-.4.31a1.24,1.24,0,0,0,.49.42,1.42,1.42,0,0,0,.45.16l-.06,0a.06.06,0,0,0,0,.09.65.65,0,0,0,.6.37.51.51,0,0,0,.37-.16c.08-.09.06-.36.23-.33a.08.08,0,0,0,.09-.1.29.29,0,0,1,.17-.07,1.81,1.81,0,0,1,.1,1.9,1.16,1.16,0,0,1-.34.32,1.5,1.5,0,0,0-.17-.74,1.05,1.05,0,0,0-.32-.39A.73.73,0,0,0,73,3.23c-.44.1-.58.6-.63.82a.8.8,0,0,0,.08.56.72.72,0,0,0,.3.27,1.21,1.21,0,0,0,.81.13,2.39,2.39,0,0,1-.36.57,2.67,2.67,0,0,0-.4.13A6,6,0,0,1,71.91,4a3.3,3.3,0,0,0-1.85-2.2,3.82,3.82,0,0,0-2.54,0,2.5,2.5,0,0,0-.63.29h0a.5.5,0,0,0-.12.08,1,1,0,0,0-.11.1.41.41,0,0,0-.05.34,1.13,1.13,0,0,0,.14.36c.09.14.29.34.48.23a.34.34,0,0,0,.08-.09,1.23,1.23,0,0,1,1.64.26,2.29,2.29,0,0,1,.12,1.78c0,.23-.08.49-.1.75l-.86-.24a2.33,2.33,0,0,1-.66-.89.83.83,0,0,1,0-.76.73.73,0,0,1,.76-.3.5.5,0,0,1,.39.36.5.5,0,0,1-.23.45.46.46,0,0,1-.33.07.14.14,0,0,1-.1-.08.17.17,0,0,0-.06-.23.15.15,0,0,0-.22.06.35.35,0,0,0,0,.3.5.5,0,0,0,.33.27.75.75,0,0,0,.59-.11A.77.77,0,0,0,69,4a.83.83,0,0,0-.63-.64,1.1,1.1,0,0,0-1.13.44,1.18,1.18,0,0,0-.08,1.06,2.21,2.21,0,0,0,.38.64A5.08,5.08,0,0,0,66,5.37c-4.11.28-7,4.38-8.43,7.59C56,16.57,56.13,21.29,59.91,23.6c3.06,1.88,7.07,2.06,10.62,2a17.61,17.61,0,0,0,7.16-1.23,11,11,0,0,0,2.8-1.92C85.1,18.17,83.16,10.59,78.31,7.2Zm-5.4-2.61a.45.45,0,0,1-.18-.15.53.53,0,0,1,0-.32c0-.24.17-.51.37-.56h.05a.47.47,0,0,1,.22.07.75.75,0,0,1,.21.27,1.25,1.25,0,0,1,.12.74A1,1,0,0,1,72.91,4.59Zm.59,6.06a13.9,13.9,0,0,0,1.06,1,9.57,9.57,0,0,0,0-1.93l1.35-1.29,2.77,2.87a8.93,8.93,0,0,1-7.24,1.51C71.59,12.51,72.53,11.59,73.5,10.65Zm-2.39,4.2a6.28,6.28,0,0,1-1.25.21c-.06-.5-.11-1.55-.11-1.55Zm-1.56-1.08s-.09.7-.15,1.27a6.83,6.83,0,0,1-.93-.19S69.55,13.77,69.55,13.77ZM63.25,8.6l1.3,1.25a9.85,9.85,0,0,0,0,1.88,12.77,12.77,0,0,0,1-.92c.95.91,1.86,1.81,2.06,2a8.67,8.67,0,0,1-7-1.47ZM77,21.11l-2.43-1.73.07,3a12.09,12.09,0,0,1-8,.73l-.79-3.49-2.33,2c-2.23-1.27-3.43-3.58-3.52-7a18.63,18.63,0,0,0,2.8,1.21l.91,2.43,1-1.89a19,19,0,0,0,10.08-.51l1.37,1.63.4-2.32.86-.42a11.92,11.92,0,0,0,1.86-1.45S80.5,18.24,77,21.11Z"/>
    </g>
</svg>
